<svg width="64" height="64" viewBox="0 0 64 64" fill="none" xmlns="http://www.w3.org/2000/svg">
<path fill-rule="evenodd" clip-rule="evenodd" d="M32 63C49.1208 63 63 49.1208 63 32C63 14.8792 49.1208 1 32 1C14.8792 1 1 14.8792 1 32C1 49.1208 14.8792 63 32 63ZM32 64C49.6731 64 64 49.6731 64 32C64 14.3269 49.6731 0 32 0C14.3269 0 0 14.3269 0 32C0 49.6731 14.3269 64 32 64Z" fill="#D8E0EA"/>
<path fill-rule="evenodd" clip-rule="evenodd" d="M24.0535 25.4203C23.4386 25.9913 22.998 26.9406 22.998 28.5C22.998 29.0523 22.5503 29.5 21.998 29.5C21.4458 29.5 20.998 29.0523 20.998 28.5C20.998 26.5594 21.5575 25.0087 22.6926 23.9547C23.8142 22.9132 25.3448 22.5 26.998 22.5H36.998C38.6513 22.5 40.1819 22.9132 41.3035 23.9547C42.4386 25.0087 42.998 26.5594 42.998 28.5V35.5C42.998 37.4406 42.4386 38.9913 41.3035 40.0453C40.1819 41.0868 38.6513 41.5 36.998 41.5H26.998C26.4458 41.5 25.998 41.0523 25.998 40.5C25.998 39.9477 26.4458 39.5 26.998 39.5H36.998C38.3448 39.5 39.3142 39.1632 39.9426 38.5797C40.5575 38.0087 40.998 37.0594 40.998 35.5V28.5C40.998 26.9406 40.5575 25.9913 39.9426 25.4203C39.3142 24.8368 38.3448 24.5 36.998 24.5H26.998C25.6513 24.5 24.6819 24.8368 24.0535 25.4203Z" fill="#131B24"/>
<path fill-rule="evenodd" clip-rule="evenodd" d="M37.7818 28.3759C38.1265 28.8074 38.0561 29.4367 37.6246 29.7814L34.4933 32.2823C33.0988 33.3925 30.8922 33.3925 29.4976 32.2823L29.4952 32.2804L26.3752 29.7804C25.9442 29.435 25.8748 28.8057 26.2201 28.3747C26.5655 27.9437 27.1948 27.8743 27.6258 28.2196L30.7444 30.7185C31.4099 31.2473 32.5819 31.2472 33.2471 30.7181V30.7181L36.3764 28.2186C36.8079 27.874 37.4372 27.9444 37.7818 28.3759Z" fill="#131B24"/>
<path fill-rule="evenodd" clip-rule="evenodd" d="M20.998 36.5C20.998 35.9477 21.4458 35.5 21.998 35.5H27.998C28.5503 35.5 28.998 35.9477 28.998 36.5C28.998 37.0523 28.5503 37.5 27.998 37.5H21.998C21.4458 37.5 20.998 37.0523 20.998 36.5Z" fill="#131B24"/>
<path fill-rule="evenodd" clip-rule="evenodd" d="M20.998 32.5C20.998 31.9477 21.4458 31.5 21.998 31.5H24.998C25.5503 31.5 25.998 31.9477 25.998 32.5C25.998 33.0523 25.5503 33.5 24.998 33.5H21.998C21.4458 33.5 20.998 33.0523 20.998 32.5Z" fill="#131B24"/>
</svg>
