<svg width="72" height="72" viewBox="0 0 72 72" fill="none" xmlns="http://www.w3.org/2000/svg">
<path d="M65.0079 29.9791L59.7332 27.644L51.1169 11.9069C49.7285 9.37068 47.07 7.79565 44.1782 7.79565C44.1778 7.79565 44.1766 7.79565 44.1762 7.79565L10.1217 7.80595C5.76205 7.8076 2.21484 11.3565 2.21484 15.7161V50.391C2.21484 54.7527 5.76288 58.3012 10.125 58.3012H12.5561C13.6442 61.3701 16.5751 63.5746 20.0127 63.5746C23.4503 63.5746 26.3812 61.3701 27.4692 58.3012H43.8012C44.8893 61.3701 47.8202 63.5746 51.2578 63.5746C54.6954 63.5746 57.6263 61.3701 58.7144 58.3012H61.8047C66.1668 58.3012 69.7148 54.7527 69.7148 50.391V37.2115C69.7148 34.0846 67.8671 31.2456 65.0079 29.9791ZM44.1778 13.0691H44.1782C45.1423 13.0691 46.0289 13.5944 46.4915 14.4398L54.0494 28.2426H39.3926V13.0707L44.1778 13.0691ZM34.1191 28.2426H23.5723V13.0753L34.1191 13.0724V28.2426ZM10.1242 13.0794L18.2988 13.0769V28.2426H7.48828V15.7161C7.48828 14.263 8.67068 13.0802 10.1242 13.0794ZM7.48828 50.391V33.516H34.1191V53.0277H27.4692C26.3812 49.9593 23.4503 47.7543 20.0127 47.7543C16.5751 47.7543 13.6442 49.9593 12.5561 53.0277H10.125C8.6711 53.0277 7.48828 51.8449 7.48828 50.391ZM20.0127 58.3012C18.5588 58.3012 17.376 57.1184 17.376 55.6645C17.376 54.211 18.5588 53.0277 20.0127 53.0277C21.4666 53.0277 22.6494 54.211 22.6494 55.6645C22.6494 57.1184 21.4666 58.3012 20.0127 58.3012ZM51.2578 58.3012C49.8039 58.3012 48.6211 57.1184 48.6211 55.6645C48.6211 54.211 49.8039 53.0277 51.2578 53.0277C52.7117 53.0277 53.8945 54.211 53.8945 55.6645C53.8945 57.1184 52.7117 58.3012 51.2578 58.3012ZM64.4414 50.391C64.4414 51.8449 63.2586 53.0277 61.8047 53.0277H58.7144C57.6263 49.9593 54.6954 47.7543 51.2578 47.7543C47.8202 47.7543 44.8893 49.9593 43.8012 53.0277H39.3926V33.516H59.8271V33.4522L62.8721 34.801C63.8255 35.2229 64.4414 36.1692 64.4414 37.2115V50.391Z" fill="url(#paint0_linear)"/>
<path d="M43.3386 43.9861L39.8221 42.4294L34.0779 31.938C33.1523 30.2472 31.38 29.1971 29.4521 29.1971C29.4519 29.1971 29.451 29.1971 29.4508 29.1971L6.7478 29.204C3.84137 29.2051 1.47656 31.571 1.47656 34.4774V57.5941C1.47656 60.5019 3.84192 62.8675 6.75 62.8675H8.37076C9.09613 64.9134 11.05 66.3831 13.3418 66.3831C15.6335 66.3831 17.5875 64.9134 18.3128 62.8675H29.2008C29.9262 64.9134 31.8801 66.3831 34.1719 66.3831C36.4636 66.3831 38.4175 64.9134 39.1429 62.8675H41.2031C44.1112 62.8675 46.4766 60.5019 46.4766 57.5941V48.8077C46.4766 46.7231 45.2447 44.8304 43.3386 43.9861ZM29.4519 32.7128H29.4521C30.0948 32.7128 30.6859 33.063 30.9943 33.6266L36.033 42.8284H26.2617V32.7139L29.4519 32.7128ZM22.7461 42.8284H15.7148V32.7169L22.7461 32.715V42.8284ZM6.74945 32.7196L12.1992 32.718V42.8284H4.99219V34.4774C4.99219 33.5087 5.78046 32.7202 6.74945 32.7196ZM4.99219 57.5941V46.3441H22.7461V59.3519H18.3128C17.5875 57.3062 15.6335 55.8362 13.3418 55.8362C11.05 55.8362 9.09613 57.3062 8.37076 59.3519H6.75C5.78073 59.3519 4.99219 58.5633 4.99219 57.5941ZM13.3418 62.8675C12.3725 62.8675 11.584 62.0789 11.584 61.1097C11.584 60.1407 12.3725 59.3519 13.3418 59.3519C14.3111 59.3519 15.0996 60.1407 15.0996 61.1097C15.0996 62.0789 14.3111 62.8675 13.3418 62.8675ZM34.1719 62.8675C33.2026 62.8675 32.4141 62.0789 32.4141 61.1097C32.4141 60.1407 33.2026 59.3519 34.1719 59.3519C35.1411 59.3519 35.9297 60.1407 35.9297 61.1097C35.9297 62.0789 35.1411 62.8675 34.1719 62.8675ZM42.9609 57.5941C42.9609 58.5633 42.1724 59.3519 41.2031 59.3519H39.1429C38.4175 57.3062 36.4636 55.8362 34.1719 55.8362C31.8801 55.8362 29.9262 57.3062 29.2008 59.3519H26.2617V46.3441H39.8848V46.3015L41.9148 47.2007C42.5503 47.482 42.9609 48.1129 42.9609 48.8077V57.5941Z" fill="url(#paint1_linear)"/>
<defs>
<linearGradient id="paint0_linear" x1="35.9648" y1="7.79565" x2="35.9648" y2="63.5746" gradientUnits="userSpaceOnUse">
<stop stop-color="#D6DEE8"/>
<stop offset="1" stop-color="#D6DEE8" stop-opacity="0"/>
</linearGradient>
<linearGradient id="paint1_linear" x1="1.47656" y1="66.3831" x2="50.0987" y2="60.8125" gradientUnits="userSpaceOnUse">
<stop stop-color="#0B62C5"/>
<stop offset="1" stop-color="#23B93B"/>
</linearGradient>
</defs>
</svg>
