<svg width="16" height="12" viewBox="0 0 16 12" fill="none" xmlns="http://www.w3.org/2000/svg">
<path d="M7.99943 11.8123C7.99809 11.8123 7.99662 11.8123 7.99516 11.8123C7.51237 11.809 3.2443 11.7701 2.03507 11.443C1.18997 11.2159 0.522858 10.5495 0.295075 9.70426C-0.0213319 8.51639 -0.00119027 6.22939 0.001007 6.04677C-0.0010682 5.86501 -0.021454 3.55909 0.294098 2.36146C0.294464 2.36036 0.294709 2.35914 0.295075 2.35804C0.520295 1.52247 1.20242 0.835451 2.03299 0.607667C2.03507 0.607057 2.03727 0.606569 2.03934 0.605958C3.2349 0.291748 7.51139 0.253296 7.99516 0.25H8.00383C8.48784 0.253296 12.7673 0.292236 13.9654 0.619752C14.8089 0.84656 15.476 1.51282 15.7038 2.35804C16.0317 3.55421 16.001 5.86648 15.9979 6.06057C15.9983 6.10354 15.9999 6.27895 15.9971 6.53786C15.9933 6.88076 15.7143 7.15615 15.3722 7.15615C15.3699 7.15615 15.3677 7.15615 15.3654 7.15603C15.0202 7.15237 14.7435 6.86953 14.7471 6.52444C14.7502 6.24758 14.7479 6.06899 14.7479 6.06716C14.7477 6.06069 14.7479 6.0541 14.7479 6.04751C14.7593 5.40859 14.7369 3.55885 14.4976 2.68592C14.3846 2.26685 14.0556 1.93836 13.6382 1.82618C12.7548 1.5846 9.27287 1.50892 7.99943 1.5C6.72636 1.50892 3.24845 1.58265 2.36014 1.81409C1.95084 1.92762 1.61441 2.26783 1.50223 2.68202C1.2244 3.73915 1.25064 6.01577 1.25089 6.03859V6.05507C1.24259 6.68642 1.27176 8.5148 1.50235 9.38077C1.61417 9.79544 1.94315 10.1239 2.36039 10.2362C3.2526 10.4776 6.7288 10.5534 7.99931 10.5623C9.27312 10.5534 12.7544 10.4797 13.6401 10.2478C14.0564 10.1352 14.3847 9.80704 14.4969 9.39102C14.5867 9.05777 14.9297 8.86038 15.263 8.95035C15.5962 9.04019 15.7936 9.38309 15.7038 9.71646C15.4759 10.5616 14.8089 11.2279 13.9628 11.4555C13.9617 11.4557 13.9605 11.4561 13.9594 11.4563C12.764 11.7705 8.48735 11.809 8.00371 11.8123C8.00236 11.8123 8.0009 11.8123 7.99943 11.8123ZM7.29191 8.35843L10.4844 6.51553C10.668 6.40945 10.7813 6.21279 10.7813 5.9999C10.7813 5.78701 10.668 5.59035 10.4844 5.48427L7.29191 3.64137C7.10893 3.53578 6.88383 3.53614 6.70133 3.64247C6.51872 3.74867 6.40629 3.94472 6.40629 4.15687V7.8428C6.40629 8.05496 6.51872 8.25101 6.70133 8.35733C6.79289 8.41067 6.89518 8.43741 6.99748 8.43741C7.09916 8.43741 7.20073 8.41104 7.29191 8.35843Z" fill="white"/>
</svg>
