<svg width="69" height="60" viewBox="0 0 69 60" fill="none" xmlns="http://www.w3.org/2000/svg">
<path d="M13 21C13.7956 21 14.5587 21.3161 15.1213 21.8787C15.6839 22.4413 16 23.2044 16 24C20.7134 23.9931 25.2909 25.5788 28.99 28.5H35.5C39.499 28.5 43.09 30.24 45.562 33H55C57.8358 32.9992 60.6137 33.8023 63.0116 35.3161C65.4095 36.83 67.3292 38.9925 68.548 41.553C61.453 50.916 49.966 57 37 57C28.63 57 21.55 55.191 15.82 52.026C15.6101 52.6052 15.2267 53.1055 14.722 53.4588C14.2174 53.8121 13.616 54.001 13 54H4C3.20435 54 2.44129 53.6839 1.87868 53.1213C1.31607 52.5587 1 51.7957 1 51V24C1 23.2044 1.31607 22.4413 1.87868 21.8787C2.44129 21.3161 3.20435 21 4 21H13ZM16.003 30L16 45.066L16.135 45.162C21.52 48.942 28.534 51 37 51C46.012 51 54.397 47.532 60.505 41.61L60.904 41.211L60.544 40.911C59.1274 39.8015 57.4102 39.1431 55.615 39.021L55 39H48.667C48.883 39.966 49 40.968 49 42V45H22V39L42.37 38.997L42.268 38.763C41.6931 37.5616 40.8087 36.5349 39.7058 35.7884C38.6028 35.0418 37.321 34.6023 35.992 34.515L35.5 34.5H26.71C25.3159 33.0742 23.6508 31.9415 21.8126 31.1687C19.9743 30.3959 18.0001 29.9986 16.006 30H16.003ZM10 27H7V48H10V27ZM52 9C54.3869 9 56.6761 9.94821 58.364 11.636C60.0518 13.3239 61 15.6131 61 18C61 20.3869 60.0518 22.6761 58.364 24.364C56.6761 26.0518 54.3869 27 52 27C49.6131 27 47.3239 26.0518 45.636 24.364C43.9482 22.6761 43 20.3869 43 18C43 15.6131 43.9482 13.3239 45.636 11.636C47.3239 9.94821 49.6131 9 52 9ZM52 15C51.2043 15 50.4413 15.3161 49.8787 15.8787C49.3161 16.4413 49 17.2044 49 18C49 18.7956 49.3161 19.5587 49.8787 20.1213C50.4413 20.6839 51.2043 21 52 21C52.7957 21 53.5587 20.6839 54.1213 20.1213C54.6839 19.5587 55 18.7956 55 18C55 17.2044 54.6839 16.4413 54.1213 15.8787C53.5587 15.3161 52.7957 15 52 15ZM31 0C33.3869 0 35.6761 0.948212 37.364 2.63604C39.0518 4.32387 40 6.61305 40 9C40 11.3869 39.0518 13.6761 37.364 15.364C35.6761 17.0518 33.3869 18 31 18C28.6131 18 26.3239 17.0518 24.636 15.364C22.9482 13.6761 22 11.3869 22 9C22 6.61305 22.9482 4.32387 24.636 2.63604C26.3239 0.948212 28.6131 0 31 0ZM31 6C30.2044 6 29.4413 6.31607 28.8787 6.87868C28.3161 7.44129 28 8.20435 28 9C28 9.79565 28.3161 10.5587 28.8787 11.1213C29.4413 11.6839 30.2044 12 31 12C31.7956 12 32.5587 11.6839 33.1213 11.1213C33.6839 10.5587 34 9.79565 34 9C34 8.20435 33.6839 7.44129 33.1213 6.87868C32.5587 6.31607 31.7956 6 31 6Z" fill="url(#paint0_linear)"/>
<path d="M8 36C8.53043 36 9.03914 36.2107 9.41421 36.5858C9.78929 36.9609 10 37.4696 10 38C13.1423 37.9954 16.194 39.0525 18.66 41H23C25.666 41 28.06 42.16 29.708 44H36C37.8905 43.9995 39.7425 44.5349 41.3411 45.5441C42.9397 46.5533 44.2195 47.995 45.032 49.702C40.302 55.944 32.644 60 24 60C18.42 60 13.7 58.794 9.88 56.684C9.74009 57.0701 9.48448 57.4037 9.14803 57.6392C8.81159 57.8747 8.41068 58.0007 8 58H2C1.46957 58 0.960859 57.7893 0.585786 57.4142C0.210714 57.0391 0 56.5304 0 56V38C0 37.4696 0.210714 36.9609 0.585786 36.5858C0.960859 36.2107 1.46957 36 2 36H8ZM10.002 42L10 52.044L10.09 52.108C13.68 54.628 18.356 56 24 56C30.008 56 35.598 53.688 39.67 49.74L39.936 49.474L39.696 49.274C38.7516 48.5343 37.6068 48.0954 36.41 48.014L36 48H31.778C31.922 48.644 32 49.312 32 50V52H14V48L27.58 47.998L27.512 47.842C27.1287 47.0411 26.5391 46.3566 25.8038 45.8589C25.0685 45.3612 24.214 45.0682 23.328 45.01L23 45H17.14C16.2106 44.0494 15.1005 43.2944 13.875 42.7792C12.6495 42.264 11.3334 41.999 10.004 42H10.002ZM6 40H4V54H6V40ZM34 28C35.5913 28 37.1174 28.6321 38.2426 29.7574C39.3679 30.8826 40 32.4087 40 34C40 35.5913 39.3679 37.1174 38.2426 38.2426C37.1174 39.3679 35.5913 40 34 40C32.4087 40 30.8826 39.3679 29.7574 38.2426C28.6321 37.1174 28 35.5913 28 34C28 32.4087 28.6321 30.8826 29.7574 29.7574C30.8826 28.6321 32.4087 28 34 28ZM34 32C33.4696 32 32.9609 32.2107 32.5858 32.5858C32.2107 32.9609 32 33.4696 32 34C32 34.5304 32.2107 35.0391 32.5858 35.4142C32.9609 35.7893 33.4696 36 34 36C34.5304 36 35.0391 35.7893 35.4142 35.4142C35.7893 35.0391 36 34.5304 36 34C36 33.4696 35.7893 32.9609 35.4142 32.5858C35.0391 32.2107 34.5304 32 34 32ZM20 22C21.5913 22 23.1174 22.6321 24.2426 23.7574C25.3679 24.8826 26 26.4087 26 28C26 29.5913 25.3679 31.1174 24.2426 32.2426C23.1174 33.3679 21.5913 34 20 34C18.4087 34 16.8826 33.3679 15.7574 32.2426C14.6321 31.1174 14 29.5913 14 28C14 26.4087 14.6321 24.8826 15.7574 23.7574C16.8826 22.6321 18.4087 22 20 22ZM20 26C19.4696 26 18.9609 26.2107 18.5858 26.5858C18.2107 26.9609 18 27.4696 18 28C18 28.5304 18.2107 29.0391 18.5858 29.4142C18.9609 29.7893 19.4696 30 20 30C20.5304 30 21.0391 29.7893 21.4142 29.4142C21.7893 29.0391 22 28.5304 22 28C22 27.4696 21.7893 26.9609 21.4142 26.5858C21.0391 26.2107 20.5304 26 20 26Z" fill="url(#paint1_linear)"/>
<defs>
<linearGradient id="paint0_linear" x1="34.774" y1="0" x2="34.774" y2="57" gradientUnits="userSpaceOnUse">
<stop stop-color="#D6DEE8"/>
<stop offset="1" stop-color="#D6DEE8" stop-opacity="0"/>
</linearGradient>
<linearGradient id="paint1_linear" x1="0" y1="60" x2="48.6826" y2="54.5381" gradientUnits="userSpaceOnUse">
<stop stop-color="#0B62C5"/>
<stop offset="1" stop-color="#23B93B"/>
</linearGradient>
</defs>
</svg>
