<svg width="57" height="59" viewBox="0 0 57 59" fill="none" xmlns="http://www.w3.org/2000/svg">
<path d="M57 0V6C57 34.881 40.881 48 21 48H9.729C9.24 50.736 9 53.721 9 57H3C3 52.911 3.348 49.2 4.038 45.804C3.348 41.922 3 36.654 3 30C3 13.431 16.431 0 33 0C39 0 45 3 57 0ZM33 6C19.746 6 9 16.746 9 30C9 31.086 9.009 32.133 9.03 33.138C12.792 27.204 18.303 22.515 25.512 18.396L28.488 23.604C19.923 28.5 14.241 34.062 11.328 42H21C39.045 42 50.613 30.081 50.991 7.164C46.875 7.563 43.05 7.308 38.331 6.6C34.881 6.081 34.203 6 33 6Z" fill="url(#paint0_linear)"/>
<path d="M36 21V25C36 44.254 25.254 53 12 53H4.486C4.16 54.824 4 56.814 4 59H0C0 56.274 0.232 53.8 0.692 51.536C0.232 48.948 0 45.436 0 41C0 29.954 8.954 21 20 21C24 21 28 23 36 21ZM20 25C11.164 25 4 32.164 4 41C4 41.724 4.006 42.422 4.02 43.092C6.528 39.136 10.202 36.01 15.008 33.264L16.992 36.736C11.282 40 7.494 43.708 5.552 49H12C24.03 49 31.742 41.054 31.994 25.776C29.25 26.042 26.7 25.872 23.554 25.4C21.254 25.054 20.802 25 20 25Z" fill="url(#paint1_linear)"/>
<defs>
<linearGradient id="paint0_linear" x1="30" y1="0" x2="30" y2="57" gradientUnits="userSpaceOnUse">
<stop stop-color="#D6DEE8"/>
<stop offset="1" stop-color="#D6DEE8" stop-opacity="0"/>
</linearGradient>
<linearGradient id="paint1_linear" x1="0" y1="59" x2="39.0938" y2="55.4936" gradientUnits="userSpaceOnUse">
<stop stop-color="#0B62C5"/>
<stop offset="1" stop-color="#23B93B"/>
</linearGradient>
</defs>
</svg>
