<svg width="72" height="72" viewBox="0 0 72 72" fill="none" xmlns="http://www.w3.org/2000/svg">
<g clip-path="url(#clip0)">
<path d="M31.9532 43.8788C31.9532 48.531 35.738 52.3152 40.3896 52.3152C45.0412 52.3152 48.826 48.531 48.826 43.8788C48.826 39.2272 45.0412 35.4424 40.3896 35.4424C35.738 35.4424 31.9532 39.2272 31.9532 43.8788ZM43.2015 43.8788C43.2015 45.4296 41.9403 46.6908 40.3896 46.6908C38.8389 46.6908 37.5776 45.4296 37.5776 43.8788C37.5776 42.3281 38.8389 41.0669 40.3896 41.0669C41.9403 41.0669 43.2015 42.3281 43.2015 43.8788ZM63.5894 55.1272C58.9378 55.1272 55.153 58.912 55.153 63.5636C55.153 68.2152 58.9378 72 63.5894 72C68.241 72 72.0258 68.2152 72.0258 63.5636C72.0258 58.912 68.241 55.1272 63.5894 55.1272ZM63.5894 66.3755C62.0387 66.3755 60.7775 65.1143 60.7775 63.5636C60.7775 62.0129 62.0387 60.7516 63.5894 60.7516C65.1401 60.7516 66.4014 62.0129 66.4014 63.5636C66.4014 65.1143 65.1401 66.3755 63.5894 66.3755ZM65.1363 35.1612L45.3109 72H38.9174L58.7428 35.1612H65.1363ZM35.5573 66.3755L32.5305 72H15.6429C10.9913 72 7.20648 68.2152 7.20648 63.5636V34.0367L3.93146 37.025L0.140625 32.87L36.1714 0L68.5486 29.5373H60.2034L36.1714 7.61298L12.8309 28.9061V63.5636C12.8309 65.1143 14.0927 66.3761 15.6429 66.3761H35.5573V66.3755Z" fill="url(#paint0_linear)"/>
</g>
<g clip-path="url(#clip1)">
<path d="M21.3021 53.2526C21.3021 56.354 23.8253 58.8768 26.9264 58.8768C30.0275 58.8768 32.5507 56.354 32.5507 53.2526C32.5507 50.1515 30.0275 47.6283 26.9264 47.6283C23.8253 47.6283 21.3021 50.1515 21.3021 53.2526ZM28.801 53.2526C28.801 54.2864 27.9602 55.1272 26.9264 55.1272C25.8926 55.1272 25.0518 54.2864 25.0518 53.2526C25.0518 52.2188 25.8926 51.3779 26.9264 51.3779C27.9602 51.3779 28.801 52.2188 28.801 53.2526ZM42.3929 60.7515C39.2919 60.7515 36.7687 63.2747 36.7687 66.3757C36.7687 69.4768 39.2919 72 42.3929 72C45.494 72 48.0172 69.4768 48.0172 66.3757C48.0172 63.2747 45.494 60.7515 42.3929 60.7515ZM42.3929 68.2504C41.3591 68.2504 40.5183 67.4095 40.5183 66.3757C40.5183 65.3419 41.3591 64.5011 42.3929 64.5011C43.4268 64.5011 44.2676 65.3419 44.2676 66.3757C44.2676 67.4095 43.4268 68.2504 42.3929 68.2504ZM43.4242 47.4408L30.2073 72H25.9449L39.1619 47.4408H43.4242ZM23.7048 68.2504L21.687 72H10.4286C7.32751 72 4.80432 69.4768 4.80432 66.3757V46.6912L2.62097 48.6833L0.09375 45.9133L24.1143 24L45.6991 43.6915H40.1356L24.1143 29.0753L8.55396 43.2708V66.3757C8.55396 67.4095 9.39514 68.2507 10.4286 68.2507H23.7048V68.2504Z" fill="url(#paint1_linear)"/>
</g>
<defs>
<linearGradient id="paint0_linear" x1="36.0832" y1="0" x2="36.0832" y2="72" gradientUnits="userSpaceOnUse">
<stop stop-color="#D6DEE8"/>
<stop offset="1" stop-color="#D6DEE8" stop-opacity="0"/>
</linearGradient>
<linearGradient id="paint1_linear" x1="0.09375" y1="72" x2="52.0898" y2="67.0851" gradientUnits="userSpaceOnUse">
<stop stop-color="#0B62C5"/>
<stop offset="1" stop-color="#23B93B"/>
</linearGradient>
<clipPath id="clip0">
<rect width="72" height="72" fill="white"/>
</clipPath>
<clipPath id="clip1">
<rect width="48" height="48" fill="white" transform="translate(0 24)"/>
</clipPath>
</defs>
</svg>
