<svg width="72" height="72" viewBox="0 0 72 72" fill="none" xmlns="http://www.w3.org/2000/svg">
<path d="M63.5625 3.65625H8.4375C3.78506 3.65625 0 7.44131 0 12.0938V48.6562C0 53.3087 3.78506 57.0938 8.4375 57.0938H33.1875V62.7188H18.5625V68.3438H53.4375V62.7188H38.8125V57.0938H63.5625C68.2149 57.0938 72 53.3087 72 48.6562V12.0938C72 7.44131 68.2149 3.65625 63.5625 3.65625ZM66.375 48.6562C66.375 50.2071 65.1133 51.4688 63.5625 51.4688H8.4375C6.88669 51.4688 5.625 50.2071 5.625 48.6562V12.0938C5.625 10.5429 6.88669 9.28125 8.4375 9.28125H63.5625C65.1133 9.28125 66.375 10.5429 66.375 12.0938V48.6562ZM47.6865 32.465L39.2328 33.3188L43.4575 41.9872L38.4009 44.4516L34.08 35.5856L27.7104 41.5675V16.4531L47.6865 32.465Z" fill="url(#paint0_linear)"/>
<path d="M42.375 26.4375H5.625C2.52338 26.4375 0 28.9609 0 32.0625V56.4375C0 59.5391 2.52338 62.0625 5.625 62.0625H22.125V65.8125H12.375V69.5625H35.625V65.8125H25.875V62.0625H42.375C45.4766 62.0625 48 59.5391 48 56.4375V32.0625C48 28.9609 45.4766 26.4375 42.375 26.4375ZM44.25 56.4375C44.25 57.4714 43.4089 58.3125 42.375 58.3125H5.625C4.59113 58.3125 3.75 57.4714 3.75 56.4375V32.0625C3.75 31.0286 4.59113 30.1875 5.625 30.1875H42.375C43.4089 30.1875 44.25 31.0286 44.25 32.0625V56.4375ZM31.791 45.6433L26.1552 46.2126L28.9717 51.9915L25.6006 53.6344L22.72 47.7237L18.4736 51.7117V34.9688L31.791 45.6433Z" fill="url(#paint1_linear)"/>
<defs>
<linearGradient id="paint0_linear" x1="36" y1="3.65625" x2="36" y2="68.3438" gradientUnits="userSpaceOnUse">
<stop stop-color="#D6DEE8"/>
<stop offset="1" stop-color="#D6DEE8" stop-opacity="0"/>
</linearGradient>
<linearGradient id="paint1_linear" x1="0" y1="69.5625" x2="51.9673" y2="64.0863" gradientUnits="userSpaceOnUse">
<stop stop-color="#0B62C5"/>
<stop offset="1" stop-color="#23B93B"/>
</linearGradient>
</defs>
</svg>
