<svg width="240" height="200" viewBox="0 0 240 200" fill="none" xmlns="http://www.w3.org/2000/svg">
<rect width="240" height="200" fill="#0B62C5"/>
<path d="M200 120C200 109.494 197.931 99.0914 193.91 89.3853C189.89 79.6793 183.997 70.8601 176.569 63.4315C169.14 56.0028 160.321 50.11 150.615 46.0896C140.909 42.0693 130.506 40 120 40C109.494 40 99.0914 42.0693 89.3853 46.0896C79.6793 50.11 70.8601 56.0028 63.4315 63.4315C56.0028 70.8601 50.11 79.6793 46.0896 89.3853C42.0693 99.0914 40 109.494 40 120H62.4C62.4 112.436 63.8899 104.946 66.7845 97.9574C69.6792 90.9691 73.922 84.6193 79.2706 79.2706C84.6193 73.922 90.9691 69.6792 97.9574 66.7845C104.946 63.8899 112.436 62.4 120 62.4C127.564 62.4 135.054 63.8899 142.043 66.7845C149.031 69.6792 155.381 73.922 160.729 79.2706C166.078 84.6193 170.321 90.9691 173.215 97.9574C176.11 104.946 177.6 112.436 177.6 120H200Z" fill="url(#paint0_linear)"/>
<path d="M90.891 102.672C91.771 102.832 92.563 103.176 93.267 103.704C93.971 104.232 94.515 104.888 94.899 105.672C95.299 106.44 95.499 107.28 95.499 108.192C95.499 109.28 95.211 110.296 94.635 111.24C94.075 112.168 93.307 112.904 92.331 113.448C91.371 113.992 90.323 114.264 89.187 114.264C88.227 114.264 87.323 114.072 86.475 113.688C85.643 113.288 84.931 112.744 84.339 112.056C83.747 111.368 83.339 110.592 83.115 109.728L85.779 108.744C85.987 109.56 86.395 110.216 87.003 110.712C87.627 111.208 88.347 111.456 89.163 111.456C89.787 111.456 90.363 111.312 90.891 111.024C91.419 110.736 91.835 110.344 92.139 109.848C92.443 109.336 92.595 108.776 92.595 108.168C92.595 107.288 92.283 106.56 91.659 105.984C91.051 105.408 90.283 105.12 89.355 105.12C88.683 105.12 88.043 105.328 87.435 105.744L86.019 103.656L90.987 98.832H83.667V96H94.899V98.784L90.891 102.672Z" fill="white"/>
<path d="M103.865 101.64C105.001 101.64 106.057 101.92 107.033 102.48C108.009 103.04 108.785 103.8 109.361 104.76C109.937 105.704 110.225 106.736 110.225 107.856C110.225 109.008 109.929 110.08 109.337 111.072C108.745 112.048 107.945 112.824 106.937 113.4C105.929 113.976 104.825 114.264 103.625 114.264C102.441 114.264 101.337 113.984 100.313 113.424C99.3051 112.864 98.4971 112.104 97.8891 111.144C97.2811 110.184 96.9771 109.128 96.9771 107.976C96.9771 107.224 97.1211 106.48 97.4091 105.744C97.7131 105.008 98.2091 104.152 98.8971 103.176L103.985 96H107.585L103.577 101.64H103.865ZM103.625 111.384C104.265 111.384 104.865 111.224 105.425 110.904C105.985 110.584 106.425 110.152 106.745 109.608C107.081 109.064 107.249 108.472 107.249 107.832C107.249 107.192 107.081 106.608 106.745 106.08C106.409 105.552 105.945 105.144 105.353 104.856C104.777 104.552 104.129 104.4 103.409 104.4C102.609 104.4 101.897 104.568 101.273 104.904C100.777 105.592 100.433 106.168 100.241 106.632C100.049 107.08 99.9531 107.52 99.9531 107.952C99.9531 108.56 100.121 109.128 100.457 109.656C100.793 110.184 101.241 110.608 101.801 110.928C102.377 111.232 102.985 111.384 103.625 111.384Z" fill="white"/>
<path d="M123.358 114.264C122.222 114.264 121.166 113.984 120.19 113.424C119.23 112.848 118.462 112.072 117.886 111.096C117.326 110.12 117.046 109.064 117.046 107.928C117.046 106.792 117.326 105.744 117.886 104.784C118.462 103.824 119.23 103.064 120.19 102.504C121.166 101.928 122.222 101.64 123.358 101.64C124.638 101.64 125.798 102 126.838 102.72C127.878 103.424 128.638 104.36 129.118 105.528L126.598 106.728C126.358 106.008 125.942 105.432 125.35 105C124.758 104.568 124.094 104.352 123.358 104.352C122.734 104.352 122.15 104.52 121.606 104.856C121.078 105.176 120.654 105.608 120.334 106.152C120.03 106.696 119.878 107.288 119.878 107.928C119.878 108.584 120.03 109.192 120.334 109.752C120.654 110.296 121.078 110.736 121.606 111.072C122.15 111.392 122.734 111.552 123.358 111.552C124.11 111.552 124.774 111.336 125.35 110.904C125.942 110.456 126.358 109.864 126.598 109.128L129.118 110.328C128.654 111.496 127.894 112.448 126.838 113.184C125.798 113.904 124.638 114.264 123.358 114.264Z" fill="white"/>
<path d="M139.305 101.904H142.089V114H139.305V112.848C138.505 113.792 137.401 114.264 135.993 114.264C134.889 114.264 133.865 113.984 132.921 113.424C131.977 112.848 131.225 112.08 130.665 111.12C130.121 110.144 129.849 109.088 129.849 107.952C129.849 106.816 130.121 105.768 130.665 104.808C131.225 103.832 131.977 103.064 132.921 102.504C133.865 101.928 134.889 101.64 135.993 101.64C137.401 101.64 138.505 102.104 139.305 103.032V101.904ZM136.209 111.552C136.833 111.552 137.417 111.392 137.961 111.072C138.505 110.736 138.937 110.288 139.257 109.728V106.176C138.937 105.616 138.505 105.176 137.961 104.856C137.433 104.52 136.849 104.352 136.209 104.352C135.569 104.352 134.977 104.512 134.433 104.832C133.905 105.152 133.481 105.592 133.161 106.152C132.841 106.696 132.681 107.296 132.681 107.952C132.681 108.592 132.841 109.192 133.161 109.752C133.481 110.296 133.905 110.736 134.433 111.072C134.977 111.392 135.569 111.552 136.209 111.552Z" fill="white"/>
<path d="M150.687 101.64C151.791 101.64 152.815 101.928 153.759 102.504C154.703 103.064 155.455 103.832 156.015 104.808C156.575 105.768 156.855 106.816 156.855 107.952C156.855 109.088 156.575 110.144 156.015 111.12C155.455 112.08 154.703 112.848 153.759 113.424C152.815 113.984 151.791 114.264 150.687 114.264C149.327 114.264 148.239 113.808 147.423 112.896V119.4H144.591V101.904H147.399V103.032C148.199 102.104 149.295 101.64 150.687 101.64ZM150.495 111.552C151.135 111.552 151.719 111.392 152.247 111.072C152.791 110.736 153.223 110.296 153.543 109.752C153.863 109.192 154.023 108.592 154.023 107.952C154.023 107.296 153.863 106.696 153.543 106.152C153.223 105.592 152.791 105.152 152.247 104.832C151.719 104.512 151.135 104.352 150.495 104.352C149.855 104.352 149.255 104.52 148.695 104.856C148.151 105.176 147.727 105.616 147.423 106.176V109.728C147.743 110.288 148.175 110.736 148.719 111.072C149.279 111.392 149.871 111.552 150.495 111.552Z" fill="white"/>
<g opacity="0.64">
<path d="M87.8477 143H89.2949L93.2285 137.341H93.2749L97.1714 143H98.6929L94.0635 136.348V136.311L98.7578 129.613H97.3105L93.3677 135.3H93.3213L89.4155 129.613H87.894L92.5049 136.255V136.302L87.8477 143Z" fill="white"/>
<path d="M100.384 146.488C101.961 146.488 102.656 145.857 103.501 143.584L107.295 133.352H105.996L103.065 141.775H103.037L100.105 133.352H98.7878L102.397 143.065L102.146 143.789C101.719 144.995 101.237 145.44 100.346 145.44C100.152 145.44 99.9196 145.421 99.7712 145.384V146.433C99.9104 146.46 100.189 146.488 100.384 146.488Z" fill="white"/>
<path d="M114.534 134.372V133.352H108.392V143H109.626V134.372H114.534Z" fill="white"/>
<path d="M118.247 143.158C119.685 143.158 121.002 142.36 121.54 141.163H121.568V143H122.737V136.395C122.737 134.428 121.355 133.194 119.156 133.194C116.957 133.194 115.538 134.418 115.399 136.144H116.586C116.799 134.975 117.709 134.279 119.128 134.279C120.631 134.279 121.512 135.114 121.512 136.506V137.341L118.506 137.526C116.28 137.675 115.046 138.677 115.046 140.328C115.046 142.017 116.345 143.158 118.247 143.158ZM118.497 142.1C117.189 142.1 116.289 141.376 116.289 140.328C116.289 139.261 117.133 138.603 118.655 138.5L121.512 138.306V139.373C121.512 140.903 120.186 142.1 118.497 142.1Z" fill="white"/>
<path d="M133.826 145.551V141.979H132.258V133.352H131.033V141.979H125.903V133.352H124.669V143H132.675V145.551H133.826Z" fill="white"/>
<path d="M137.771 143.158C139.209 143.158 140.526 142.36 141.064 141.163H141.092V143H142.261V136.395C142.261 134.428 140.878 133.194 138.68 133.194C136.481 133.194 135.062 134.418 134.922 136.144H136.11C136.323 134.975 137.232 134.279 138.652 134.279C140.155 134.279 141.036 135.114 141.036 136.506V137.341L138.03 137.526C135.804 137.675 134.57 138.677 134.57 140.328C134.57 142.017 135.869 143.158 137.771 143.158ZM138.021 142.1C136.713 142.1 135.813 141.376 135.813 140.328C135.813 139.261 136.657 138.603 138.179 138.5L141.036 138.306V139.373C141.036 140.903 139.709 142.1 138.021 142.1Z" fill="white"/>
<path d="M147.059 143.158C148.497 143.158 149.815 142.36 150.353 141.163H150.381V143H151.55V136.395C151.55 134.428 150.167 133.194 147.968 133.194C145.77 133.194 144.35 134.418 144.211 136.144H145.399C145.612 134.975 146.521 134.279 147.941 134.279C149.444 134.279 150.325 135.114 150.325 136.506V137.341L147.319 137.526C145.093 137.675 143.859 138.677 143.859 140.328C143.859 142.017 145.157 143.158 147.059 143.158ZM147.31 142.1C146.002 142.1 145.102 141.376 145.102 140.328C145.102 139.261 145.946 138.603 147.468 138.5L150.325 138.306V139.373C150.325 140.903 148.998 142.1 147.31 142.1Z" fill="white"/>
</g>
<defs>
<linearGradient id="paint0_linear" x1="40" y1="200" x2="213.592" y2="183.565" gradientUnits="userSpaceOnUse">
<stop stop-color="white" stop-opacity="0.72"/>
<stop offset="1" stop-color="white" stop-opacity="0.08"/>
</linearGradient>
</defs>
</svg>
