<svg width="240" height="200" viewBox="0 0 240 200" fill="none" xmlns="http://www.w3.org/2000/svg">
<rect width="240" height="200" fill="#23B93B"/>
<path d="M200 120C200 109.494 197.931 99.0914 193.91 89.3853C189.89 79.6793 183.997 70.8601 176.569 63.4315C169.14 56.0028 160.321 50.11 150.615 46.0896C140.909 42.0693 130.506 40 120 40C109.494 40 99.0914 42.0693 89.3853 46.0896C79.6793 50.11 70.8601 56.0028 63.4315 63.4315C56.0028 70.8601 50.11 79.6793 46.0896 89.3853C42.0693 99.0914 40 109.494 40 120L62.4 120C62.4 112.436 63.8899 104.946 66.7845 97.9574C69.6792 90.9691 73.922 84.6193 79.2706 79.2707C84.6193 73.922 90.9691 69.6792 97.9574 66.7845C104.946 63.8899 112.436 62.4 120 62.4C127.564 62.4 135.054 63.8899 142.043 66.7845C149.031 69.6792 155.381 73.922 160.729 79.2706C166.078 84.6193 170.321 90.9691 173.215 97.9574C176.11 104.946 177.6 112.436 177.6 120H200Z" fill="url(#paint0_linear)"/>
<path d="M98.9448 111.144H106.601V114H94.8648V111.168L101.321 104.928C102.025 104.24 102.521 103.64 102.809 103.128C103.113 102.6 103.265 102.064 103.265 101.52C103.265 100.688 102.977 100 102.401 99.456C101.841 98.896 101.137 98.616 100.289 98.616C99.3448 98.616 98.5688 98.936 97.9608 99.576C97.3688 100.2 97.0328 101.056 96.9528 102.144L94.1208 101.64C94.2168 100.472 94.5368 99.44 95.0808 98.544C95.6248 97.648 96.3368 96.96 97.2168 96.48C98.1128 95.984 99.1208 95.736 100.241 95.736C101.393 95.736 102.425 95.984 103.337 96.48C104.249 96.96 104.961 97.632 105.473 98.496C106.001 99.344 106.265 100.304 106.265 101.376C106.265 102.384 106.033 103.32 105.569 104.184C105.105 105.032 104.329 105.976 103.241 107.016L98.9448 111.144Z" fill="white"/>
<path d="M111.485 114H108.653V110.112H111.485V114Z" fill="white"/>
<path d="M119.834 102.096C120.89 102.096 121.874 102.376 122.786 102.936C123.714 103.48 124.45 104.224 124.994 105.168C125.554 106.096 125.834 107.096 125.834 108.168C125.834 109.272 125.546 110.296 124.97 111.24C124.41 112.168 123.642 112.904 122.666 113.448C121.706 113.992 120.65 114.264 119.498 114.264C118.554 114.264 117.666 114.072 116.834 113.688C116.002 113.288 115.282 112.744 114.674 112.056C114.082 111.368 113.666 110.6 113.426 109.752L116.09 108.768C116.298 109.584 116.706 110.24 117.314 110.736C117.938 111.216 118.658 111.456 119.474 111.456C120.098 111.456 120.674 111.312 121.202 111.024C121.73 110.736 122.146 110.336 122.45 109.824C122.754 109.312 122.906 108.752 122.906 108.144C122.906 107.536 122.754 106.976 122.45 106.464C122.146 105.952 121.73 105.552 121.202 105.264C120.674 104.96 120.098 104.808 119.474 104.808C118.866 104.808 118.306 104.944 117.794 105.216C117.298 105.472 116.898 105.848 116.594 106.344L114.146 105.552V96H125.09V98.832H117.026V102.792C117.906 102.328 118.842 102.096 119.834 102.096Z" fill="white"/>
<path d="M131.366 104.544C130.55 104.544 129.798 104.352 129.11 103.968C128.422 103.568 127.87 103.032 127.454 102.36C127.054 101.672 126.854 100.928 126.854 100.128C126.854 99.344 127.054 98.616 127.454 97.944C127.87 97.272 128.422 96.736 129.11 96.336C129.798 95.936 130.55 95.736 131.366 95.736C132.182 95.736 132.934 95.936 133.622 96.336C134.31 96.72 134.854 97.248 135.254 97.92C135.654 98.592 135.854 99.328 135.854 100.128C135.854 100.928 135.654 101.672 135.254 102.36C134.854 103.032 134.31 103.568 133.622 103.968C132.934 104.352 132.182 104.544 131.366 104.544ZM131.198 114H127.838L142.622 96H145.982L131.198 114ZM131.366 102.144C131.926 102.144 132.398 101.952 132.782 101.568C133.166 101.168 133.358 100.688 133.358 100.128C133.358 99.568 133.166 99.096 132.782 98.712C132.398 98.328 131.926 98.136 131.366 98.136C130.806 98.136 130.326 98.328 129.926 98.712C129.542 99.096 129.35 99.568 129.35 100.128C129.35 100.672 129.55 101.144 129.95 101.544C130.35 101.944 130.822 102.144 131.366 102.144ZM142.454 114.264C141.638 114.264 140.886 114.064 140.198 113.664C139.51 113.264 138.958 112.728 138.542 112.056C138.142 111.384 137.942 110.648 137.942 109.848C137.942 109.064 138.142 108.336 138.542 107.664C138.958 106.992 139.51 106.456 140.198 106.056C140.886 105.656 141.638 105.456 142.454 105.456C143.27 105.456 144.022 105.656 144.71 106.056C145.398 106.44 145.942 106.968 146.342 107.64C146.758 108.312 146.966 109.048 146.966 109.848C146.966 110.648 146.758 111.392 146.342 112.08C145.942 112.752 145.398 113.288 144.71 113.688C144.022 114.072 143.27 114.264 142.454 114.264ZM142.478 111.864C143.038 111.864 143.51 111.672 143.894 111.288C144.278 110.888 144.47 110.408 144.47 109.848C144.47 109.288 144.278 108.816 143.894 108.432C143.51 108.048 143.038 107.856 142.478 107.856C141.902 107.856 141.414 108.048 141.014 108.432C140.63 108.816 140.438 109.288 140.438 109.848C140.438 110.408 140.638 110.888 141.038 111.288C141.438 111.672 141.918 111.864 142.478 111.864Z" fill="white"/>
<path d="M75.022 136.682H76.7939C79.0483 136.682 80.2915 137.675 80.2915 139.354C80.2915 140.978 78.937 142.137 76.9053 142.137C74.9292 142.137 73.519 141.061 73.3799 139.577H72.1553C72.2759 141.729 74.187 143.278 76.9053 143.278C79.6235 143.278 81.5903 141.581 81.5903 139.382C81.5903 137.545 80.4307 136.265 78.5288 136.051V135.996C80.1431 135.634 81.1914 134.391 81.1914 132.851C81.1914 130.837 79.4658 129.334 76.9795 129.334C74.4375 129.334 72.749 130.763 72.5635 132.953H73.7974C73.9644 131.45 75.1519 130.466 76.9331 130.466C78.7607 130.466 79.9019 131.496 79.9019 132.953C79.9019 134.483 78.6494 135.55 76.7383 135.55H75.022V136.682Z" fill="white"/>
<path d="M83.7448 140.217H82.5295C82.882 141.952 84.3942 143.158 86.4724 143.158C89.1164 143.158 90.8142 141.237 90.8142 138.176C90.8142 135.161 89.1164 133.194 86.4816 133.194C84.3015 133.194 82.8356 134.576 82.5295 136.218H83.7448C84.0417 135.124 85.0158 134.279 86.4816 134.279C88.1608 134.279 89.3483 135.485 89.5246 137.489H84.8674V138.5H89.5524C89.4875 140.746 88.2629 142.072 86.4631 142.072C85.0808 142.072 84.0788 141.358 83.7448 140.217Z" fill="white"/>
<path d="M92.9965 140.217H91.7812C92.1337 141.952 93.6459 143.158 95.724 143.158C98.3681 143.158 100.066 141.237 100.066 138.176C100.066 135.161 98.3681 133.194 95.7333 133.194C93.5531 133.194 92.0873 134.576 91.7812 136.218H92.9965C93.2934 135.124 94.2675 134.279 95.7333 134.279C97.4125 134.279 98.6 135.485 98.7763 137.489H94.1191V138.5H98.8041C98.7392 140.746 97.5146 142.072 95.7148 142.072C94.3324 142.072 93.3305 141.358 92.9965 140.217Z" fill="white"/>
<path d="M103.426 138.834C103.473 138.306 103.714 134.873 103.742 134.372H107.573V143H108.807V133.352H102.629C102.601 133.88 102.313 138.241 102.257 138.797C102.118 140.662 101.766 141.952 100.764 141.952C100.513 141.952 100.328 141.896 100.272 141.877V142.991C100.346 143.019 100.541 143.083 100.819 143.083C102.684 143.083 103.232 141.33 103.426 138.834Z" fill="white"/>
<path d="M112.01 143L117.372 135.253H117.428V143H118.662V133.352H117.447L112.084 141.107H112.029V133.352H110.795V143H112.01Z" fill="white"/>
<path d="M121.809 129.195C121.809 130.782 122.922 131.839 124.602 131.839C126.281 131.839 127.394 130.782 127.394 129.195H126.457C126.457 130.29 125.743 131.079 124.602 131.079C123.46 131.079 122.746 130.29 122.746 129.195H121.809ZM121.855 143L127.218 135.253H127.273V143H128.507V133.352H127.292L121.93 141.107H121.874V133.352H120.64V143H121.855Z" fill="white"/>
<path d="M136.998 143H138.223V133.352H136.998V137.489H131.719V133.352H130.486V143H131.719V138.51H136.998V143Z" fill="white"/>
<path d="M147.041 139.039L149.685 143H151.067L147.727 138.102L151.095 133.352H149.713L147.078 137.22H147.05L144.406 133.352H143.014L146.363 138.148L142.977 143H144.35L147.013 139.039H147.041Z" fill="white"/>
<path d="M154.947 146.191H156.116V143.019L159.771 133.352H158.472L155.587 141.441H155.476L152.591 133.352H151.283L154.947 143.037V146.191Z" fill="white"/>
<path d="M163.494 146.191H164.663V143.019L168.318 133.352H167.019L164.134 141.441H164.022L161.137 133.352H159.829L163.494 143.037V146.191Z" fill="white"/>
<defs>
<linearGradient id="paint0_linear" x1="40" y1="200" x2="213.592" y2="183.565" gradientUnits="userSpaceOnUse">
<stop stop-color="white" stop-opacity="0.72"/>
<stop offset="1" stop-color="white" stop-opacity="0.08"/>
</linearGradient>
</defs>
</svg>
