<svg width="64" height="64" viewBox="0 0 64 64" fill="none" xmlns="http://www.w3.org/2000/svg">
<path fill-rule="evenodd" clip-rule="evenodd" d="M32 63C49.1208 63 63 49.1208 63 32C63 14.8792 49.1208 1 32 1C14.8792 1 1 14.8792 1 32C1 49.1208 14.8792 63 32 63ZM32 64C49.6731 64 64 49.6731 64 32C64 14.3269 49.6731 0 32 0C14.3269 0 0 14.3269 0 32C0 49.6731 14.3269 64 32 64Z" fill="#D8E0EA"/>
<path fill-rule="evenodd" clip-rule="evenodd" d="M32.0012 28.19C30.8303 28.19 29.8812 29.1391 29.8812 30.31C29.8812 31.4808 30.8303 32.43 32.0012 32.43C33.172 32.43 34.1212 31.4808 34.1212 30.31C34.1212 29.1391 33.172 28.19 32.0012 28.19ZM27.8812 30.31C27.8812 28.0346 29.7258 26.19 32.0012 26.19C34.2766 26.19 36.1212 28.0346 36.1212 30.31C36.1212 32.5854 34.2766 34.43 32.0012 34.43C29.7258 34.43 27.8812 32.5854 27.8812 30.31Z" fill="#131B24"/>
<path fill-rule="evenodd" clip-rule="evenodd" d="M32.0021 23C28.6794 22.9978 25.4569 24.9204 24.5943 28.7113C23.5683 33.2446 26.3729 37.2078 29.0822 39.8192C30.7162 41.388 33.2832 41.3854 34.9046 39.8205L34.9064 39.8187C37.6257 37.2074 40.4299 33.2539 39.4037 28.7208C38.5457 24.9297 35.3252 23.0022 32.0021 23ZM41.3544 28.2793C40.2524 23.4104 36.078 21.0028 32.0035 21C27.9289 20.9972 23.7515 23.3994 22.644 28.2682L22.6437 28.2692C21.3701 33.8952 24.8848 38.5515 27.6951 41.26L27.6964 41.2612C30.1021 43.5717 33.894 43.5744 36.2925 41.2605C39.1131 38.5517 42.628 33.9056 41.3544 28.2793Z" fill="#131B24"/>
</svg>
