<svg width="277" height="42" viewBox="0 0 277 42" fill="none" xmlns="http://www.w3.org/2000/svg">
<path d="M18.0096 31.2608C18.0659 31.2701 18.1234 31.2701 18.1798 31.2608C18.2235 31.2451 18.2594 31.2133 18.2799 31.1722H18.4L18.1898 31.91C18.1898 32.0183 18.0496 32.0675 17.8794 32.0675H17.5691L16.9885 34.3793C16.9885 34.3793 16.9885 34.4482 16.9885 34.4875C17.0276 34.499 17.0694 34.499 17.1086 34.4875V34.5957H15.657C15.6352 34.5991 15.6129 34.5974 15.5919 34.5906C15.5709 34.5839 15.5518 34.5724 15.5362 34.5571C15.5206 34.5417 15.5089 34.5229 15.502 34.5023C15.4952 34.4817 15.4934 34.4597 15.4968 34.4383C15.4935 34.4122 15.4935 34.3858 15.4968 34.3596L16.0875 32.0182H15.7271C15.6813 32.0057 15.6328 32.0057 15.5869 32.0182C15.55 32.0415 15.5219 32.0761 15.5069 32.1166H15.3767L15.5869 31.3394C15.5982 31.2945 15.627 31.2556 15.667 31.2312C15.7332 31.2188 15.8011 31.2188 15.8672 31.2312L18.0096 31.2608Z" fill="white"/>
<path d="M19.6714 34.5957C19.6059 34.6138 19.5366 34.6138 19.4712 34.5957C19.4483 34.5784 19.43 34.556 19.4178 34.5303C19.4056 34.5047 19.3999 34.4765 19.4011 34.4481V33.9563H18.7904L18.5802 34.3596C18.5802 34.3596 18.5802 34.4088 18.5802 34.4383C18.6162 34.4484 18.6543 34.4484 18.6903 34.4383V34.5466H17.5591C17.4089 34.5466 17.3388 34.5465 17.3388 34.3891C17.3311 34.3568 17.3311 34.3231 17.3388 34.2908L18.8705 31.5264C18.8762 31.5004 18.8762 31.4736 18.8705 31.4477C18.8709 31.4285 18.8666 31.4095 18.8578 31.3924C18.8491 31.3753 18.8363 31.3605 18.8204 31.3493C18.8046 31.3428 18.7876 31.3394 18.7704 31.3394C18.7532 31.3394 18.7362 31.3428 18.7203 31.3493V31.2312H20.272C20.3465 31.2297 20.4198 31.2502 20.4823 31.2903C20.5081 31.3121 20.5287 31.3393 20.5426 31.3699C20.5564 31.4006 20.5632 31.4338 20.5623 31.4673L20.8026 34.3104C20.8035 34.3329 20.8105 34.3548 20.8228 34.3738C20.8351 34.3928 20.8523 34.4083 20.8727 34.4187C20.9143 34.4548 20.9673 34.4757 21.0228 34.4777V34.5859L19.6714 34.5957ZM19.0507 33.2676H19.351V32.7167L19.0507 33.2676Z" fill="white"/>
<path d="M24.0461 31.2608C24.2415 31.246 24.4352 31.3059 24.5867 31.428C24.6491 31.4818 24.6984 31.5486 24.7313 31.6234C24.7642 31.6983 24.7798 31.7794 24.7769 31.8608C24.7812 31.8869 24.7812 31.9135 24.7769 31.9396C24.7769 31.9396 24.7769 31.9986 24.7769 32.0183C24.7637 32.1603 24.7109 32.296 24.6244 32.4106C24.5379 32.5251 24.4209 32.614 24.2864 32.6675C24.3743 32.7112 24.4499 32.7754 24.5066 32.8545C24.56 32.9471 24.5844 33.0532 24.5767 33.1594C24.5726 33.3359 24.5457 33.5111 24.4966 33.6808C24.4505 33.9687 24.3057 34.2325 24.0862 34.4285C23.8491 34.5709 23.5724 34.6363 23.2953 34.6154H21.193C21.173 34.6257 21.1506 34.6312 21.128 34.6312C21.1053 34.6312 21.083 34.6257 21.0629 34.6154C21.0309 34.5841 21.013 34.5416 21.0128 34.4973C21.0128 34.4973 21.0128 34.4482 21.0128 34.4187L21.7236 31.5756C21.7335 31.561 21.7388 31.5439 21.7388 31.5264C21.7388 31.5089 21.7335 31.4918 21.7236 31.4772C21.7064 31.4693 21.6876 31.4652 21.6686 31.4652C21.6495 31.4652 21.6307 31.4693 21.6135 31.4772V31.3591L24.0461 31.2608ZM22.8248 33.8677C22.8598 33.8721 22.8953 33.8681 22.9284 33.8561C22.9615 33.8441 22.9912 33.8245 23.015 33.7989C23.0713 33.7158 23.1089 33.6219 23.1251 33.5234C23.1332 33.4515 23.1332 33.3789 23.1251 33.307C23.1251 33.1988 23.0651 33.1398 22.9349 33.1398H22.7948L22.6146 33.8677H22.8248ZM23.1952 32.4905C23.2553 32.4905 23.2953 32.4905 23.3153 32.4905C23.3499 32.4399 23.3738 32.383 23.3854 32.3232C23.3906 32.2643 23.3906 32.2051 23.3854 32.1461C23.3854 32.0576 23.3354 32.0183 23.2353 32.0183H23.0751L22.955 32.5298L23.1952 32.4905Z" fill="white"/>
<path d="M26.7591 34.5957C26.6938 34.6149 26.6242 34.6149 26.5588 34.5957C26.536 34.5784 26.5177 34.556 26.5055 34.5303C26.4933 34.5047 26.4876 34.4765 26.4888 34.4481L26.4387 33.9563H25.8281L25.6178 34.3596V34.4187C25.6123 34.4311 25.6095 34.4445 25.6095 34.458C25.6095 34.4715 25.6123 34.4849 25.6178 34.4973C25.6538 34.5074 25.692 34.5074 25.728 34.4973V34.6056H24.5967C24.4466 34.6056 24.3765 34.6055 24.3765 34.4481C24.3688 34.4158 24.3688 34.3821 24.3765 34.3498L25.9081 31.5854C25.9138 31.5594 25.9138 31.5326 25.9081 31.5067C25.9086 31.4875 25.9042 31.4686 25.8955 31.4514C25.8868 31.4343 25.8739 31.4195 25.8581 31.4083C25.8422 31.4018 25.8252 31.3985 25.808 31.3985C25.7908 31.3985 25.7738 31.4018 25.758 31.4083V31.2903H27.3097C27.3842 31.2887 27.4575 31.3093 27.5199 31.3493C27.5458 31.3711 27.5664 31.3983 27.5802 31.429C27.5941 31.4596 27.6008 31.4929 27.6 31.5264L27.8403 34.3694C27.8412 34.3919 27.8482 34.4138 27.8605 34.4328C27.8728 34.4518 27.89 34.4673 27.9103 34.4777C27.9519 34.5138 28.005 34.5347 28.0605 34.5367V34.6449L26.7591 34.5957ZM26.1384 33.2676H26.4387V32.7167L26.1384 33.2676Z" fill="white"/>
<path d="M30.0427 33.1201L29.7423 34.3203C29.73 34.3519 29.73 34.387 29.7423 34.4187C29.7786 34.4267 29.8162 34.4267 29.8524 34.4187V34.5269H28.4009C28.2808 34.5269 28.2307 34.5269 28.2307 34.3695C28.2273 34.3433 28.2273 34.3169 28.2307 34.2908L28.9415 31.4378C28.9494 31.4226 28.9535 31.4058 28.9535 31.3887C28.9535 31.3716 28.9494 31.3547 28.9415 31.3395C28.9029 31.3241 28.8599 31.3241 28.8213 31.3395V31.2214H30.2729C30.2947 31.2181 30.317 31.2198 30.338 31.2265C30.359 31.2332 30.3781 31.2448 30.3937 31.2601C30.4093 31.2755 30.421 31.2942 30.4279 31.3148C30.4347 31.3354 30.4365 31.3574 30.4331 31.3788C30.4364 31.405 30.4364 31.4314 30.4331 31.4575L30.1828 32.4413H30.5532L30.7935 31.4575C30.8034 31.443 30.8087 31.4258 30.8087 31.4083C30.8087 31.3908 30.8034 31.3737 30.7935 31.3592C30.7762 31.3512 30.7574 31.3471 30.7384 31.3471C30.7194 31.3471 30.7006 31.3512 30.6834 31.3592V31.2411H32.1349C32.1577 31.2373 32.1812 31.239 32.2031 31.2462C32.2251 31.2534 32.2449 31.2659 32.2607 31.2824C32.2766 31.299 32.288 31.3192 32.294 31.3411C32.3 31.3631 32.3004 31.3862 32.2951 31.4083V31.4772L31.5843 34.3301C31.5839 34.3507 31.5882 34.3711 31.5969 34.3898C31.6055 34.4085 31.6183 34.4251 31.6344 34.4383C31.6736 34.4498 31.7153 34.4498 31.7545 34.4383V34.5466H30.3029C30.1928 34.5466 30.1328 34.5466 30.1328 34.3891C30.1347 34.363 30.1347 34.3366 30.1328 34.3104L30.4431 33.0709L30.0427 33.1201Z" fill="white"/>
<path d="M36.81 32.3724C37.0312 32.362 37.2487 32.432 37.4207 32.5692C37.4985 32.6425 37.5593 32.7314 37.599 32.8298C37.6388 32.9283 37.6565 33.034 37.6509 33.1398C37.6506 33.29 37.627 33.4392 37.5808 33.5824C37.5427 33.7337 37.4925 33.8817 37.4306 34.0251C37.3665 34.2208 37.2262 34.3835 37.0403 34.4777C36.8186 34.5681 36.5791 34.6085 36.3395 34.5957H34.2072C34.1853 34.6062 34.1614 34.6116 34.1371 34.6116C34.1128 34.6116 34.0888 34.6062 34.067 34.5957C34.0514 34.5579 34.0514 34.5156 34.067 34.4777C34.0627 34.4516 34.0627 34.425 34.067 34.399L34.7778 31.5559C34.7866 31.5409 34.7912 31.524 34.7912 31.5067C34.7912 31.4894 34.7866 31.4725 34.7778 31.4575C34.7393 31.4422 34.6962 31.4422 34.6577 31.4575V31.3394H37.8811L37.731 31.8805C37.7215 31.9156 37.7039 31.948 37.6796 31.9753C37.6553 32.0026 37.6249 32.0241 37.5908 32.0379C37.5166 32.076 37.4343 32.0962 37.3506 32.097H36.1393L36.0492 32.4708L36.81 32.3724ZM35.6688 33.8186H35.8389C35.929 33.8186 35.9891 33.8186 36.0191 33.7497C36.0783 33.6564 36.1191 33.5529 36.1393 33.4447C36.1466 33.3761 36.1466 33.3068 36.1393 33.2381C36.1427 33.2167 36.1409 33.1948 36.1341 33.1741C36.1272 33.1535 36.1155 33.1348 36.0999 33.1194C36.0843 33.1041 36.0652 33.0926 36.0442 33.0858C36.0233 33.0791 36.0009 33.0774 35.9791 33.0807H35.8189L35.6688 33.8186Z" fill="white"/>
<path d="M40.2738 31.2607C40.5428 31.2514 40.8072 31.3311 41.0246 31.487C41.1226 31.5581 41.2014 31.6518 41.2538 31.7599C41.3062 31.868 41.3306 31.9872 41.3249 32.1068C41.3402 32.2013 41.3402 32.2976 41.3249 32.3921L41.0146 33.6218C40.9643 33.9331 40.7963 34.2142 40.5441 34.4088C40.3063 34.5596 40.0257 34.6319 39.7432 34.6154H38.672C38.411 34.6357 38.1513 34.5624 37.9412 34.4088C37.8608 34.3292 37.7987 34.2335 37.7589 34.1283C37.7192 34.0231 37.7029 33.9108 37.711 33.7989C37.7118 33.6332 37.7319 33.4681 37.771 33.307L38.0013 32.3823C38.0595 32.089 38.1979 31.8169 38.4017 31.5952C38.5222 31.4784 38.6667 31.3881 38.8255 31.3304C38.9843 31.2727 39.1538 31.249 39.3227 31.2607H40.2738ZM39.1425 33.5726C39.1383 33.6119 39.1383 33.6514 39.1425 33.6907C39.1425 33.7792 39.1926 33.8186 39.2827 33.8186C39.3374 33.822 39.3912 33.8043 39.4328 33.7693C39.4756 33.7304 39.5038 33.6784 39.5129 33.6218L39.8533 32.2642C39.8567 32.2381 39.8567 32.2116 39.8533 32.1855C39.8568 32.1653 39.8554 32.1447 39.849 32.1252C39.8427 32.1057 39.8317 32.088 39.817 32.0736C39.8023 32.0591 39.7843 32.0483 39.7645 32.0421C39.7447 32.0359 39.7236 32.0345 39.7031 32.0379C39.648 32.0377 39.5949 32.0578 39.5541 32.0942C39.5133 32.1306 39.4879 32.1807 39.4829 32.2347L39.1425 33.5726Z" fill="white"/>
<path d="M42.5362 34.2121C42.5313 34.2447 42.5313 34.2778 42.5362 34.3104C42.537 34.3318 42.5429 34.3528 42.5533 34.3715C42.5637 34.3903 42.5784 34.4065 42.5963 34.4187C42.6355 34.4302 42.6772 34.4302 42.7164 34.4187V34.5269H41.2148C41.1947 34.5372 41.1724 34.5426 41.1497 34.5426C41.1271 34.5426 41.1047 34.5372 41.0846 34.5269C41.0527 34.4956 41.0347 34.4531 41.0346 34.4088C41.0346 34.4088 41.0346 34.3596 41.0346 34.3301L41.7454 31.487C41.7553 31.4725 41.7606 31.4553 41.7606 31.4378C41.7606 31.4203 41.7553 31.4032 41.7454 31.3887C41.7282 31.3807 41.7093 31.3766 41.6903 31.3766C41.6713 31.3766 41.6525 31.3807 41.6352 31.3887V31.2706H44.2881L44.148 31.8215C44.1295 31.8896 44.0869 31.9489 44.0279 31.9887C43.9654 32.0288 43.8921 32.0493 43.8176 32.0478H43.0968L42.5362 34.2121Z" fill="white"/>
<path d="M46.3604 33.671C46.3604 33.7694 46.4205 33.8186 46.5006 33.8186H46.6307L46.5006 34.3694C46.4903 34.4104 46.4716 34.449 46.4458 34.4828C46.42 34.5167 46.3876 34.545 46.3504 34.5662C46.2608 34.58 46.1696 34.58 46.0801 34.5662H43.3071C43.1669 34.5662 43.0968 34.5662 43.0968 34.4088V34.3301L43.227 33.789H43.3672C43.4093 33.8033 43.4551 33.8033 43.4973 33.789C43.5293 33.7608 43.5564 33.7276 43.5774 33.6907L44.5784 31.5854V31.4968C44.5855 31.4831 44.5892 31.468 44.5892 31.4526C44.5892 31.4372 44.5855 31.422 44.5784 31.4083C44.5626 31.4018 44.5456 31.3985 44.5284 31.3985C44.5112 31.3985 44.4942 31.4018 44.4784 31.4083V31.2903H45.7397C45.8082 31.2872 45.8756 31.3081 45.9299 31.3493C45.9539 31.3639 45.9736 31.3842 45.9876 31.4082C46.0016 31.4323 46.0093 31.4593 46.01 31.487L46.3604 33.671ZM44.9388 33.2086L44.6885 33.8186H44.9889L44.9388 33.2086Z" fill="white"/>
<path d="M49.9343 34.2121C49.9296 34.2447 49.9296 34.2778 49.9343 34.3104C49.9351 34.3318 49.9409 34.3528 49.9513 34.3715C49.9617 34.3903 49.9765 34.4065 49.9944 34.4187C50.0336 34.4302 50.0753 34.4302 50.1145 34.4187V34.5269H48.6328C48.5728 34.5269 48.5228 34.5269 48.5028 34.5269C48.4882 34.4888 48.4882 34.4469 48.5028 34.4088C48.4985 34.3828 48.4985 34.3562 48.5028 34.3301L49.2135 31.487C49.2223 31.4721 49.2269 31.4551 49.2269 31.4378C49.2269 31.4206 49.2223 31.4036 49.2135 31.3887C49.1945 31.3805 49.1741 31.3763 49.1534 31.3763C49.1328 31.3763 49.1123 31.3805 49.0934 31.3887V31.2706H51.7363L51.6061 31.8215C51.5877 31.8896 51.5451 31.9489 51.486 31.9887C51.4235 32.0288 51.3503 32.0493 51.2757 32.0478H50.555L49.9343 34.2121Z" fill="white"/>
<path d="M54.0387 31.2608C54.2966 31.2428 54.5533 31.3085 54.7695 31.4477C54.8524 31.5153 54.9176 31.6016 54.9594 31.6992C55.0012 31.7968 55.0185 31.9029 55.0098 32.0084C55.0153 32.0739 55.0153 32.1397 55.0098 32.2052C55.016 32.2772 55.016 32.3496 55.0098 32.4216C54.9624 32.7422 54.8351 33.0463 54.6393 33.307C54.5454 33.3876 54.4357 33.4484 54.3169 33.4856C54.198 33.5229 54.0727 33.5357 53.9486 33.5234H52.8775L52.6873 34.2908V34.3793C52.6809 34.3932 52.6776 34.4083 52.6776 34.4236C52.6776 34.4389 52.6809 34.4539 52.6873 34.4678C52.7227 34.4815 52.762 34.4815 52.7974 34.4678V34.576H51.3558C51.3357 34.5864 51.3134 34.5918 51.2907 34.5918C51.2681 34.5918 51.2457 34.5864 51.2257 34.576C51.1937 34.5448 51.1757 34.5023 51.1756 34.458C51.1713 34.4319 51.1713 34.4053 51.1756 34.3793L51.8864 31.5362C51.8951 31.5213 51.8998 31.5043 51.8998 31.487C51.8998 31.4698 51.8951 31.4528 51.8864 31.4378C51.8674 31.4297 51.847 31.4255 51.8263 31.4255C51.8056 31.4255 51.7852 31.4297 51.7662 31.4378V31.3198L54.0387 31.2608ZM53.0376 32.7463H53.2278C53.2628 32.7506 53.2984 32.7466 53.3315 32.7346C53.3646 32.7226 53.3943 32.703 53.418 32.6774C53.4759 32.5869 53.5166 32.487 53.5382 32.3823C53.5458 32.3169 53.5458 32.2509 53.5382 32.1855C53.5473 32.1654 53.552 32.1436 53.552 32.1215C53.552 32.0995 53.5473 32.0777 53.5382 32.0576C53.5382 32.0576 53.4681 32.0576 53.408 32.0576H53.2278L53.0376 32.7463Z" fill="white"/>
<path d="M55.1199 31.5165C55.1062 31.4727 55.078 31.4347 55.0398 31.4083C55.0226 31.4004 55.0038 31.3963 54.9848 31.3963C54.9657 31.3963 54.947 31.4004 54.9297 31.4083V31.2903H56.2311C56.2875 31.2965 56.3402 31.3207 56.3813 31.3591C56.4324 31.4044 56.4703 31.4621 56.4914 31.5264L56.7116 32.3626L57.092 31.7133C57.1035 31.6681 57.1035 31.6208 57.092 31.5756C57.1066 31.5375 57.1066 31.4956 57.092 31.4575C57.0748 31.4496 57.056 31.4455 57.037 31.4455C57.018 31.4455 56.9992 31.4496 56.9819 31.4575V31.3394H58.0731C58.122 31.3243 58.1744 31.3243 58.2233 31.3394C58.2409 31.3541 58.2554 31.3721 58.2657 31.3924C58.276 31.4127 58.282 31.4349 58.2833 31.4575C58.295 31.496 58.295 31.5371 58.2833 31.5756L56.5515 34.4187C56.5004 34.4939 56.4299 34.5544 56.3473 34.5942C56.2646 34.6339 56.1727 34.6514 56.0809 34.6449H55.4403C55.407 34.6463 55.3738 34.6409 55.3428 34.6291C55.3118 34.6172 55.2836 34.5992 55.2601 34.576C55.2601 34.517 55.18 34.4776 55.18 34.4285C55.1745 34.3728 55.1745 34.3169 55.18 34.2612L55.2801 33.8677H55.4703C55.5304 33.8729 55.5906 33.8596 55.6426 33.8297C55.6947 33.7997 55.7359 33.7546 55.7606 33.7005V33.6316L55.1199 31.5165Z" fill="white"/>
<path d="M59.845 31.9986L59.2744 34.2711V34.3597C59.2725 34.3777 59.2763 34.3958 59.2853 34.4117C59.2942 34.4275 59.308 34.4402 59.3245 34.4482C59.3419 34.4555 59.3607 34.4593 59.3796 34.4593C59.3985 34.4593 59.4172 34.4555 59.4346 34.4482V34.5564H58.0031C57.9812 34.5668 57.9573 34.5723 57.933 34.5723C57.9087 34.5723 57.8847 34.5668 57.8629 34.5564C57.8473 34.5185 57.8473 34.4762 57.8629 34.4383C57.8586 34.4123 57.8586 34.3857 57.8629 34.3597L58.5737 31.5166C58.5803 31.501 58.5837 31.4842 58.5837 31.4674C58.5837 31.4505 58.5803 31.4338 58.5737 31.4182C58.5352 31.4029 58.492 31.4029 58.4535 31.4182V31.3001H61.7171C61.7441 31.297 61.7716 31.2999 61.7974 31.3086C61.8231 31.3174 61.8465 31.3318 61.8658 31.3507C61.8851 31.3697 61.8997 31.3927 61.9086 31.418C61.9176 31.4433 61.9205 31.4703 61.9173 31.4969C61.9235 31.5127 61.9235 31.5302 61.9173 31.5461L61.2065 34.3891C61.1991 34.4062 61.1953 34.4246 61.1953 34.4432C61.1953 34.4618 61.1991 34.4802 61.2065 34.4973C61.2457 34.5088 61.2875 34.5088 61.3267 34.4973V34.6056H59.9151C59.775 34.6056 59.7149 34.5465 59.7149 34.4285V34.3694L60.3056 32.0084L59.845 31.9986Z" fill="white"/>
<path d="M63.529 31.9986L62.9584 34.2711V34.3597C62.9521 34.3736 62.9488 34.3886 62.9488 34.4039C62.9488 34.4192 62.9521 34.4342 62.9584 34.4482C62.9938 34.4619 63.0332 34.4619 63.0686 34.4482V34.5564H61.627C61.6069 34.5667 61.5846 34.5722 61.5619 34.5722C61.5393 34.5722 61.5169 34.5667 61.4969 34.5564C61.4823 34.5183 61.4823 34.4764 61.4969 34.4383C61.4969 34.4383 61.4969 34.3892 61.4969 34.3597L62.2076 31.5166C62.2175 31.502 62.2228 31.4849 62.2228 31.4673C62.2228 31.4498 62.2175 31.4327 62.2076 31.4182C62.1904 31.4103 62.1716 31.4062 62.1525 31.4062C62.1335 31.4062 62.1147 31.4103 62.0975 31.4182V31.3001H65.3611C65.4912 31.3001 65.5513 31.369 65.5513 31.4969V31.5461L64.8405 34.3891C64.8405 34.3891 64.8405 34.458 64.8906 34.4973C64.9261 34.5101 64.9651 34.5101 65.0007 34.4973V34.6056H63.5891C63.459 34.6056 63.3889 34.5465 63.3889 34.4285C63.3889 34.3104 63.3889 34.4285 63.3889 34.3694L63.9795 32.0084L63.529 31.9986Z" fill="white"/>
<path d="M21.0028 16.8485C21.0915 16.8123 21.1872 16.7955 21.2831 16.7993L27.3497 17.3798L40.1436 6.84358C40.1754 6.81115 40.2135 6.78537 40.2556 6.76775C40.2978 6.75012 40.3431 6.74103 40.3889 6.74103C40.4347 6.74103 40.48 6.75012 40.5221 6.76775C40.5643 6.78537 40.6024 6.81115 40.6341 6.84358L49.8442 17.9602L53.2979 12.8937C53.3452 12.8232 53.4172 12.7722 53.5003 12.7504C53.5834 12.7287 53.6717 12.7376 53.7484 12.7757L79.4864 25.0433C79.1897 25.7349 78.8207 26.3943 78.3852 27.0108L69.3153 24.1284L68.4444 26.9715C68.4286 27.0254 68.3995 27.0747 68.3598 27.1151C68.3202 27.1555 68.271 27.1857 68.2167 27.2031C68.1625 27.2206 68.1047 27.2248 68.0484 27.2152C67.9921 27.2057 67.939 27.1828 67.8938 27.1486L59.4446 21.0197L58.4435 22.9872C58.4164 23.0382 58.377 23.082 58.3287 23.1146C58.2805 23.1473 58.2249 23.1679 58.1667 23.1747C58.1085 23.1815 58.0495 23.1742 57.9948 23.1535C57.9401 23.1329 57.8914 23.0994 57.8529 23.0561L56.0009 20.7934L54.4091 22.9085C54.3682 22.9663 54.3463 23.0349 54.3463 23.1053C54.3463 23.1756 54.3682 23.2443 54.4091 23.302L58.0931 28.7324C58.1334 28.7958 58.1515 28.8703 58.1449 28.9448C58.1382 29.0192 58.1071 29.0895 58.0563 29.145C58.0054 29.2005 57.9376 29.2383 57.863 29.2526C57.7883 29.2669 57.711 29.257 57.6426 29.2243L43.6775 22.2888L40.6742 27.9356C40.6439 27.9934 40.598 28.0419 40.5415 28.0757C40.4849 28.1096 40.4201 28.1275 40.3539 28.1275C40.2877 28.1275 40.2228 28.1096 40.1663 28.0757C40.1098 28.0419 40.0638 27.9934 40.0335 27.9356L38.1815 23.7054L37.0002 24.7973C36.9507 24.8432 36.8887 24.8739 36.8218 24.8857C36.7548 24.8975 36.6858 24.8899 36.6232 24.8638C36.5606 24.8377 36.507 24.7943 36.4691 24.7388C36.4312 24.6834 36.4105 24.6182 36.4096 24.5514V20.3114L24.9071 27.3256C24.8392 27.3637 24.7604 27.3784 24.6832 27.3674C24.6059 27.3564 24.5345 27.3203 24.4805 27.265C24.4264 27.2096 24.3927 27.1381 24.3848 27.0617C24.3768 26.9854 24.395 26.9086 24.4365 26.8436L28.3208 21.1869L16.8683 26.0468C16.8055 26.074 16.7359 26.0824 16.6682 26.0711C16.6005 26.0597 16.5377 26.0291 16.4876 25.983C16.4375 25.9369 16.4023 25.8773 16.3863 25.8117C16.3703 25.7461 16.3743 25.6773 16.3978 25.6139L17.6091 22.2789L2.38258 26.9813C2.38258 26.9813 2.03219 26.4599 1.53165 25.5155L21.0028 16.8485Z" fill="white"/>
<path fill-rule="evenodd" clip-rule="evenodd" d="M12.4186 7.65502C5.23891 11.1615 1 15.9106 1 21.0001C1 26.0895 5.23891 30.8386 12.4186 34.3451C19.5649 37.8353 29.4725 40.0082 40.4434 40.0082C51.4143 40.0082 61.3219 37.8353 68.4683 34.3451C75.6479 30.8386 79.8868 26.0895 79.8868 21.0001C79.8868 15.9106 75.6479 11.1615 68.4683 7.65502C61.3219 4.1648 51.4143 1.99194 40.4434 1.99194C29.4725 1.99194 19.5649 4.1648 12.4186 7.65502ZM11.9797 6.75646C19.2901 3.18613 29.3542 0.991943 40.4434 0.991943C51.5327 0.991943 61.5967 3.18613 68.9071 6.75646C76.1841 10.3105 80.8868 15.3154 80.8868 21.0001C80.8868 26.6847 76.1841 31.6896 68.9071 35.2437C61.5967 38.814 51.5327 41.0082 40.4434 41.0082C29.3542 41.0082 19.2901 38.814 11.9797 35.2437C4.70273 31.6896 0 26.6847 0 21.0001C0 15.3154 4.70273 10.3105 11.9797 6.75646Z" fill="white"/>
<path d="M85.9834 10.0114H92.991C93.1779 10.0122 93.3627 9.97185 93.5317 9.89332C93.6063 9.86413 93.6741 9.82029 93.7309 9.76447C93.7877 9.70865 93.8323 9.64204 93.862 9.56869H94.2725L93.5817 12.1757C93.4716 12.5397 93.1312 12.7167 92.5806 12.7167H91.5795L89.6474 20.7836C89.6394 20.8489 89.6491 20.9151 89.6755 20.9756C89.7019 21.0361 89.744 21.0886 89.7976 21.128C89.8974 21.2317 90.0331 21.2948 90.178 21.305L90.0579 21.6985H85.2627C85.1871 21.7086 85.1102 21.7012 85.038 21.6769C84.9658 21.6526 84.9004 21.6121 84.8469 21.5586C84.7935 21.5051 84.7535 21.4401 84.7301 21.3688C84.7066 21.2975 84.7005 21.2217 84.7121 21.1476C84.7074 21.0591 84.7074 20.9705 84.7121 20.882L86.6642 12.7167H85.4729C85.31 12.7141 85.1498 12.7585 85.0124 12.8446C84.8974 12.9211 84.8098 13.0313 84.7621 13.1594H84.3317L85.0224 10.4639C85.0419 10.3904 85.077 10.3217 85.1253 10.2624C85.1736 10.2031 85.234 10.1544 85.3027 10.1196C85.5164 10.0267 85.7508 9.98943 85.9834 10.0114Z" fill="white"/>
<path d="M104.363 21.6985H99.9186C99.6852 21.714 99.4522 21.6628 99.2478 21.551C99.1723 21.4896 99.1109 21.4131 99.0678 21.3266C99.0246 21.2401 99.0007 21.1455 98.9976 21.0493L98.8474 19.3178H96.8453L96.1345 20.7148C96.131 20.7409 96.131 20.7673 96.1345 20.7935C96.1377 20.8393 96.1377 20.8854 96.1345 20.9312C96.1367 20.9828 96.1504 21.0334 96.1746 21.0793C96.1988 21.1252 96.233 21.1653 96.2746 21.1968C96.3737 21.2672 96.4928 21.3051 96.615 21.305L96.5249 21.6985H92.7809C92.3003 21.6985 92.06 21.5116 92.06 21.1378C92.064 21.0253 92.0912 20.9149 92.1401 20.8132L97.2157 11.1624C97.2541 11.0827 97.2713 10.9947 97.2657 10.9066C97.2652 10.8414 97.2507 10.7769 97.2231 10.7176C97.1955 10.6582 97.1555 10.6053 97.1056 10.5623C97.0158 10.4632 96.8898 10.4031 96.7551 10.3951L96.8553 10.0114H102.001C102.242 10.0041 102.478 10.0769 102.672 10.218C102.763 10.2892 102.836 10.3807 102.885 10.485C102.934 10.5893 102.957 10.7034 102.952 10.8181L103.743 20.7148C103.748 20.7957 103.773 20.8744 103.814 20.9444C103.856 21.0144 103.914 21.0739 103.983 21.1181C104.122 21.2365 104.3 21.3027 104.484 21.305L104.363 21.6985ZM98.7073 15.1466L97.8564 17.0453H98.8575L98.7073 15.1466Z" fill="white"/>
<path d="M106.696 9.972H114.705C115.355 9.93047 115.995 10.1426 116.487 10.5623C116.694 10.7533 116.857 10.9854 116.966 11.2433C117.074 11.5011 117.126 11.7787 117.117 12.0576C117.117 12.1462 117.117 12.2544 117.117 12.3626C117.106 12.4488 117.09 12.5343 117.067 12.6183C116.807 13.8677 116.266 14.5859 115.446 14.8712C115.741 15.0395 115.995 15.2716 116.186 15.55C116.359 15.8807 116.439 16.251 116.417 16.6223C116.391 17.2294 116.304 17.8325 116.156 18.4226C116.009 19.4257 115.522 20.3509 114.775 21.0492C114.003 21.5394 113.088 21.7675 112.172 21.6985H105.284C105.203 21.7032 105.122 21.6906 105.046 21.6618C104.97 21.6329 104.901 21.5884 104.844 21.5313C104.746 21.4083 104.696 21.2546 104.704 21.0984C104.696 21.0068 104.696 20.9147 104.704 20.823L107.056 10.8869C107.064 10.8212 107.055 10.7547 107.03 10.6931C107.006 10.6314 106.967 10.5765 106.916 10.5328C106.817 10.4302 106.68 10.3701 106.536 10.3655L106.696 9.972ZM110.08 19.062H110.67C110.786 19.0748 110.903 19.0629 111.014 19.0273C111.124 18.9916 111.226 18.933 111.311 18.8555C111.499 18.5555 111.622 18.2206 111.671 17.8717C111.743 17.6182 111.783 17.3573 111.792 17.0945C111.792 16.7108 111.581 16.5141 111.151 16.5141H110.67L110.08 19.062ZM111.201 14.2612H111.892C111.969 14.2707 112.048 14.2613 112.122 14.2339C112.195 14.2065 112.26 14.1618 112.312 14.1038C112.42 13.9211 112.494 13.7214 112.532 13.5136C112.589 13.3146 112.622 13.11 112.632 12.9036C112.632 12.6085 112.472 12.4708 112.132 12.4708H111.621L111.201 14.2612Z" fill="white"/>
<path d="M128.149 21.6985H123.694C123.464 21.7144 123.234 21.6631 123.034 21.551C122.957 21.4909 122.894 21.4147 122.851 21.3279C122.808 21.2411 122.785 21.1459 122.783 21.0493L122.633 19.3178H120.631L119.92 20.7148C119.917 20.7409 119.917 20.7673 119.92 20.7935C119.927 20.8391 119.927 20.8855 119.92 20.9312C119.922 20.984 119.937 21.0356 119.963 21.0817C119.989 21.1279 120.026 21.1673 120.071 21.1968C120.17 21.2672 120.289 21.3051 120.411 21.305L120.321 21.6985H116.577C116.096 21.6985 115.846 21.5116 115.846 21.1378C115.849 21.024 115.88 20.9125 115.936 20.8132L121.012 11.1624C121.05 11.0827 121.067 10.9947 121.062 10.9066C121.061 10.8414 121.047 10.7769 121.019 10.7176C120.991 10.6582 120.951 10.6053 120.901 10.5623C120.812 10.4632 120.686 10.4031 120.551 10.3951L120.651 10.0114H125.797C126.037 10.0057 126.273 10.0783 126.467 10.218C126.558 10.2897 126.629 10.3816 126.676 10.4859C126.723 10.5903 126.744 10.7041 126.738 10.8181L127.539 20.7148C127.544 20.7957 127.568 20.8744 127.61 20.9444C127.652 21.0144 127.71 21.0739 127.779 21.1181C127.918 21.2365 128.095 21.3027 128.279 21.305L128.149 21.6985ZM122.493 15.1467L121.642 17.0453H122.643L122.493 15.1467Z" fill="white"/>
<path d="M135.778 16.5042H134.556L133.555 20.6853V20.8132C133.556 20.8765 133.572 20.9386 133.602 20.9949C133.631 21.0512 133.674 21.1001 133.725 21.1378C133.827 21.2208 133.954 21.2692 134.086 21.2755L134.006 21.669H129.19C129.114 21.6804 129.035 21.674 128.962 21.6505C128.888 21.627 128.821 21.5869 128.765 21.5335C128.71 21.48 128.668 21.4147 128.643 21.3427C128.617 21.2706 128.61 21.1937 128.62 21.1181C128.614 21.0231 128.614 20.9278 128.62 20.8328L130.992 10.8968C130.999 10.8292 130.988 10.761 130.96 10.699C130.932 10.6369 130.888 10.583 130.832 10.5426C130.734 10.4373 130.597 10.3738 130.452 10.3655L130.572 9.98186H135.367C135.442 9.97047 135.52 9.97653 135.592 9.99954C135.665 10.0225 135.731 10.0619 135.785 10.1144C135.84 10.1669 135.881 10.2312 135.906 10.3021C135.93 10.3731 135.938 10.4487 135.928 10.5229V10.7886L135.057 14.2514H136.318L137.109 10.8869C137.117 10.8226 137.109 10.7572 137.084 10.697C137.06 10.6368 137.02 10.5837 136.969 10.5426C136.925 10.4892 136.871 10.4457 136.808 10.4152C136.746 10.3846 136.678 10.3677 136.608 10.3655L136.699 9.98186H141.494C141.57 9.97229 141.647 9.97972 141.72 10.0036C141.793 10.0274 141.859 10.0671 141.914 10.1196C142.009 10.2362 142.056 10.3838 142.044 10.5328V10.7886L139.692 20.7443C139.685 20.8119 139.696 20.88 139.724 20.9421C139.752 21.0042 139.796 21.058 139.852 21.0985C139.9 21.1515 139.959 21.1944 140.024 21.2248C140.089 21.2553 140.16 21.2725 140.232 21.2755L140.112 21.669H135.317C135.241 21.6791 135.165 21.6717 135.092 21.6474C135.02 21.6231 134.955 21.5826 134.901 21.5291C134.848 21.4756 134.808 21.4106 134.784 21.3393C134.761 21.2679 134.755 21.1922 134.766 21.1181V20.8525L135.778 16.5042Z" fill="white"/>
<path d="M154.338 13.9464H156.921C157.653 13.9136 158.371 14.1603 158.923 14.6351C159.176 14.8961 159.373 15.2053 159.5 15.5436C159.627 15.882 159.683 16.2424 159.664 16.6026C159.657 17.1174 159.586 17.6294 159.453 18.1275C159.324 18.6533 159.157 19.1695 158.953 19.672C158.735 20.3352 158.28 20.8981 157.671 21.2558C156.934 21.5702 156.132 21.7116 155.329 21.669H148.321C148.24 21.6743 148.158 21.6621 148.082 21.6332C148.006 21.6043 147.937 21.5595 147.881 21.5018C147.775 21.3821 147.722 21.2269 147.731 21.0689C147.718 20.9808 147.718 20.8914 147.731 20.8033L150.073 10.8968C150.085 10.8302 150.079 10.7618 150.057 10.698C150.034 10.6343 149.995 10.5774 149.943 10.5328C149.842 10.4319 149.706 10.3722 149.563 10.3655L149.663 9.98186H160.314L159.824 11.8412C159.792 11.9629 159.732 12.0758 159.648 12.1712C159.565 12.2667 159.461 12.3422 159.343 12.3921C159.104 12.5314 158.831 12.606 158.552 12.6085H154.548L154.338 13.9464ZM153.767 16.3862L153.167 18.9833H153.727C153.841 18.9928 153.955 18.9744 154.06 18.9298C154.165 18.8852 154.257 18.8157 154.328 18.7276C154.511 18.3979 154.642 18.043 154.718 17.6749C154.779 17.4367 154.813 17.1925 154.818 16.9469C154.818 16.5731 154.638 16.3862 154.288 16.3862H153.767Z" fill="white"/>
<path d="M165.109 10.0114H168.353C169.252 9.9752 170.137 10.2464 170.856 10.7787C171.187 11.0366 171.45 11.3684 171.624 11.7466C171.798 12.1247 171.878 12.5383 171.857 12.9528C171.855 13.2848 171.811 13.6152 171.727 13.9366L170.726 18.2357C170.549 19.2975 170 20.2651 169.174 20.9705C168.392 21.4949 167.456 21.7509 166.511 21.6985H162.977C162.108 21.7646 161.246 21.5045 160.565 20.9705C160.289 20.6907 160.077 20.3566 159.942 19.9904C159.808 19.6241 159.754 19.2339 159.784 18.8456C159.786 18.2651 159.86 17.687 160.004 17.124L160.765 13.9169C160.957 12.9062 161.405 11.9592 162.066 11.1624C162.463 10.7715 162.939 10.467 163.463 10.2687C163.987 10.0704 164.548 9.98269 165.109 10.0114ZM165.76 13.3955L164.659 18.0684C164.642 18.2024 164.642 18.3378 164.659 18.4718C164.659 18.7571 164.819 18.8948 165.139 18.8948C165.316 18.9083 165.491 18.8556 165.63 18.7472C165.763 18.6046 165.85 18.4267 165.88 18.2357L167.022 13.4841C167.027 13.3923 167.027 13.3003 167.022 13.2086C167.032 13.1417 167.026 13.0734 167.004 13.0092C166.983 12.945 166.946 12.8866 166.897 12.8388C166.849 12.791 166.789 12.755 166.724 12.7338C166.659 12.7126 166.589 12.7068 166.521 12.7167C166.141 12.7167 165.89 12.943 165.76 13.3955Z" fill="white"/>
<path d="M177.673 12.7167L175.871 20.4098C175.856 20.534 175.856 20.6595 175.871 20.7836C175.874 20.8539 175.894 20.9225 175.929 20.9839C175.963 21.0454 176.012 21.0981 176.071 21.1378C176.184 21.2399 176.329 21.2992 176.482 21.305L176.392 21.6985H171.486C171.405 21.7032 171.324 21.6906 171.248 21.6618C171.172 21.6329 171.103 21.5884 171.046 21.5313C170.948 21.4083 170.898 21.2546 170.906 21.0984C170.898 21.0101 170.898 20.9212 170.906 20.8328L173.258 10.9263C173.266 10.859 173.257 10.7911 173.232 10.7279C173.208 10.6647 173.169 10.608 173.118 10.5623C173.019 10.4597 172.882 10.3997 172.738 10.395L172.838 10.0114H181.607L181.157 11.91C181.108 12.1459 180.973 12.3559 180.776 12.5003C180.573 12.6451 180.327 12.721 180.076 12.7167H177.673Z" fill="white"/>
<path d="M190.087 10.6803L191.088 18.4521C191.148 18.8063 191.308 18.9833 191.568 18.9833H191.999L191.558 20.9509C191.535 21.0911 191.479 21.224 191.394 21.3386C191.309 21.4532 191.197 21.5462 191.068 21.61C190.776 21.7141 190.466 21.7576 190.157 21.7379H180.967C180.496 21.7379 180.256 21.551 180.256 21.1771V20.9017L180.686 19.0227H181.157C181.31 19.0246 181.46 18.9723 181.577 18.8751C181.695 18.7859 181.785 18.6668 181.838 18.5308L185.331 11.2116V10.9066C185.334 10.8442 185.323 10.782 185.299 10.7243C185.274 10.6665 185.238 10.6146 185.191 10.5721C185.147 10.5274 185.094 10.4921 185.036 10.4684C184.977 10.4447 184.914 10.4331 184.851 10.4344L184.941 10.0507H189.116C189.334 10.0457 189.549 10.1114 189.726 10.2376C189.9 10.3338 190.029 10.4925 190.087 10.6803ZM186.513 18.9833L186.373 16.8387L185.522 18.9833H186.513Z" fill="white"/>
<path d="M203.011 20.882L203.251 19.8982H200.678C200.326 19.9148 199.974 19.8463 199.655 19.6989C199.336 19.5514 199.058 19.3294 198.846 19.0522C198.403 18.4642 198.174 17.747 198.195 17.0158C198.199 16.5492 198.253 16.0842 198.356 15.6287C198.522 14.9577 198.74 14.3 199.006 13.6611C199.213 13.119 199.558 12.638 200.007 12.2642C200.698 11.7279 201.561 11.4522 202.44 11.487H205.213L205.353 10.9361C205.358 10.8711 205.347 10.8057 205.321 10.7458C205.295 10.6858 205.255 10.633 205.203 10.5918C205.103 10.4881 204.968 10.4249 204.823 10.4147L204.923 10.0311H209.398C209.472 10.0196 209.547 10.0253 209.619 10.0478C209.69 10.0703 209.755 10.1089 209.809 10.1606C209.862 10.2122 209.903 10.2754 209.927 10.3452C209.951 10.4149 209.958 10.4893 209.948 10.5623C209.954 10.6507 209.954 10.7395 209.948 10.8279L209.808 11.487H212.291C212.648 11.4697 213.004 11.5314 213.333 11.6677C213.662 11.8039 213.956 12.0111 214.193 12.274C214.664 12.8229 214.91 13.5242 214.884 14.2416C214.881 14.6682 214.835 15.0935 214.743 15.5106C214.577 16.2257 214.353 16.9264 214.073 17.6061C213.863 18.1634 213.519 18.6628 213.072 19.062C212.399 19.6362 211.53 19.9385 210.639 19.9081H207.826L207.656 20.5869V20.9115C207.655 20.9703 207.669 21.0283 207.695 21.0812C207.721 21.1341 207.759 21.1803 207.806 21.2165C207.908 21.2959 208.036 21.3376 208.166 21.3345L208.066 21.728H203.581C203.505 21.7377 203.428 21.7301 203.356 21.7058C203.283 21.6816 203.217 21.6413 203.163 21.588C203.109 21.5348 203.068 21.4701 203.043 21.3989C203.019 21.3276 203.011 21.2518 203.021 21.1771C203.021 21.1771 202.991 21.0197 203.011 20.882ZM203.912 17.1634L204.632 14.094H204.132C204 14.0858 203.868 14.1125 203.75 14.1714C203.632 14.2302 203.532 14.319 203.461 14.4285C203.231 14.8568 203.072 15.3184 202.991 15.7959C202.93 16.0275 202.897 16.2652 202.891 16.5042C202.891 16.9469 203.091 17.1634 203.491 17.1634H203.912ZM209.167 14.094L208.447 17.1634H208.947C209.078 17.1716 209.209 17.1459 209.327 17.0889C209.444 17.032 209.545 16.9457 209.618 16.8387C209.844 16.409 210.003 15.9479 210.088 15.4713C210.149 15.2363 210.183 14.9954 210.188 14.7531C210.188 14.3203 209.988 14.094 209.588 14.094H209.167Z" fill="white"/>
<path d="M221.801 16.5534L219.408 20.154C219.314 20.266 219.227 20.3844 219.148 20.5082C219.083 20.608 219.048 20.7241 219.048 20.8427C219.047 20.9064 219.062 20.9695 219.091 21.0262C219.121 21.0828 219.165 21.1313 219.218 21.1673C219.318 21.2538 219.446 21.3026 219.579 21.305L219.489 21.6985H214.673C214.597 21.7103 214.519 21.7042 214.445 21.6806C214.372 21.6571 214.305 21.6169 214.25 21.5632C214.196 21.5095 214.155 21.4438 214.131 21.3716C214.107 21.2994 214.101 21.2227 214.113 21.1476C214.107 21.0526 214.107 20.9573 214.113 20.8623L216.475 10.9263C216.488 10.8704 216.488 10.8125 216.476 10.7565C216.464 10.7006 216.44 10.6478 216.405 10.6016C216.305 10.4979 216.17 10.4348 216.025 10.4246L216.145 10.0409H220.94C221.015 10.029 221.092 10.0349 221.164 10.0579C221.237 10.0809 221.302 10.1204 221.356 10.1732C221.41 10.226 221.45 10.2906 221.473 10.3617C221.497 10.4327 221.503 10.5082 221.491 10.582V10.8476L220.41 15.1762L222.672 11.8313L222.972 11.4083C223.071 11.2621 223.139 11.0983 223.173 10.9263C223.184 10.8603 223.176 10.7927 223.152 10.7304C223.127 10.6681 223.086 10.6135 223.032 10.5721C222.989 10.5187 222.934 10.4753 222.872 10.4447C222.81 10.4141 222.742 10.3972 222.672 10.3951L222.762 10.0114H227.557C227.633 10.0018 227.711 10.0092 227.784 10.0331C227.856 10.0569 227.923 10.0966 227.978 10.1491C228.073 10.2657 228.119 10.4133 228.108 10.5623V10.8181L225.755 20.7738C225.749 20.8414 225.76 20.9095 225.788 20.9716C225.816 21.0337 225.86 21.0875 225.916 21.128C226.014 21.2333 226.151 21.2968 226.296 21.305L226.176 21.6985H221.371C221.295 21.7086 221.218 21.7012 221.146 21.6769C221.074 21.6526 221.008 21.6121 220.955 21.5586C220.901 21.5051 220.861 21.4401 220.838 21.3688C220.815 21.2975 220.808 21.2217 220.82 21.1476V20.882L221.801 16.5534Z" fill="white"/>
<path d="M234.315 16.5042H233.093L232.092 20.6852V20.8131C232.093 20.8765 232.109 20.9386 232.139 20.9949C232.168 21.0512 232.211 21.1001 232.262 21.1378C232.367 21.2228 232.497 21.2713 232.633 21.2755L232.543 21.669H227.727C227.651 21.6803 227.572 21.674 227.499 21.6505C227.425 21.627 227.358 21.5869 227.302 21.5335C227.247 21.48 227.205 21.4147 227.18 21.3426C227.155 21.2706 227.147 21.1937 227.157 21.1181C227.151 21.0231 227.151 20.9278 227.157 20.8328L229.529 10.8967C229.533 10.8428 229.525 10.7887 229.506 10.7379C229.487 10.6871 229.457 10.6407 229.419 10.6016C229.321 10.4963 229.184 10.4328 229.039 10.4246L229.159 10.0409H233.964C234.039 10.0312 234.115 10.0385 234.186 10.0622C234.257 10.086 234.322 10.1256 234.375 10.1779C234.429 10.2302 234.469 10.2939 234.493 10.3639C234.517 10.434 234.525 10.5086 234.515 10.582V10.8476L233.654 14.3104H234.875L235.666 10.9459C235.676 10.8815 235.669 10.8155 235.644 10.7549C235.619 10.6943 235.579 10.6414 235.526 10.6016C235.482 10.5482 235.428 10.5048 235.366 10.4742C235.303 10.4436 235.235 10.4267 235.166 10.4246L235.256 10.0409H240.051C240.127 10.0313 240.204 10.0387 240.277 10.0626C240.35 10.0864 240.416 10.1261 240.471 10.1786C240.566 10.2952 240.613 10.4428 240.601 10.5918V10.8476L238.249 20.8033C238.242 20.8709 238.253 20.939 238.282 21.0011C238.31 21.0632 238.354 21.117 238.409 21.1575C238.508 21.2628 238.644 21.3263 238.79 21.3345L238.669 21.728H233.864C233.789 21.7381 233.712 21.7307 233.639 21.7064C233.567 21.6821 233.502 21.6416 233.448 21.5881C233.395 21.5346 233.355 21.4696 233.332 21.3983C233.308 21.327 233.302 21.2512 233.314 21.1771V20.9115L234.315 16.5042Z" fill="white"/>
<path d="M251.513 21.6985H247.059C246.825 21.714 246.592 21.6628 246.388 21.551C246.312 21.4896 246.251 21.4131 246.208 21.3266C246.165 21.2401 246.141 21.1455 246.138 21.0493L245.987 19.3178H243.985L243.274 20.7148C243.27 20.7408 243.27 20.7674 243.274 20.7935C243.274 20.7935 243.274 20.8623 243.274 20.9312C243.277 20.9828 243.29 21.0334 243.315 21.0793C243.339 21.1252 243.373 21.1653 243.415 21.1968C243.514 21.2672 243.633 21.3051 243.755 21.305L243.665 21.6985H239.921C239.44 21.6985 239.2 21.5116 239.2 21.1378C239.203 21.024 239.234 20.9125 239.29 20.8132L244.356 11.1624C244.397 11.0836 244.418 10.9955 244.416 10.9066C244.413 10.8408 244.396 10.7764 244.367 10.7171C244.338 10.6579 244.296 10.6052 244.245 10.5623C244.156 10.4632 244.03 10.4031 243.895 10.3951L243.995 10.0114H249.141C249.382 10.0041 249.618 10.0769 249.811 10.218C249.904 10.2881 249.978 10.3794 250.027 10.484C250.076 10.5885 250.098 10.7032 250.092 10.8181L250.883 20.7148C250.888 20.7957 250.913 20.8744 250.954 20.9444C250.996 21.0144 251.054 21.0739 251.123 21.1181C251.262 21.2365 251.439 21.3027 251.623 21.305L251.513 21.6985ZM245.847 15.1466L245.006 17.0453H246.007L245.847 15.1466Z" fill="white"/>
<path d="M259.142 16.5042H257.91L256.909 20.6852V20.8131C256.91 20.8776 256.927 20.941 256.958 20.9976C256.99 21.0542 257.035 21.1023 257.089 21.1378C257.189 21.2242 257.317 21.2731 257.45 21.2755L257.36 21.669H252.544C252.468 21.6803 252.389 21.674 252.316 21.6505C252.242 21.627 252.175 21.5869 252.119 21.5335C252.064 21.48 252.022 21.4147 251.997 21.3426C251.972 21.2706 251.964 21.1937 251.974 21.1181C251.965 21.0232 251.965 20.9277 251.974 20.8328L254.336 10.8967C254.343 10.8291 254.332 10.761 254.304 10.699C254.276 10.6369 254.232 10.583 254.176 10.5426C254.128 10.4896 254.07 10.4466 254.004 10.4162C253.939 10.3858 253.868 10.3685 253.796 10.3655L253.926 9.98185H258.721C258.796 9.97001 258.873 9.97583 258.945 9.99884C259.018 10.0218 259.083 10.0614 259.137 10.1142C259.191 10.167 259.231 10.2316 259.255 10.3026C259.278 10.3737 259.284 10.4492 259.272 10.5229V10.7885L258.411 14.2514H259.632L260.433 10.8869C260.439 10.8228 260.429 10.7582 260.405 10.6984C260.38 10.6387 260.342 10.5853 260.293 10.5426C260.248 10.491 260.193 10.4488 260.131 10.4184C260.069 10.388 260.002 10.37 259.933 10.3655L260.013 9.98185H264.808C264.885 9.97286 264.964 9.98053 265.038 10.0043C265.113 10.0281 265.181 10.0674 265.238 10.1196C265.328 10.2387 265.374 10.3845 265.368 10.5328V10.7885L263.026 20.7443C263.017 20.8111 263.026 20.879 263.053 20.9411C263.079 21.0033 263.122 21.0576 263.176 21.0984C263.275 21.2038 263.411 21.2673 263.556 21.2755L263.436 21.669H258.641C258.566 21.6791 258.489 21.6717 258.416 21.6474C258.344 21.6231 258.279 21.5826 258.225 21.5291C258.172 21.4756 258.132 21.4106 258.109 21.3393C258.085 21.2679 258.079 21.1922 258.091 21.1181V20.8525L259.142 16.5042Z" fill="white"/>
<path d="M271.185 18.8948H273.467C273.655 18.8925 273.84 18.8488 274.008 18.7669C274.084 18.741 274.154 18.6996 274.212 18.6453C274.271 18.5911 274.317 18.5252 274.348 18.4521H274.739L274.238 20.5869C274.196 20.9012 274.031 21.187 273.778 21.3837C273.377 21.6207 272.912 21.7306 272.446 21.6985H268.562C267.673 21.7757 266.786 21.5385 266.059 21.0296C265.822 20.7967 265.639 20.516 265.523 20.2069C265.408 19.8977 265.362 19.5675 265.388 19.2391C265.405 18.5982 265.496 17.9612 265.659 17.3404L266.66 13.2578C266.835 12.3101 267.328 11.4474 268.061 10.8082C268.66 10.2878 269.434 10.0039 270.234 10.0114H276.1C276.1 10.2081 276.01 10.4934 275.93 10.8672C275.85 11.2411 275.78 11.5165 275.72 11.7231C275.67 11.9899 275.553 12.2402 275.379 12.4511C275.125 12.6505 274.802 12.7457 274.478 12.7167H272.706C272.544 12.7007 272.379 12.7188 272.224 12.7697C272.069 12.8205 271.926 12.9031 271.806 13.0119C271.594 13.2553 271.455 13.5516 271.405 13.8677L270.404 17.8815C270.391 17.9927 270.391 18.1048 270.404 18.216C270.304 18.6685 270.604 18.8948 271.185 18.8948Z" fill="white"/>
<path d="M84.0213 30.8869L87.415 27.611L85.4129 24.4039H86.464L87.375 25.8697C87.7053 26.4009 87.9356 26.7944 88.0757 27.0699C88.4215 26.6609 88.7891 26.2701 89.1769 25.8992L90.7486 24.4039H91.99L88.5463 27.7585L90.5484 30.8968H89.5474L88.2659 28.9883C88.1558 28.8112 88.0257 28.5652 87.8755 28.2799C87.6741 28.517 87.4603 28.7436 87.2348 28.9587L85.2326 30.9263L84.0213 30.8869ZM94.753 30.3065C94.2634 30.7405 93.6303 30.9852 92.9711 30.9952C92.5566 31.014 92.1498 30.8808 91.8298 30.6213C91.6824 30.5028 91.565 30.3522 91.4868 30.1815C91.4087 30.0108 91.3718 29.8246 91.3793 29.6375C91.3696 29.4162 91.419 29.1962 91.5226 28.9995C91.6262 28.8027 91.7805 28.636 91.97 28.516C92.4971 28.2054 93.1086 28.0612 93.7219 28.1029H94.1924C94.3903 28.1029 94.5879 28.0864 94.783 28.0537C94.9301 28.0329 95.0744 27.9967 95.2135 27.9455C95.2711 27.7601 95.3047 27.5684 95.3136 27.3749C95.3113 27.2807 95.2831 27.1889 95.232 27.1092C95.1809 27.0295 95.1088 26.965 95.0233 26.9223C94.7728 26.7858 94.4884 26.7211 94.2024 26.7354C93.9009 26.702 93.5969 26.7692 93.339 26.9262C93.0812 27.0833 92.8846 27.321 92.7809 27.6011L91.8899 27.5225C92.0632 27.0598 92.3888 26.6672 92.8149 26.407C93.2411 26.1468 93.7435 26.0339 94.2424 26.0861C94.7325 26.064 95.2188 26.1801 95.644 26.4206C95.8068 26.5058 95.9426 26.6336 96.0362 26.7899C96.1299 26.9461 96.1777 27.1247 96.1746 27.306C96.1738 27.6018 96.1335 27.8962 96.0544 28.1816L95.7741 29.3424C95.7741 29.549 95.694 29.7162 95.674 29.854C95.6602 29.9815 95.6602 30.1101 95.674 30.2376C95.6763 30.4584 95.7135 30.6774 95.7841 30.8869H94.8931C94.8627 30.8003 94.8392 30.7115 94.8231 30.6213C94.8132 30.5166 94.8132 30.4112 94.8231 30.3065H94.753ZM95.0733 28.5062C94.8002 28.5905 94.518 28.6433 94.2324 28.6636L93.7219 28.7128C93.4687 28.7096 93.2162 28.7393 92.9711 28.8013C92.8129 28.8409 92.6658 28.9149 92.5406 29.0178C92.4527 29.0899 92.382 29.1802 92.3335 29.2822C92.2851 29.3842 92.2601 29.4955 92.2603 29.608C92.2563 29.7135 92.2779 29.8184 92.3231 29.9142C92.3684 30.0099 92.436 30.0938 92.5206 30.1589C92.7178 30.3157 92.9683 30.3931 93.2213 30.3754C93.6415 30.3785 94.0492 30.2356 94.3726 29.972C94.7791 29.583 95.0281 29.0621 95.0733 28.5062ZM97.8864 26.1944H99.1878L99.6784 29.9425L102.071 26.1944H103.352L102.251 30.8869H101.38L102.281 27.0994L99.8586 30.8869H99.0777L98.5671 26.9518L97.6461 30.8869H96.7852L97.8864 26.1944ZM103.593 30.8869L104.674 26.1944H105.545L105.365 26.9617C105.57 26.7072 105.828 26.4979 106.121 26.3471C106.414 26.1963 106.736 26.1074 107.066 26.0861C107.36 26.071 107.65 26.1467 107.897 26.3026C108.109 26.4675 108.255 26.7011 108.308 26.9617C108.54 26.6954 108.822 26.4751 109.139 26.3124C109.418 26.1617 109.731 26.0838 110.05 26.0861C110.405 26.0505 110.762 26.1451 111.051 26.3518C111.164 26.4513 111.252 26.5748 111.309 26.7128C111.366 26.8509 111.391 26.9999 111.381 27.1486C111.367 27.3908 111.33 27.6312 111.271 27.8667L110.57 30.8869H109.699L110.41 27.7881L110.48 27.4536C110.48 27.365 110.48 27.2962 110.48 27.2372C110.485 27.1692 110.474 27.101 110.448 27.0379C110.422 26.9748 110.382 26.9184 110.33 26.8732C110.197 26.7772 110.034 26.7317 109.869 26.7453C109.559 26.7484 109.256 26.8408 108.998 27.0109C108.737 27.1594 108.519 27.3732 108.368 27.6307C108.225 27.9469 108.114 28.2765 108.037 28.6144L107.517 30.8869H106.636L107.367 27.7192C107.406 27.5674 107.433 27.4128 107.447 27.2568C107.45 27.1858 107.436 27.1152 107.406 27.0504C107.377 26.9856 107.332 26.9283 107.277 26.883C107.164 26.7915 107.022 26.7427 106.876 26.7453C106.726 26.7433 106.577 26.7666 106.436 26.8141C106.279 26.8603 106.13 26.93 105.995 27.0207C105.723 27.1842 105.498 27.4148 105.344 27.6897C105.19 28.0026 105.076 28.333 105.004 28.6734L104.494 30.8869H103.593ZM118.058 26.1944H118.949L117.838 30.8869H116.957L118.058 26.1944ZM112.983 26.1944H113.864L113.423 28.0045H114.354C114.786 27.9839 115.217 28.027 115.636 28.1324C115.881 28.2037 116.093 28.3568 116.236 28.5652C116.385 28.772 116.462 29.0203 116.457 29.2736C116.458 29.4272 116.435 29.58 116.387 29.7261C116.33 29.883 116.252 30.0318 116.156 30.1688C115.986 30.4349 115.728 30.6361 115.425 30.7394C114.982 30.8566 114.523 30.9064 114.064 30.8869H111.872L112.983 26.1944ZM112.893 30.277H114.014C114.323 30.2874 114.632 30.2609 114.935 30.1983C115.112 30.1406 115.27 30.0389 115.395 29.9032C115.515 29.7589 115.579 29.5777 115.576 29.3916C115.578 29.2269 115.521 29.0666 115.415 28.9391C115.319 28.8233 115.184 28.7435 115.035 28.7128H113.293L112.893 30.277ZM120.291 26.214H121.152L120.691 28.1816H123.084L123.534 26.214H124.395L123.304 30.8869H122.423L122.924 28.7915H120.541L120.04 30.8869H119.17L120.281 26.1944L120.291 26.214ZM127.078 30.9066L129.311 28.5062L128.019 26.1944H129.02L129.461 27.0306C129.651 27.3946 129.791 27.6995 129.891 27.9258L131.383 26.1944H132.454L130.312 28.5652L131.613 30.8869H130.612L130.101 29.9032L129.921 29.5588L129.731 29.1457L128.199 30.8574L127.078 30.9066ZM133.695 30.9066L132.844 26.214H133.695L134.146 28.8013C134.146 29.0571 134.246 29.5195 134.316 30.1885C134.486 29.8441 134.706 29.4605 134.967 29.0374L136.689 26.214H137.61L134.666 30.9066L134.056 32.7659H133.165L133.695 30.8869V30.9066ZM138.15 26.214H139.021L138.831 27.0011C138.743 27.343 138.686 27.692 138.661 28.0438C138.655 28.1374 138.676 28.2306 138.72 28.3137C138.764 28.3968 138.83 28.4667 138.911 28.516C139.15 28.6315 139.415 28.6857 139.682 28.6734C140.078 28.6755 140.471 28.6089 140.843 28.4767L141.374 26.214H142.245L141.143 30.9066H140.323L140.743 29.1063C140.349 29.237 139.937 29.3067 139.522 29.3129C139.086 29.3324 138.655 29.2264 138.28 29.0079C138.134 28.9135 138.015 28.7829 137.936 28.6293C137.857 28.4756 137.82 28.3043 137.83 28.1324C137.878 27.6951 137.955 27.2613 138.06 26.8338L138.2 26.214H138.15ZM145.348 28.9686L145.528 28.1619H148.211L148.031 28.9686H145.348ZM150.804 30.9361L154.808 24.4531H155.93L157.111 30.9361H156.18L155.839 29.0768H152.966L151.825 30.9459L150.804 30.9361ZM153.397 28.4078H155.749L155.479 26.7748C155.409 26.3813 155.359 26.0861 155.339 25.8697C155.303 25.6352 155.283 25.3985 155.279 25.1614C155.072 25.616 154.835 26.0564 154.568 26.4797L153.397 28.4472V28.4078ZM160.344 26.2435L160.835 29.9917L163.227 26.2435H164.509L163.408 30.9361H162.537L163.438 27.1486L161.015 30.9361H160.234L159.724 27.0011L158.803 30.9361H157.932L159.043 26.2435H160.344ZM168.193 26.2435H169.044L168.573 28.2111H168.633C168.83 28.2095 169.019 28.1358 169.164 28.0045C169.41 27.7626 169.626 27.4916 169.805 27.1978C169.998 26.8737 170.261 26.595 170.575 26.3813C170.794 26.2654 171.038 26.2046 171.286 26.2042C171.469 26.2028 171.652 26.2293 171.827 26.2829L171.627 26.7551C171.534 26.7195 171.436 26.6995 171.336 26.6961C171.197 26.6964 171.062 26.7452 170.956 26.8338C170.789 27.0002 170.648 27.189 170.535 27.3946C170.283 27.8877 169.856 28.2728 169.334 28.4767C169.492 28.5375 169.64 28.6204 169.775 28.7227C169.966 28.9157 170.113 29.1473 170.205 29.4014L170.846 30.8968H169.945L169.434 29.7064C169.339 29.432 169.197 29.1757 169.014 28.9489C168.86 28.8131 168.668 28.7272 168.463 28.703L167.933 30.8968H167.072L167.592 28.703C167.509 28.6927 167.425 28.6927 167.342 28.703L167.092 28.821C166.794 29.0446 166.531 29.3098 166.311 29.608L165.24 30.8673H164.178L165.54 29.3031C165.868 28.8956 166.315 28.5969 166.821 28.4472C166.641 28.3528 166.489 28.2137 166.381 28.0438C166.253 27.7715 166.162 27.4837 166.111 27.1879C166.096 27.0417 166.048 26.9005 165.97 26.7748C165.94 26.7392 165.901 26.7109 165.858 26.6921C165.815 26.6734 165.767 26.6646 165.72 26.6665C165.595 26.6728 165.471 26.6926 165.35 26.7256V26.2239H165.81C165.931 26.2127 166.053 26.2281 166.168 26.2689C166.282 26.3097 166.385 26.375 166.471 26.46C166.644 26.7004 166.761 26.9761 166.811 27.2667C166.856 27.548 166.962 27.8165 167.122 28.0537C167.193 28.118 167.276 28.167 167.368 28.1975C167.459 28.228 167.556 28.2393 167.652 28.2308L168.143 26.2632L168.193 26.2435ZM175.13 30.0901C174.905 30.3728 174.622 30.6062 174.3 30.7756C173.977 30.945 173.623 31.0465 173.258 31.0738C172.9 31.093 172.546 30.9886 172.257 30.7787C172.139 30.6871 172.044 30.5705 171.978 30.4377C171.912 30.3049 171.878 30.1592 171.877 30.0114C171.899 29.6793 171.952 29.3499 172.037 29.0276L172.658 26.3223H173.539L172.848 29.2736C172.803 29.4675 172.776 29.665 172.768 29.8638C172.761 29.9424 172.773 30.0216 172.802 30.0949C172.832 30.1683 172.878 30.234 172.938 30.2868C173.092 30.387 173.274 30.4353 173.459 30.4245C173.817 30.4303 174.167 30.3234 174.46 30.1196C174.739 29.9448 174.967 29.7005 175.12 29.4113C175.287 29.0561 175.412 28.683 175.491 28.2996L175.961 26.273H176.832L175.761 30.9656H174.95L175.14 30.1196L175.13 30.0901ZM178.614 26.2435H182.488L181.367 30.8869H180.496L181.497 26.8633H179.365L178.704 29.6572C178.638 30.0182 178.48 30.3567 178.244 30.641C178.138 30.7386 178.014 30.8142 177.878 30.8632C177.742 30.9123 177.598 30.9337 177.453 30.9263H177.123C177.002 30.9263 176.852 30.9263 176.682 30.8771L176.842 30.218H177.213C177.293 30.2286 177.374 30.2209 177.451 30.1952C177.527 30.1696 177.596 30.1269 177.653 30.0704C177.785 29.7695 177.885 29.4564 177.953 29.1358L178.664 26.1845L178.614 26.2435ZM182.739 30.9361L183.82 26.2435H184.691L184.511 27.0109C184.716 26.7564 184.974 26.5471 185.267 26.3963C185.56 26.2455 185.882 26.1566 186.212 26.1353C186.502 26.1202 186.79 26.196 187.033 26.3518C187.252 26.5127 187.402 26.7475 187.454 27.0109C187.686 26.7446 187.968 26.5242 188.285 26.3616C188.563 26.21 188.877 26.1321 189.196 26.1353C189.551 26.0997 189.908 26.1943 190.197 26.4009C190.31 26.5005 190.398 26.6239 190.455 26.762C190.512 26.9 190.537 27.0491 190.527 27.1978C190.513 27.44 190.476 27.6804 190.417 27.916L189.716 30.9361H188.845L189.556 27.8372C189.556 27.6995 189.606 27.5913 189.616 27.5028C189.624 27.4308 189.624 27.3583 189.616 27.2863C189.621 27.2184 189.61 27.1502 189.584 27.0871C189.558 27.0239 189.518 26.9676 189.466 26.9223C189.332 26.8279 189.169 26.7827 189.005 26.7944C188.695 26.7976 188.392 26.89 188.134 27.0601C187.873 27.2086 187.655 27.4224 187.504 27.6798C187.356 27.9944 187.245 28.3244 187.173 28.6636L186.643 30.9361H185.772L186.503 27.7684C186.54 27.6167 186.564 27.4619 186.573 27.306C186.578 27.2358 186.566 27.1654 186.538 27.1005C186.51 27.0356 186.467 26.978 186.413 26.9322C186.299 26.8422 186.158 26.7935 186.012 26.7944C185.862 26.7925 185.713 26.8158 185.572 26.8633C185.415 26.9095 185.266 26.9792 185.131 27.0699C184.859 27.2334 184.634 27.464 184.48 27.7389C184.326 28.0518 184.212 28.3822 184.14 28.7227L183.63 30.9361H182.739ZM197.204 26.2435H198.095L196.984 30.9361H196.103L197.204 26.2435ZM192.129 26.2435H193.01L192.569 28.0537H193.5C193.928 28.0322 194.357 28.0754 194.772 28.1816C195.021 28.2501 195.238 28.4035 195.382 28.6144C195.531 28.8212 195.608 29.0695 195.603 29.3227C195.605 29.4763 195.581 29.6292 195.533 29.7753C195.476 29.9321 195.399 30.081 195.302 30.218C195.132 30.4841 194.874 30.6853 194.571 30.7885C194.128 30.9058 193.669 30.9556 193.21 30.9361H191.018L192.129 26.2435ZM192.039 30.3065H193.16C193.469 30.3163 193.778 30.2899 194.081 30.2278C194.256 30.172 194.412 30.0698 194.531 29.9327C194.658 29.7917 194.726 29.6091 194.722 29.4211C194.724 29.2564 194.667 29.0962 194.561 28.9686C194.465 28.8529 194.33 28.773 194.181 28.7423H192.379L192.009 30.3459L192.039 30.3065ZM199.427 26.2435H200.298L199.837 28.2111H202.23L202.68 26.2435H203.541L202.46 30.9361H201.579L202.08 28.8407H199.697L199.197 30.9361H198.326L199.427 26.2435ZM206.564 30.9361L207.636 26.2435H208.517L208.336 27.0109C208.541 26.7546 208.798 26.5439 209.091 26.393C209.385 26.242 209.708 26.1542 210.038 26.1353C210.328 26.1202 210.616 26.196 210.859 26.3518C211.074 26.5157 211.223 26.7492 211.28 27.0109C211.509 26.7449 211.787 26.5245 212.101 26.3616C212.383 26.2109 212.7 26.133 213.022 26.1353C213.377 26.1025 213.732 26.1968 214.023 26.4009C214.136 26.5005 214.224 26.6239 214.281 26.762C214.338 26.9 214.363 27.0491 214.353 27.1978C214.339 27.4407 214.299 27.6815 214.233 27.916L213.542 30.9361H212.661L213.372 27.8372L213.442 27.5028C213.45 27.4308 213.45 27.3583 213.442 27.2863C213.445 27.2177 213.432 27.1492 213.405 27.0862C213.377 27.0231 213.335 26.9671 213.282 26.9223C213.15 26.8255 212.986 26.78 212.821 26.7944C212.511 26.8004 212.209 26.8925 211.95 27.0601C211.693 27.2118 211.48 27.425 211.33 27.6798C211.182 27.9944 211.071 28.3244 210.999 28.6636L210.469 30.9361H209.588L210.319 27.7684C210.358 27.6166 210.385 27.462 210.399 27.306C210.401 27.2361 210.387 27.1666 210.36 27.1021C210.332 27.0376 210.291 26.9797 210.239 26.9322C210.122 26.8408 209.977 26.7921 209.828 26.7944C209.678 26.7933 209.53 26.8165 209.388 26.8633C209.231 26.9095 209.082 26.9792 208.947 27.0699C208.678 27.234 208.457 27.4647 208.306 27.7389C208.148 28.0512 208.031 28.3817 207.956 28.7227L207.445 30.9361H206.564ZM216.145 30.9361L215.294 26.2435H216.145L216.595 28.8309C216.642 29.0866 216.702 29.549 216.776 30.218C216.946 29.8736 217.156 29.49 217.416 29.0669L219.138 26.2435H220.069L217.116 30.9361L216.505 32.7954H215.614L216.145 30.9164V30.9361ZM221.281 26.2435H225.165L224.074 30.9361H223.193L224.194 26.9125H222.031L221.371 29.7064C221.3 30.066 221.142 30.4035 220.91 30.6902C220.805 30.7878 220.68 30.8634 220.544 30.9124C220.408 30.9615 220.264 30.9829 220.119 30.9755H219.789C219.641 30.9666 219.494 30.9502 219.348 30.9263L219.509 30.2671H219.879C220.099 30.2671 220.249 30.2671 220.309 30.1196C220.452 29.8218 220.556 29.5079 220.62 29.185L221.321 26.2337L221.281 26.2435ZM225.075 30.9361L227.317 28.5554L226.026 26.2435H227.027L227.467 27.0797C227.657 27.4437 227.798 27.7487 227.898 27.975L229.389 26.2435H230.42L228.258 28.6144L229.56 30.9361H228.558L228.038 29.9524L227.858 29.608L227.667 29.1948L226.136 30.9066L225.075 30.9361ZM231.692 30.9361L230.841 26.2435H231.692L232.142 28.8309C232.182 29.0866 232.242 29.549 232.323 30.218C232.514 29.8229 232.728 29.4386 232.963 29.0669L234.685 26.2435H235.616L232.613 30.9361L232.002 32.7954H231.111L231.642 30.9164L231.692 30.9361ZM236.697 30.9361L235.846 26.2435H236.697L237.148 28.8309C237.201 29.0866 237.261 29.549 237.328 30.218C237.498 29.8736 237.708 29.49 237.969 29.0669L239.691 26.2435H240.622L237.668 30.9361L237.058 32.7954H236.167L236.697 30.9164V30.9361ZM239.951 32.7463L241.442 26.2435H242.253L242.103 26.8928C242.3 26.6719 242.539 26.4912 242.807 26.3612C243.075 26.2312 243.367 26.1545 243.665 26.1353C243.892 26.1304 244.118 26.1715 244.328 26.2562C244.538 26.3408 244.728 26.4671 244.886 26.6272C245.228 27.0125 245.404 27.5136 245.377 28.0242C245.393 28.8043 245.119 29.5636 244.606 30.1589C244.401 30.4291 244.135 30.6495 243.83 30.8029C243.524 30.9564 243.187 31.039 242.844 31.0443C242.548 31.0466 242.257 30.9677 242.004 30.8165C241.751 30.6653 241.546 30.4478 241.412 30.1885L240.832 32.7463H239.951ZM241.683 29.1752C241.67 29.3418 241.694 29.5091 241.75 29.6666C241.807 29.8241 241.897 29.9682 242.013 30.0901C242.229 30.2903 242.517 30.3997 242.814 30.395C243.074 30.3905 243.327 30.3131 243.543 30.1719C243.759 30.0307 243.93 29.8317 244.035 29.5982C244.33 29.1165 244.489 28.5665 244.496 28.0045C244.5 27.6983 244.405 27.3986 244.225 27.1486C244.128 27.0305 244.004 26.9362 243.864 26.873C243.723 26.8099 243.569 26.7796 243.415 26.7846C243.157 26.7897 242.907 26.8627 242.688 26.996C242.47 27.1293 242.292 27.3179 242.173 27.5421C241.85 28.0273 241.679 28.5953 241.683 29.1752Z" fill="white"/>
</svg>
