<svg width="276" height="40" viewBox="0 0 276 40" fill="none" xmlns="http://www.w3.org/2000/svg">
<g clip-path="url(#clip0)">
<path d="M40.1239 40C62.2837 40 80.2478 31.0457 80.2478 20C80.2478 8.9543 62.2837 0 40.1239 0C17.9641 0 0 8.9543 0 20C0 31.0457 17.9641 40 40.1239 40Z" fill="#23B93B"/>
<path fill-rule="evenodd" clip-rule="evenodd" d="M80.2478 19.9997C80.2396 21.7589 79.8047 23.4896 78.9807 25.0426C77.7136 27.4834 66.7827 16.6815 58.1947 17.7708C46.7006 19.2332 35.9305 19.1525 23.3905 18.1843C12.188 17.3169 3.18781 28.3911 1.55872 25.557C0.556831 23.8871 0.0186391 21.9788 0 20.03C0 8.9357 17.9703 0.0299854 40.1239 0.0299854C62.2775 0.0299854 80.2478 8.94579 80.2478 19.9997Z" fill="#0B62C5"/>
<path d="M20.5953 15.7438C20.6874 15.7185 20.7847 15.7185 20.8769 15.7438L26.9709 16.3288L39.8226 5.52698C39.8545 5.49373 39.8927 5.46727 39.9351 5.4492C39.9774 5.43113 40.0229 5.42183 40.0689 5.42183C40.1149 5.42183 40.1605 5.43113 40.2028 5.4492C40.2451 5.46727 40.2834 5.49373 40.3153 5.52698L49.5669 16.9238L53.0363 11.7297C53.0838 11.6574 53.1562 11.6051 53.2396 11.5828C53.323 11.5604 53.4118 11.5697 53.4888 11.6087L79.3431 24.1856C79.0451 24.8946 78.6744 25.5706 78.2369 26.2027L69.1261 23.2476L68.2512 26.1624C68.2353 26.2176 68.2061 26.2682 68.1663 26.3096C68.1264 26.351 68.077 26.382 68.0225 26.3999C67.968 26.4178 67.91 26.422 67.8534 26.4123C67.7969 26.4025 67.7436 26.379 67.6981 26.3439L59.2108 20.0605L58.2052 22.0777C58.1798 22.1319 58.141 22.1788 58.0925 22.2139C58.044 22.249 57.9874 22.2711 57.928 22.2782C57.8687 22.2852 57.8085 22.277 57.7532 22.2543C57.6979 22.2315 57.6492 22.1951 57.6118 22.1483L55.7515 19.8285L54.1525 21.997C54.1114 22.0561 54.0894 22.1266 54.0894 22.1987C54.0894 22.2708 54.1114 22.3412 54.1525 22.4004L57.8532 27.9677C57.8936 28.0327 57.9118 28.1091 57.9052 28.1854C57.8985 28.2617 57.8672 28.3338 57.8162 28.3907C57.7651 28.4476 57.6969 28.4863 57.622 28.501C57.547 28.5157 57.4693 28.5055 57.4006 28.472L43.3724 21.3616L40.3556 27.1508C40.3251 27.21 40.279 27.2598 40.2222 27.2945C40.1654 27.3292 40.1002 27.3475 40.0338 27.3475C39.9673 27.3475 39.9021 27.3292 39.8453 27.2945C39.7886 27.2598 39.7424 27.21 39.712 27.1508L37.8515 22.8139L36.6649 23.9334C36.6152 23.9804 36.553 24.0119 36.4857 24.024C36.4185 24.0361 36.3491 24.0283 36.2862 24.0015C36.2233 23.9748 36.1695 23.9303 36.1314 23.8734C36.0933 23.8166 36.0726 23.7498 36.0717 23.6813V19.3343L24.5172 26.4952C24.449 26.5342 24.3699 26.5493 24.2922 26.538C24.2146 26.5268 24.143 26.4898 24.0887 26.433C24.0343 26.3762 24.0005 26.3029 23.9925 26.2246C23.9845 26.1463 24.0028 26.0676 24.0445 26.001L27.9463 20.2017L16.4421 25.184C16.3801 25.2158 16.3098 25.2279 16.2408 25.2185C16.1717 25.2092 16.1071 25.1789 16.0557 25.1317C16.0043 25.0845 15.9685 25.0227 15.9531 24.9546C15.9377 24.8864 15.9434 24.8152 15.9695 24.7504L17.1863 21.3212L1.89091 26.1422C1.89091 26.1422 1.53894 25.6077 1.03613 24.6394L20.5953 15.7438Z" fill="white"/>
<path d="M17.5881 30.4993C17.6447 30.5088 17.7025 30.5088 17.7591 30.4993C17.803 30.4832 17.8391 30.4506 17.8596 30.4085H17.9803L17.7691 31.175C17.7691 31.2758 17.6283 31.3263 17.4574 31.3263H17.1457L16.5624 33.7065C16.5624 33.7065 16.5624 33.767 16.5624 33.8074C16.6017 33.8192 16.6437 33.8192 16.6831 33.8074V33.9183H15.2249C15.203 33.9218 15.1806 33.92 15.1595 33.9131C15.1384 33.9062 15.1192 33.8944 15.1036 33.8787C15.0879 33.8629 15.0761 33.8437 15.0692 33.8226C15.0624 33.8014 15.0606 33.7789 15.064 33.7569C15.0604 33.7335 15.0604 33.7097 15.064 33.6864L15.6573 31.2758H15.2953C15.2493 31.2629 15.2006 31.2629 15.1545 31.2758C15.1194 31.3019 15.0917 31.3367 15.0741 31.3767H14.9434L15.1545 30.5799C15.159 30.5579 15.1686 30.5373 15.1826 30.5197C15.1966 30.5022 15.2146 30.4882 15.235 30.4791C15.3008 30.4605 15.3703 30.4605 15.4361 30.4791L17.5881 30.4993Z" fill="white"/>
<path d="M19.2573 33.9385C19.1915 33.957 19.1219 33.957 19.0562 33.9385C19.0332 33.9208 19.0149 33.8977 19.0026 33.8714C18.9904 33.8451 18.9846 33.8162 18.9858 33.7872V33.2829H18.3724L18.1612 33.6964C18.152 33.7225 18.152 33.751 18.1612 33.7771C18.1973 33.7875 18.2356 33.7875 18.2718 33.7771V33.888H17.1354C16.9846 33.888 16.9142 33.8376 16.9142 33.7267C16.9055 33.697 16.9055 33.6655 16.9142 33.6359L18.4528 30.7917C18.4585 30.7651 18.4585 30.7376 18.4528 30.711C18.4532 30.6914 18.4488 30.672 18.4401 30.6544C18.4313 30.6368 18.4184 30.6216 18.4025 30.6102C18.3866 30.6035 18.3695 30.6001 18.3522 30.6001C18.335 30.6001 18.3179 30.6035 18.302 30.6102V30.4892H19.8606C19.9355 30.4876 20.0091 30.5086 20.0718 30.5497C20.0978 30.5721 20.1185 30.6 20.1324 30.6314C20.1463 30.6628 20.1531 30.6969 20.1523 30.7312L20.3936 33.646C20.3946 33.6691 20.4016 33.6915 20.414 33.7109C20.4263 33.7304 20.4436 33.7463 20.464 33.7569C20.5058 33.794 20.5591 33.8153 20.6148 33.8174V33.9284L19.2573 33.9385ZM18.6338 32.5769H18.9355V32.0222L18.6338 32.5769Z" fill="white"/>
<path d="M23.652 30.4993C23.8477 30.489 24.0405 30.5499 24.195 30.6707C24.2576 30.7259 24.3072 30.7943 24.3403 30.871C24.3733 30.9478 24.3889 31.0309 24.3861 31.1145C24.3904 31.1412 24.3904 31.1685 24.3861 31.1952C24.3861 31.1952 24.3861 31.2557 24.3861 31.2758C24.3727 31.4215 24.3197 31.5606 24.2328 31.678C24.1459 31.7954 24.0285 31.8866 23.8933 31.9415C23.9796 31.9892 24.055 32.0544 24.1146 32.1331C24.1682 32.2281 24.1927 32.3369 24.185 32.4458C24.1808 32.6267 24.1537 32.8063 24.1045 32.9803C24.0582 33.2755 23.9127 33.5459 23.6922 33.7469C23.4541 33.8929 23.1761 33.96 22.8978 33.9385H20.786C20.7441 33.9559 20.6971 33.9559 20.6552 33.9385C20.6241 33.9018 20.6064 33.8555 20.605 33.8074C20.605 33.8074 20.605 33.7569 20.605 33.7267L21.319 30.8119C21.3289 30.797 21.3342 30.7794 21.3342 30.7615C21.3342 30.7435 21.3289 30.726 21.319 30.711C21.3016 30.7029 21.2828 30.6987 21.2637 30.6987C21.2445 30.6987 21.2257 30.7029 21.2084 30.711V30.59L23.652 30.4993ZM22.4251 33.172C22.4603 33.1764 22.496 33.1723 22.5292 33.16C22.5625 33.1477 22.5923 33.1276 22.6162 33.1014C22.6712 33.0191 22.7088 32.9264 22.7268 32.8291C22.7342 32.7519 22.7342 32.6742 22.7268 32.5971C22.7268 32.4861 22.6665 32.4256 22.5357 32.4256H22.395L22.214 33.172H22.4251ZM22.7972 31.7801C22.8575 31.7801 22.8978 31.7801 22.9179 31.7801C22.9526 31.7283 22.9766 31.67 22.9883 31.6087C22.9935 31.5483 22.9935 31.4875 22.9883 31.4271C22.9883 31.3364 22.938 31.296 22.8374 31.296H22.6765L22.5559 31.8205L22.7972 31.7801Z" fill="white"/>
<path d="M26.3774 33.9385C26.3118 33.9581 26.2419 33.9581 26.1763 33.9385C26.1533 33.9208 26.135 33.8977 26.1227 33.8714C26.1105 33.8451 26.1047 33.8162 26.1059 33.7872L26.0556 33.2829H25.4422L25.231 33.6964V33.7569C25.2248 33.7695 25.2216 33.7833 25.2216 33.7973C25.2216 33.8113 25.2248 33.8251 25.231 33.8376C25.2672 33.848 25.3055 33.848 25.3416 33.8376V33.9485H24.2053C24.0544 33.9485 23.984 33.8981 23.984 33.7872C23.9754 33.7575 23.9754 33.726 23.984 33.6964L25.5226 30.8522C25.5283 30.8256 25.5283 30.7981 25.5226 30.7715C25.523 30.7519 25.5187 30.7325 25.5099 30.7149C25.5012 30.6973 25.4883 30.6821 25.4723 30.6707C25.4564 30.664 25.4393 30.6606 25.4221 30.6606C25.4048 30.6606 25.3877 30.664 25.3718 30.6707V30.5497H26.9305C27.0053 30.5481 27.0789 30.5691 27.1417 30.6102C27.1676 30.6326 27.1883 30.6605 27.2022 30.6919C27.2162 30.7233 27.2229 30.7574 27.2221 30.7917L27.4635 33.7065C27.4644 33.7296 27.4714 33.752 27.4838 33.7714C27.4961 33.7909 27.5134 33.8068 27.5338 33.8174C27.5756 33.8545 27.6289 33.8759 27.6847 33.8779V33.9889L26.3774 33.9385ZM25.7539 32.5769H26.0556V32.0222L25.7539 32.5769Z" fill="white"/>
<path d="M29.6757 32.4256L29.374 33.6561C29.3641 33.6855 29.3641 33.7174 29.374 33.7469C29.4099 33.7592 29.4488 33.7592 29.4846 33.7469V33.8578H28.0265C27.9058 33.8578 27.8556 33.8074 27.8556 33.6964C27.8522 33.6696 27.8522 33.6425 27.8556 33.6158L28.5695 30.6909C28.5775 30.6753 28.5816 30.658 28.5816 30.6405C28.5816 30.6229 28.5775 30.6057 28.5695 30.59C28.5308 30.5743 28.4876 30.5743 28.4489 30.59V30.469H29.907C29.9289 30.4656 29.9513 30.4674 29.9724 30.4742C29.9935 30.4811 30.0127 30.4929 30.0284 30.5087C30.044 30.5244 30.0558 30.5436 30.0627 30.5648C30.0695 30.5859 30.0713 30.6084 30.0679 30.6304C30.0713 30.6571 30.0713 30.6843 30.0679 30.7111L29.8165 31.7196H30.1886L30.4299 30.7111C30.4399 30.6961 30.4452 30.6786 30.4452 30.6606C30.4452 30.6427 30.4399 30.6251 30.4299 30.6102C30.4126 30.6021 30.3937 30.5979 30.3746 30.5979C30.3555 30.5979 30.3366 30.6021 30.3193 30.6102V30.4892H31.7774C31.8003 30.4852 31.8239 30.487 31.8459 30.4944C31.868 30.5018 31.8879 30.5146 31.9038 30.5316C31.9197 30.5485 31.9312 30.5692 31.9373 30.5917C31.9433 30.6143 31.9436 30.6379 31.9383 30.6606V30.7716L31.2244 33.7065C31.2254 33.7259 31.2304 33.7449 31.239 33.7622C31.2477 33.7796 31.2598 33.7949 31.2746 33.8074C31.314 33.8192 31.3559 33.8192 31.3953 33.8074V33.9183H29.9372C29.8266 33.9183 29.7662 33.8679 29.7662 33.7569C29.7677 33.7334 29.7677 33.7099 29.7662 33.6864L30.0779 32.4055L29.6757 32.4256Z" fill="white"/>
<path d="M36.4733 31.6591C36.6956 31.6484 36.914 31.7202 37.0868 31.8608C37.1649 31.9359 37.226 32.0271 37.2659 32.128C37.3059 32.229 37.3236 32.3374 37.3181 32.4458C37.3178 32.5998 37.294 32.7528 37.2477 32.8996C37.2094 33.0547 37.1589 33.2065 37.0968 33.3535C37.0324 33.5541 36.8914 33.7209 36.7046 33.8174C36.482 33.9102 36.2414 33.9516 36.0007 33.9385H33.8587C33.8134 33.9555 33.7633 33.9555 33.7179 33.9385C33.7034 33.896 33.7034 33.8499 33.7179 33.8074C33.7136 33.7807 33.7136 33.7534 33.7179 33.7267L34.432 30.8119C34.4408 30.7966 34.4454 30.7792 34.4454 30.7615C34.4454 30.7438 34.4408 30.7264 34.432 30.711C34.3933 30.6953 34.35 30.6953 34.3113 30.711V30.59H37.5493L37.3985 31.1447C37.389 31.1807 37.3713 31.2139 37.3469 31.2419C37.3225 31.2699 37.292 31.2919 37.2577 31.3061C37.1832 31.3451 37.1005 31.3658 37.0164 31.3666H35.7996L35.7091 31.7499L36.4733 31.6591ZM35.327 33.1417H35.4979C35.5884 33.1417 35.6487 33.1417 35.6789 33.0711C35.7384 32.9754 35.7793 32.8693 35.7996 32.7585C35.807 32.688 35.807 32.6171 35.7996 32.5467C35.803 32.5247 35.8012 32.5022 35.7944 32.481C35.7875 32.4599 35.7757 32.4407 35.76 32.4249C35.7444 32.4092 35.7252 32.3974 35.7041 32.3905C35.683 32.3836 35.6606 32.3818 35.6387 32.3853H35.4778L35.327 33.1417Z" fill="white"/>
<path d="M39.9528 30.4992C40.2231 30.4896 40.4887 30.5713 40.7071 30.7312C40.8056 30.8041 40.8847 30.9002 40.9373 31.011C40.9899 31.1218 41.0144 31.244 41.0087 31.3666C41.0241 31.4635 41.0241 31.5622 41.0087 31.6591L40.697 32.9198C40.6465 33.2389 40.4778 33.5271 40.2244 33.7266C39.9855 33.8812 39.7037 33.9554 39.4199 33.9385H38.3439C38.0817 33.9594 37.8208 33.8841 37.6098 33.7266C37.529 33.645 37.4666 33.5469 37.4267 33.4391C37.3868 33.3312 37.3704 33.2161 37.3785 33.1013C37.3793 32.9315 37.3995 32.7623 37.4388 32.5971L37.6701 31.649C37.7309 31.3492 37.8697 31.0708 38.0724 30.8422C38.1934 30.7223 38.3385 30.6298 38.4981 30.5706C38.6576 30.5115 38.8279 30.4872 38.9975 30.4992H39.9528ZM38.8165 32.8694C38.8123 32.9096 38.8123 32.9502 38.8165 32.9904C38.8165 33.0812 38.8668 33.1215 38.9573 33.1215C39.0122 33.125 39.0663 33.107 39.1081 33.0711C39.1511 33.0311 39.1794 32.9778 39.1886 32.9198L39.5305 31.528C39.5339 31.5012 39.5339 31.4741 39.5305 31.4473C39.534 31.4266 39.5325 31.4054 39.5262 31.3855C39.5199 31.3655 39.5088 31.3473 39.494 31.3325C39.4793 31.3177 39.4612 31.3067 39.4413 31.3003C39.4214 31.294 39.4002 31.2925 39.3796 31.296C39.3243 31.2958 39.2709 31.3164 39.2299 31.3537C39.189 31.391 39.1635 31.4424 39.1584 31.4977L38.8165 32.8694Z" fill="white"/>
<path d="M42.2257 33.5653C42.2202 33.6021 42.2202 33.6395 42.2257 33.6762C42.2279 33.6964 42.2345 33.7159 42.2449 33.7333C42.2553 33.7507 42.2693 33.7656 42.286 33.7771C42.3254 33.7889 42.3673 33.7889 42.4067 33.7771V33.888H40.8983C40.8564 33.9054 40.8094 33.9054 40.7676 33.888C40.7364 33.8513 40.7187 33.8051 40.7173 33.7569C40.7173 33.7569 40.7173 33.7065 40.7173 33.6762L41.4313 30.7615C41.4412 30.7465 41.4465 30.729 41.4465 30.711C41.4465 30.6931 41.4412 30.6756 41.4313 30.6606C41.414 30.6525 41.395 30.6483 41.3759 30.6483C41.3568 30.6483 41.3379 30.6525 41.3206 30.6606V30.5396H43.9855L43.8447 31.1044C43.8262 31.1741 43.7834 31.235 43.724 31.2758C43.6613 31.3169 43.5877 31.338 43.5128 31.3364H42.7888L42.2257 33.5653Z" fill="white"/>
<path d="M46.0669 32.9904C46.0669 33.0913 46.1272 33.1417 46.2077 33.1417H46.3383L46.2077 33.7065C46.1973 33.7485 46.1786 33.7881 46.1527 33.8227C46.1268 33.8574 46.0942 33.8864 46.0568 33.9082C45.9669 33.9224 45.8752 33.9224 45.7853 33.9082H42.9998C42.859 33.9082 42.7886 33.8578 42.7886 33.7468V33.6661L42.9193 33.1114H43.0601C43.1025 33.126 43.1485 33.126 43.1908 33.1114C43.223 33.0825 43.2502 33.0484 43.2712 33.0106L44.2769 30.8522V30.7715C44.2832 30.7573 44.2866 30.7418 44.2866 30.7261C44.2866 30.7105 44.2832 30.695 44.2769 30.6808C44.2609 30.6741 44.2438 30.6707 44.2266 30.6707C44.2093 30.6707 44.1923 30.6741 44.1763 30.6808V30.5597H45.4434C45.5122 30.5567 45.5799 30.5781 45.6345 30.6203C45.6585 30.6353 45.6784 30.656 45.6924 30.6807C45.7064 30.7053 45.7142 30.7331 45.7149 30.7614L46.0669 32.9904ZM44.6389 32.5164L44.3875 33.1417H44.6892L44.6389 32.5164Z" fill="white"/>
<path d="M49.6569 33.5653C49.6512 33.6021 49.6512 33.6395 49.6569 33.6763C49.6591 33.6964 49.6656 33.7159 49.676 33.7333C49.6864 33.7507 49.7005 33.7656 49.7172 33.7771C49.7566 33.7889 49.7985 33.7889 49.8379 33.7771V33.888H48.3495C48.2892 33.888 48.239 33.888 48.2189 33.888C48.205 33.8454 48.205 33.7995 48.2189 33.7569C48.2145 33.7302 48.2145 33.703 48.2189 33.6763L48.9328 30.7615C48.9416 30.7461 48.9463 30.7287 48.9463 30.711C48.9463 30.6933 48.9416 30.676 48.9328 30.6606C48.9138 30.6523 48.8932 30.648 48.8725 30.648C48.8517 30.648 48.8312 30.6523 48.8121 30.6606V30.5396H51.467L51.3362 31.1044C51.3177 31.1741 51.2749 31.235 51.2156 31.2758C51.1529 31.3169 51.0792 31.338 51.0044 31.3364H50.2804L49.6569 33.5653Z" fill="white"/>
<path d="M53.7801 30.4992C54.0392 30.4808 54.297 30.5482 54.5142 30.6909C54.5975 30.7602 54.663 30.8486 54.705 30.9487C54.747 31.0488 54.7644 31.1575 54.7556 31.2657C54.7612 31.3329 54.7612 31.4003 54.7556 31.4675C54.7618 31.5413 54.7618 31.6155 54.7556 31.6894C54.7035 32.0199 54.5762 32.3339 54.3835 32.6072C54.188 32.7655 53.9404 32.8446 53.6896 32.829H52.6137L52.4226 33.6056V33.7065C52.4171 33.7192 52.4142 33.733 52.4142 33.7469C52.4142 33.7607 52.4171 33.7744 52.4226 33.7872C52.4581 33.8012 52.4977 33.8012 52.5332 33.7872V33.8981H51.0851C51.0433 33.9155 50.9962 33.9155 50.9544 33.8981C50.9232 33.8614 50.9055 33.8152 50.9041 33.767C50.8998 33.7403 50.8998 33.7131 50.9041 33.6863L51.6181 30.7716C51.6269 30.7562 51.6316 30.7388 51.6316 30.7211C51.6316 30.7034 51.6269 30.686 51.6181 30.6707C51.599 30.6624 51.5785 30.6581 51.5577 30.6581C51.537 30.6581 51.5164 30.6624 51.4974 30.6707V30.5497L53.7801 30.4992ZM52.7745 32.0323H52.9656C53.0015 32.0347 53.0375 32.0286 53.0707 32.0146C53.1039 32.0006 53.1333 31.979 53.1567 31.9516C53.2148 31.8589 53.2556 31.7563 53.2773 31.649C53.285 31.582 53.285 31.5143 53.2773 31.4473C53.2865 31.4267 53.2912 31.4043 53.2912 31.3817C53.2912 31.3592 53.2865 31.3368 53.2773 31.3162C53.2773 31.3162 53.2069 31.3162 53.1466 31.3162H52.9656L52.7745 32.0323Z" fill="white"/>
<path d="M54.8664 30.7716C54.8526 30.7266 54.8242 30.6876 54.7859 30.6606C54.7686 30.6525 54.7497 30.6483 54.7306 30.6483C54.7115 30.6483 54.6926 30.6525 54.6753 30.6606V30.5396H55.9826C56.0392 30.546 56.0922 30.5708 56.1334 30.6102C56.1847 30.6566 56.2229 30.7157 56.244 30.7816L56.4652 31.6389L56.8474 30.9733C56.8589 30.9269 56.8589 30.8784 56.8474 30.8321C56.862 30.7931 56.862 30.75 56.8474 30.711C56.8301 30.7029 56.8112 30.6987 56.7921 30.6987C56.773 30.6987 56.7541 30.7029 56.7368 30.711V30.59H57.8329C57.882 30.5745 57.9346 30.5745 57.9837 30.59C58.0014 30.605 58.0159 30.6235 58.0263 30.6443C58.0367 30.6651 58.0427 30.6878 58.0441 30.711C58.0558 30.7505 58.0558 30.7926 58.0441 30.8321L56.3044 33.7469C56.2531 33.824 56.1823 33.886 56.0993 33.9268C56.0162 33.9675 55.9239 33.9855 55.8317 33.9788H55.1882C55.1548 33.9803 55.1214 33.9747 55.0903 33.9626C55.0591 33.9504 55.0308 33.9319 55.0072 33.9082C55.0072 33.8477 54.9267 33.8073 54.9267 33.7569C54.9212 33.6999 54.9212 33.6425 54.9267 33.5855L55.0272 33.1821H55.2183C55.2789 33.189 55.34 33.176 55.3926 33.1451C55.4452 33.1142 55.4864 33.067 55.51 33.0106V32.94L54.8664 30.7716Z" fill="white"/>
<path d="M59.6128 31.2758L59.0396 33.6056V33.7065C59.0384 33.7236 59.0426 33.7406 59.0517 33.7551C59.0607 33.7696 59.0741 33.7808 59.09 33.7872C59.1075 33.7947 59.1263 33.7985 59.1453 33.7985C59.1643 33.7985 59.1831 33.7947 59.2006 33.7872V33.8981H57.7626C57.7172 33.9152 57.6672 33.9152 57.6218 33.8981C57.6072 33.8557 57.6072 33.8095 57.6218 33.767C57.6174 33.7403 57.6174 33.7131 57.6218 33.6863L58.3358 30.7716C58.3424 30.7556 58.3458 30.7385 58.3458 30.7211C58.3458 30.7038 58.3424 30.6867 58.3358 30.6707C58.2971 30.655 58.2537 30.655 58.215 30.6707V30.5497H61.4933C61.5205 30.5464 61.5481 30.5494 61.574 30.5584C61.5999 30.5674 61.6234 30.5822 61.6427 30.6016C61.6621 30.621 61.6768 30.6446 61.6858 30.6705C61.6947 30.6965 61.6977 30.7241 61.6945 30.7514C61.7007 30.7676 61.7007 30.7856 61.6945 30.8018L60.9805 33.7267C60.9681 33.7591 60.9681 33.7951 60.9805 33.8275C61.0198 33.8393 61.0618 33.8393 61.1012 33.8275V33.9385H59.6832C59.5425 33.9385 59.4821 33.878 59.4821 33.7569L60.0754 31.3263L59.6128 31.2758Z" fill="white"/>
<path d="M63.3134 31.2758L62.7402 33.6057V33.7065C62.7347 33.7192 62.7319 33.733 62.7319 33.7469C62.7319 33.7608 62.7347 33.7745 62.7402 33.7872C62.7758 33.8012 62.8154 33.8012 62.8509 33.7872V33.8981H61.4028C61.361 33.9155 61.3139 33.9155 61.2721 33.8981C61.2583 33.8555 61.2583 33.8096 61.2721 33.767C61.2721 33.767 61.2721 33.7166 61.2721 33.6864L61.986 30.7716C61.996 30.7566 62.0013 30.7391 62.0013 30.7211C62.0013 30.7032 61.996 30.6856 61.986 30.6707C61.9687 30.6626 61.9498 30.6584 61.9307 30.6584C61.9116 30.6584 61.8927 30.6626 61.8754 30.6707V30.5497H65.1537C65.2845 30.5497 65.3448 30.6203 65.3448 30.7514V30.7716L64.6308 33.6964C64.6308 33.6964 64.6308 33.7569 64.6811 33.7973C64.7168 33.8104 64.756 33.8104 64.7917 33.7973V33.9082H63.3738C63.243 33.9082 63.1727 33.8477 63.1727 33.7267L63.766 31.296L63.3134 31.2758Z" fill="white"/>
<path d="M85.1453 8.73423H92.1846C92.369 8.73391 92.5511 8.69258 92.7176 8.61321C92.7942 8.58616 92.8638 8.54222 92.9212 8.48462C92.9786 8.42701 93.0224 8.35723 93.0494 8.2804H93.4517L92.7578 10.9531C92.6371 11.3263 92.2952 11.5179 91.7522 11.5179H90.7466L88.8058 19.7781C88.7999 19.8459 88.8116 19.914 88.8398 19.9759C88.868 20.0378 88.9117 20.0913 88.9666 20.1311C89.0657 20.2391 89.2027 20.3042 89.3488 20.3127L89.2281 20.7161H84.4012C84.3262 20.726 84.2499 20.7185 84.1783 20.6942C84.1067 20.6698 84.0416 20.6292 83.9882 20.5756C83.9347 20.522 83.8942 20.4567 83.8699 20.3849C83.8457 20.313 83.8382 20.2366 83.8481 20.1614C83.8392 20.0675 83.8392 19.9729 83.8481 19.879L85.8593 11.5179H84.6425C84.4797 11.5109 84.3186 11.5531 84.1799 11.6389C84.0612 11.7139 83.9724 11.8281 83.9285 11.9617H83.4961L84.19 9.19817C84.2078 9.12345 84.2413 9.05337 84.2881 8.99253C84.3348 8.93169 84.394 8.88149 84.4615 8.84519C84.6767 8.75167 84.9117 8.71352 85.1453 8.73423Z" fill="#0B62C5"/>
<path d="M103.588 20.6858H99.113C98.8817 20.7033 98.6504 20.6506 98.4493 20.5346C98.3701 20.4745 98.3062 20.3967 98.2625 20.3074C98.2188 20.2181 98.1967 20.1197 98.1979 20.0202L98.037 18.2451H96.0258L95.3218 19.6773C95.3184 19.704 95.3184 19.7312 95.3218 19.7579C95.3218 19.7579 95.3218 19.8285 95.3218 19.8991C95.3238 19.9533 95.3385 20.0061 95.3647 20.0535C95.3909 20.1008 95.4279 20.1412 95.4727 20.1715C95.5691 20.2422 95.6851 20.281 95.8045 20.2824L95.7241 20.6858H91.9631C91.4704 20.6858 91.229 20.4942 91.229 20.1109C91.2332 19.9945 91.2642 19.8806 91.3195 19.7781L96.418 9.88403C96.452 9.80084 96.4691 9.71168 96.4683 9.62179C96.4678 9.55489 96.4532 9.48884 96.4255 9.428C96.3977 9.36716 96.3575 9.3129 96.3073 9.26878C96.2615 9.21732 96.2059 9.17561 96.1437 9.14616C96.0815 9.1167 96.014 9.10011 95.9453 9.09734L96.0559 8.70398H101.215C101.46 8.69664 101.7 8.77113 101.899 8.91577C101.988 8.99036 102.059 9.08473 102.106 9.19146C102.153 9.2982 102.175 9.41441 102.17 9.53102L102.975 19.6773C102.98 19.7603 103.005 19.8409 103.046 19.9127C103.088 19.9844 103.146 20.0454 103.216 20.0908C103.355 20.2137 103.533 20.2818 103.719 20.2824L103.588 20.6858ZM97.9063 13.9687L97.0515 15.9153H98.0571L97.9063 13.9687Z" fill="#0B62C5"/>
<path d="M105.931 8.69387H113.976C114.3 8.67193 114.626 8.71505 114.933 8.82068C115.24 8.92632 115.523 9.09237 115.766 9.30912C115.973 9.50383 116.136 9.74017 116.245 10.0026C116.354 10.2651 116.407 10.5478 116.4 10.8321C116.409 10.9361 116.409 11.0407 116.4 11.1447C116.404 11.2321 116.404 11.3196 116.4 11.4069C116.138 12.6878 115.595 13.4241 114.771 13.7166C115.065 13.8892 115.316 14.1273 115.505 14.4125C115.687 14.7485 115.771 15.1298 115.746 15.5118C115.72 16.1343 115.633 16.7526 115.484 17.3575C115.336 18.3859 114.848 19.3344 114.097 20.0504C113.317 20.5531 112.396 20.7868 111.472 20.7161H104.594C104.512 20.7215 104.43 20.709 104.354 20.6794C104.277 20.6497 104.208 20.6037 104.151 20.5446C104.046 20.4219 103.991 20.2628 104 20.1009C103.988 20.0105 103.988 19.9189 104 19.8285L106.344 9.59152C106.353 9.524 106.344 9.45528 106.32 9.39179C106.295 9.3283 106.255 9.27212 106.203 9.22845C106.154 9.17548 106.095 9.13298 106.029 9.10351C105.963 9.07405 105.893 9.05821 105.821 9.05697L105.931 8.69387ZM109.33 18.0131H109.913C110.031 18.0263 110.15 18.0143 110.263 17.9778C110.376 17.9413 110.479 17.8811 110.567 17.8013C110.753 17.4934 110.873 17.1499 110.919 16.7927C110.991 16.5329 111.031 16.2654 111.04 15.996C111.04 15.6026 110.829 15.411 110.406 15.411H109.913L109.33 18.0131ZM110.456 13.0913H111.15C111.227 13.0993 111.304 13.0888 111.376 13.0608C111.448 13.0327 111.512 12.9878 111.563 12.9299C111.674 12.7465 111.752 12.5452 111.794 12.3348C111.845 12.1262 111.879 11.9137 111.894 11.6994C111.894 11.4069 111.723 11.2557 111.392 11.2557H110.869L110.456 13.0913Z" fill="#0B62C5"/>
<path d="M127.481 20.6858H123.006C122.775 20.7033 122.544 20.6506 122.343 20.5345C122.263 20.4745 122.199 20.3967 122.156 20.3074C122.112 20.2181 122.09 20.1197 122.091 20.0202L121.93 18.2451H119.919L119.205 19.6773C119.201 19.704 119.201 19.7312 119.205 19.7579C119.205 19.7579 119.205 19.8285 119.205 19.8991C119.207 19.9533 119.222 20.0061 119.248 20.0535C119.274 20.1008 119.311 20.1412 119.356 20.1714C119.452 20.2435 119.568 20.2824 119.688 20.2824L119.607 20.6858H115.816C115.323 20.6858 115.082 20.4942 115.082 20.1109C115.086 19.9945 115.117 19.8806 115.173 19.7781L120.271 9.88402C120.305 9.80083 120.322 9.71167 120.321 9.62178C120.318 9.55435 120.302 9.48824 120.272 9.42753C120.243 9.36682 120.201 9.31279 120.15 9.26877C120.107 9.21665 120.054 9.17437 119.993 9.1448C119.932 9.11522 119.866 9.09905 119.798 9.09733L119.899 8.70398H125.068C125.31 8.69494 125.548 8.76972 125.741 8.91577C125.834 8.98825 125.908 9.08197 125.957 9.18903C126.006 9.29608 126.029 9.41335 126.023 9.53101L126.817 19.6773C126.823 19.7603 126.847 19.8409 126.889 19.9127C126.931 19.9844 126.989 20.0454 127.059 20.0908C127.2 20.2106 127.377 20.2783 127.562 20.2824L127.481 20.6858ZM121.789 13.9687L120.945 15.9153H121.95L121.789 13.9687Z" fill="#0B62C5"/>
<path d="M135.144 15.4312H133.917L132.912 19.7075V19.8386C132.91 19.904 132.925 19.9686 132.955 20.0267C132.985 20.0849 133.029 20.1346 133.083 20.1714C133.183 20.2601 133.311 20.3101 133.445 20.3127L133.354 20.7161H128.517C128.441 20.7274 128.363 20.721 128.29 20.6974C128.217 20.6738 128.15 20.6337 128.095 20.5801C128.039 20.5265 127.997 20.4609 127.971 20.3883C127.945 20.3157 127.935 20.2381 127.944 20.1614C127.944 20.1009 127.944 20 127.944 19.8588L130.317 9.67219C130.324 9.60387 130.314 9.5349 130.288 9.47151C130.261 9.40812 130.22 9.35232 130.166 9.30912C130.066 9.2028 129.93 9.13803 129.784 9.12758L129.905 8.73422H134.722C134.797 8.72209 134.874 8.72806 134.947 8.75164C135.02 8.77523 135.086 8.81576 135.14 8.8699C135.194 8.92404 135.234 8.99026 135.258 9.0631C135.281 9.13594 135.287 9.21336 135.275 9.28896V9.59152L134.41 13.1417H135.637L136.441 9.70244C136.448 9.63511 136.438 9.56721 136.414 9.50417C136.39 9.44112 136.351 9.38469 136.301 9.33937C136.255 9.2865 136.2 9.24321 136.138 9.21204C136.076 9.18087 136.008 9.16245 135.939 9.15784L136.019 8.76448H140.846C140.922 8.75857 140.999 8.76802 141.071 8.79227C141.144 8.81652 141.211 8.8551 141.268 8.90569C141.364 9.02522 141.411 9.17657 141.399 9.32928V9.59152L139.046 19.7781C139.041 19.8448 139.052 19.9117 139.078 19.9732C139.104 20.0347 139.145 20.0889 139.197 20.1311C139.297 20.2374 139.433 20.3022 139.579 20.3127L139.458 20.7161H134.641C134.565 20.7264 134.488 20.7188 134.416 20.6939C134.343 20.669 134.277 20.6274 134.224 20.5726C134.17 20.5178 134.13 20.4512 134.106 20.378C134.083 20.3049 134.077 20.2272 134.088 20.1513V19.879L135.144 15.4312Z" fill="#0B62C5"/>
<path d="M153.778 12.7685H156.383C157.119 12.7316 157.841 12.985 158.394 13.4745C158.652 13.7402 158.852 14.0567 158.982 14.4039C159.112 14.751 159.168 15.1214 159.148 15.4917C159.141 16.0194 159.07 16.5444 158.937 17.055C158.803 17.5928 158.635 18.1217 158.434 18.6384C158.216 19.3213 157.754 19.8994 157.137 20.2622C156.4 20.5847 155.597 20.7298 154.794 20.6858H147.755C147.673 20.6927 147.59 20.6808 147.514 20.6511C147.437 20.6214 147.368 20.5746 147.312 20.5144C147.206 20.3917 147.152 20.2326 147.161 20.0706C147.154 19.98 147.154 19.8889 147.161 19.7983L149.524 9.64194C149.534 9.57437 149.527 9.50536 149.502 9.4417C149.477 9.37803 149.437 9.32192 149.384 9.27887C149.336 9.22311 149.278 9.17807 149.212 9.14677C149.146 9.11546 149.074 9.09862 149.002 9.09734L149.102 8.70398H159.802L159.319 10.6102C159.283 10.7332 159.221 10.8471 159.138 10.9445C159.055 11.0418 158.952 11.1204 158.836 11.175C158.592 11.3182 158.315 11.3947 158.032 11.3969H154.009L153.778 12.7685ZM153.205 15.2698L152.602 17.9324H153.175C153.289 17.9413 153.404 17.922 153.509 17.8763C153.614 17.8306 153.706 17.7599 153.778 17.6702C153.962 17.3332 154.091 16.9688 154.16 16.591C154.224 16.347 154.261 16.0967 154.271 15.8447C154.271 15.4614 154.09 15.2698 153.728 15.2698H153.205Z" fill="#0B62C5"/>
<path d="M164.589 8.73423H167.887C168.79 8.69882 169.678 8.97664 170.401 9.52091C170.732 9.78696 170.995 10.1275 171.17 10.5147C171.344 10.902 171.426 11.3252 171.407 11.7499C171.408 12.0898 171.367 12.4285 171.286 12.7585L170.28 17.1659C170.106 18.2579 169.55 19.252 168.712 19.9697C167.93 20.5073 166.993 20.7698 166.047 20.7161H162.497C161.624 20.7869 160.756 20.5199 160.073 19.9697C159.795 19.6837 159.58 19.3416 159.443 18.9661C159.306 18.5905 159.25 18.1901 159.279 17.7912C159.285 17.1957 159.362 16.603 159.51 16.0262L160.275 12.7383C160.469 11.7043 160.915 10.7344 161.572 9.91427C161.966 9.51866 162.437 9.20948 162.957 9.00635C163.476 8.80321 164.032 8.71053 164.589 8.73423ZM165.252 12.2037L164.136 16.9944C164.124 17.132 164.124 17.2704 164.136 17.408C164.136 17.7004 164.297 17.8416 164.629 17.8416C164.804 17.852 164.978 17.8022 165.122 17.7005C165.257 17.5514 165.344 17.3653 165.373 17.1659L166.519 12.2945C166.525 12.2004 166.525 12.1061 166.519 12.0121C166.528 11.9443 166.521 11.8754 166.498 11.8109C166.476 11.7464 166.439 11.6879 166.39 11.6401C166.341 11.5923 166.282 11.5563 166.218 11.5351C166.153 11.5139 166.084 11.5081 166.017 11.5179C165.594 11.5179 165.383 11.7398 165.262 12.2037H165.252Z" fill="#0B62C5"/>
<path d="M177.219 11.5179L175.419 19.3949C175.403 19.5221 175.403 19.6508 175.419 19.7781C175.423 19.8512 175.443 19.9225 175.478 19.9869C175.513 20.0514 175.561 20.1075 175.62 20.1513C175.729 20.2532 175.873 20.3107 176.022 20.3127L175.941 20.7161H171.014C170.932 20.7215 170.85 20.709 170.774 20.6794C170.697 20.6498 170.628 20.6038 170.571 20.5446C170.466 20.4219 170.412 20.2628 170.421 20.1009C170.414 20.0102 170.414 19.9192 170.421 19.8285L172.774 9.6722C172.786 9.60549 172.78 9.53676 172.757 9.47297C172.734 9.40918 172.695 9.35264 172.643 9.30913C172.595 9.25478 172.536 9.2107 172.47 9.17952C172.405 9.14834 172.333 9.13069 172.261 9.1276L172.361 8.73424H181.171L180.718 10.6808C180.666 10.9241 180.527 11.1396 180.326 11.2859C180.124 11.44 179.876 11.5216 179.622 11.5179H177.219Z" fill="#0B62C5"/>
<path d="M189.728 9.42005L190.734 17.3878C190.788 17.7509 190.949 17.9324 191.217 17.9324H191.649L191.197 19.9496C191.174 20.0934 191.119 20.23 191.035 20.349C190.951 20.4679 190.841 20.5659 190.714 20.6354C190.419 20.7318 190.109 20.7728 189.799 20.7564H180.608C180.135 20.7564 179.894 20.5648 179.894 20.1815V19.8991L180.336 17.9728H180.799C180.953 17.9748 181.103 17.9211 181.221 17.8215C181.339 17.7277 181.432 17.6065 181.493 17.4685L184.992 9.96469V9.66213C184.994 9.59681 184.982 9.53184 184.958 9.47118C184.933 9.41051 184.897 9.35539 184.851 9.30912C184.806 9.2642 184.753 9.22861 184.694 9.20438C184.636 9.18015 184.573 9.16775 184.509 9.16791L184.59 8.77458H188.783C189.006 8.76723 189.226 8.83465 189.407 8.96621C189.568 9.07095 189.683 9.23323 189.728 9.42005ZM186.138 17.9324L185.998 15.7337L185.153 17.9324H186.138Z" fill="#0B62C5"/>
<path d="M202.681 19.879L202.922 18.8704H200.338C199.982 18.8882 199.628 18.8184 199.305 18.6672C198.983 18.516 198.702 18.288 198.488 18.003C198.046 17.3987 197.816 16.6645 197.834 15.9153C197.842 15.4366 197.899 14.9601 198.005 14.4932C198.167 13.8039 198.386 13.1293 198.659 12.476C198.862 11.9178 199.209 11.4236 199.664 11.0439C200.359 10.4972 201.225 10.215 202.108 10.2471H204.904L205.044 9.68229C205.05 9.61452 205.038 9.54638 205.01 9.48451C204.982 9.42263 204.938 9.36915 204.883 9.32929C204.835 9.27493 204.776 9.23086 204.711 9.19967C204.645 9.16849 204.574 9.15084 204.501 9.14775L204.612 8.75442H209.117C209.191 8.74269 209.268 8.74857 209.339 8.77163C209.411 8.79469 209.476 8.83427 209.53 8.8872C209.584 8.94014 209.625 9.00495 209.649 9.07647C209.673 9.14798 209.68 9.22419 209.67 9.29903C209.676 9.38971 209.676 9.48068 209.67 9.57136L209.529 10.2471H212.023C212.382 10.2293 212.739 10.2926 213.07 10.4323C213.401 10.572 213.696 10.7844 213.934 11.054C214.402 11.6195 214.648 12.3365 214.628 13.0711C214.625 13.5118 214.578 13.9511 214.487 14.3822C214.314 15.1103 214.089 15.8249 213.813 16.5204C213.599 17.0898 213.254 17.601 212.808 18.0131C212.13 18.5982 211.258 18.9076 210.364 18.8805H207.538L207.357 19.5764V19.9092C207.355 19.9708 207.369 20.0317 207.397 20.0864C207.426 20.1411 207.467 20.1877 207.518 20.2219C207.621 20.3033 207.749 20.3461 207.88 20.3429L207.78 20.7463H203.264C203.188 20.7566 203.111 20.749 203.039 20.7241C202.966 20.6992 202.9 20.6577 202.847 20.6029C202.793 20.548 202.753 20.4814 202.729 20.4083C202.706 20.3351 202.7 20.2575 202.711 20.1815C202.691 20.0819 202.681 19.9806 202.681 19.879ZM203.576 16.0666L204.31 12.9198H203.807C203.673 12.9117 203.54 12.9392 203.42 12.9994C203.3 13.0596 203.197 13.1504 203.124 13.2627C202.899 13.7036 202.743 14.1764 202.661 14.6646C202.598 14.902 202.561 15.1455 202.55 15.3908C202.55 15.8447 202.762 16.0666 203.164 16.0666H203.576ZM208.835 12.9198L208.111 16.0666H208.614C208.745 16.073 208.876 16.0458 208.994 15.9876C209.112 15.9293 209.213 15.842 209.288 15.7337C209.511 15.2921 209.667 14.8196 209.751 14.3318C209.814 14.0912 209.851 13.8443 209.861 13.5956C209.861 13.1518 209.66 12.9198 209.248 12.9198H208.835Z" fill="#0B62C5"/>
<path d="M221.556 15.4412L219.142 19.1326C219.053 19.2493 218.969 19.3705 218.891 19.4957C218.823 19.5974 218.785 19.7162 218.78 19.8386C218.782 19.9035 218.798 19.9673 218.827 20.025C218.857 20.0827 218.899 20.1328 218.951 20.1714C219.056 20.2587 219.187 20.3083 219.323 20.3127L219.233 20.7161H214.396C214.32 20.7274 214.242 20.721 214.169 20.6974C214.096 20.6738 214.029 20.6337 213.973 20.5801C213.918 20.5265 213.876 20.4609 213.85 20.3883C213.823 20.3157 213.814 20.2381 213.823 20.1614C213.813 20.0608 213.813 19.9594 213.823 19.8588L216.196 9.67219C216.203 9.60289 216.191 9.53304 216.163 9.46942C216.135 9.40579 216.091 9.35057 216.035 9.30912C215.987 9.25477 215.928 9.21069 215.862 9.17951C215.797 9.14833 215.726 9.13068 215.653 9.12758L215.774 8.73423H220.601C220.676 8.72428 220.752 8.73178 220.824 8.75614C220.895 8.7805 220.96 8.82107 221.014 8.8747C221.067 8.92834 221.108 8.99361 221.132 9.06544C221.156 9.13727 221.164 9.21376 221.154 9.28896V9.59152L220.078 14.0696L222.35 10.6303L222.642 10.1967C222.74 10.0452 222.811 9.87805 222.853 9.70245C222.862 9.63493 222.854 9.56624 222.829 9.50275C222.805 9.43926 222.765 9.38305 222.712 9.33938C222.668 9.28561 222.613 9.24169 222.55 9.21044C222.488 9.17919 222.42 9.16129 222.35 9.15784L222.431 8.76448H227.258C227.334 8.75858 227.411 8.76803 227.483 8.79228C227.556 8.81653 227.623 8.8551 227.68 8.9057C227.776 9.02522 227.822 9.17658 227.811 9.32928V9.59152L225.448 19.8084C225.442 19.8761 225.453 19.9443 225.482 20.0062C225.51 20.068 225.554 20.1215 225.609 20.1614C225.704 20.2688 225.838 20.334 225.981 20.3429L225.86 20.7463H221.043C220.967 20.7566 220.89 20.749 220.817 20.7241C220.745 20.6992 220.679 20.6577 220.626 20.6029C220.572 20.548 220.532 20.4814 220.508 20.4083C220.485 20.3351 220.478 20.2575 220.49 20.1815V19.9092L221.556 15.4412Z" fill="#0B62C5"/>
<path d="M234.126 15.4312H232.9L231.894 19.7075V19.8386C231.893 19.904 231.908 19.9686 231.937 20.0267C231.967 20.0849 232.011 20.1346 232.065 20.1714C232.165 20.2601 232.293 20.3101 232.427 20.3127L232.346 20.7161H227.499C227.424 20.7277 227.346 20.7215 227.273 20.6979C227.2 20.6744 227.134 20.634 227.079 20.5802C227.025 20.5263 226.983 20.4605 226.958 20.3878C226.934 20.315 226.926 20.2375 226.936 20.1614C226.93 20.0606 226.93 19.9595 226.936 19.8588L229.31 9.67219C229.318 9.60371 229.309 9.53414 229.283 9.4704C229.256 9.40667 229.213 9.35104 229.159 9.30912C229.058 9.2028 228.922 9.13803 228.777 9.12758L228.897 8.73422H233.714C233.789 8.72209 233.867 8.72806 233.939 8.75164C234.012 8.77523 234.078 8.81576 234.132 8.8699C234.186 8.92404 234.226 8.99026 234.25 9.0631C234.273 9.13594 234.279 9.21336 234.267 9.28896V9.59152L233.402 13.1417H234.639L235.434 9.70244C235.443 9.63493 235.435 9.56624 235.41 9.50275C235.385 9.43926 235.345 9.38305 235.293 9.33937C235.248 9.28561 235.193 9.24169 235.131 9.21044C235.069 9.17919 235.001 9.16129 234.931 9.15784L235.011 8.76448H239.838C239.915 8.75857 239.991 8.76802 240.064 8.79227C240.136 8.81652 240.203 8.8551 240.261 8.90569C240.356 9.02522 240.403 9.17657 240.391 9.32928V9.59152L237.998 19.7781C237.992 19.8459 238.004 19.914 238.032 19.9759C238.06 20.0378 238.104 20.0913 238.159 20.1311C238.254 20.2385 238.388 20.3038 238.531 20.3127L238.41 20.7161H233.593C233.517 20.7264 233.44 20.7188 233.368 20.6939C233.295 20.669 233.23 20.6274 233.176 20.5726C233.122 20.5178 233.082 20.4512 233.058 20.378C233.035 20.3049 233.029 20.2272 233.04 20.1513V19.879L234.126 15.4312Z" fill="#0B62C5"/>
<path d="M251.393 20.6858H246.918C246.686 20.7021 246.456 20.6495 246.254 20.5346C246.177 20.473 246.114 20.3949 246.07 20.3059C246.027 20.2169 246.004 20.1193 246.003 20.0202L245.842 18.2451H243.83L243.126 19.6773C243.123 19.7041 243.123 19.7312 243.126 19.7579C243.134 19.8047 243.134 19.8524 243.126 19.8992C243.128 19.9533 243.143 20.0062 243.169 20.0535C243.196 20.1008 243.233 20.1412 243.277 20.1715C243.377 20.2436 243.497 20.2825 243.619 20.2824L243.529 20.6858H239.768C239.285 20.6858 239.034 20.4942 239.034 20.111C239.038 19.9945 239.069 19.8806 239.124 19.7781L244.223 9.88404C244.257 9.80085 244.274 9.71169 244.273 9.6218C244.272 9.5549 244.258 9.48885 244.23 9.42801C244.202 9.36717 244.162 9.31291 244.112 9.26879C244.066 9.21733 244.011 9.17562 243.948 9.14617C243.886 9.11671 243.819 9.10012 243.75 9.09735L243.861 8.70399H249.029C249.271 8.69813 249.508 8.77258 249.703 8.91578C249.793 8.99037 249.864 9.08474 249.911 9.19147C249.958 9.29821 249.98 9.41442 249.975 9.53103L250.779 19.6773C250.785 19.7603 250.809 19.8409 250.851 19.9127C250.893 19.9845 250.951 20.0455 251.021 20.0908C251.16 20.2121 251.338 20.28 251.523 20.2824L251.393 20.6858ZM245.711 13.9687L244.856 15.9153H245.862L245.711 13.9687Z" fill="#0B62C5"/>
<path d="M259.056 15.4312H257.829L256.823 19.7075V19.8386C256.824 19.9035 256.84 19.9673 256.87 20.025C256.9 20.0827 256.942 20.1328 256.994 20.1715C257.096 20.2566 257.223 20.3062 257.356 20.3127L257.276 20.7161H252.439C252.363 20.7274 252.285 20.721 252.212 20.6974C252.138 20.6738 252.071 20.6337 252.016 20.5801C251.961 20.5265 251.918 20.4609 251.892 20.3883C251.866 20.3157 251.857 20.2381 251.865 20.1614C251.859 20.0606 251.859 19.9596 251.865 19.8588L254.239 9.67221C254.25 9.6036 254.242 9.53328 254.215 9.46913C254.188 9.40498 254.144 9.34957 254.088 9.30914C253.989 9.20114 253.852 9.13604 253.706 9.1276L253.826 8.73424H258.643C258.719 8.72257 258.796 8.72878 258.869 8.75237C258.942 8.77596 259.009 8.81628 259.063 8.87013C259.118 8.92398 259.159 8.98989 259.184 9.0626C259.209 9.1353 259.217 9.21282 259.206 9.28898V9.59154L258.332 13.1417H259.568L260.363 9.70246C260.372 9.63494 260.364 9.56626 260.339 9.50277C260.314 9.43928 260.274 9.38307 260.222 9.33939C260.178 9.28465 260.123 9.24008 260.061 9.20874C259.998 9.17739 259.93 9.16003 259.86 9.15786L259.951 8.7645H264.767C264.844 8.75677 264.921 8.76537 264.994 8.78971C265.067 8.81405 265.133 8.85358 265.19 8.90571C265.285 9.02524 265.332 9.17659 265.321 9.3293V9.59154L262.957 19.8084C262.951 19.8762 262.963 19.9443 262.991 20.0062C263.02 20.068 263.063 20.1215 263.118 20.1614C263.167 20.2157 263.225 20.2598 263.291 20.291C263.357 20.3222 263.428 20.3398 263.5 20.3429L263.38 20.7463H258.553C258.477 20.7566 258.4 20.7491 258.327 20.7242C258.255 20.6993 258.189 20.6577 258.135 20.6029C258.082 20.5481 258.041 20.4814 258.018 20.4083C257.994 20.3352 257.988 20.2575 258 20.1815V19.9092L259.056 15.4312Z" fill="#0B62C5"/>
<path d="M271.183 17.8417H273.415C273.607 17.8405 273.796 17.7957 273.969 17.7105C274.046 17.6873 274.116 17.6459 274.174 17.5897C274.231 17.5335 274.275 17.4643 274.3 17.3878H274.703L274.2 19.5865C274.154 19.91 273.984 20.2028 273.727 20.4034C273.323 20.6393 272.857 20.7482 272.39 20.7161H268.498C267.607 20.7963 266.716 20.5569 265.984 20.0403C265.745 19.7998 265.56 19.5105 265.442 19.1921C265.324 18.8737 265.276 18.5335 265.3 18.1947C265.321 17.5373 265.415 16.8843 265.582 16.2481L266.587 12.0626C266.759 11.092 267.252 10.2075 267.985 9.55119C268.592 9.01947 269.372 8.72888 270.177 8.73425H276.07C276.07 8.93596 275.98 9.22845 275.899 9.6117C275.819 9.99496 275.748 10.2774 275.688 10.4892C275.636 10.7638 275.514 11.0206 275.336 11.2355C275.086 11.4439 274.765 11.5453 274.441 11.5179H272.651C272.49 11.501 272.327 11.5183 272.173 11.5687C272.018 11.6191 271.877 11.7015 271.756 11.8104C271.542 12.0588 271.402 12.3631 271.354 12.6879L270.348 16.8028C270.336 16.9168 270.336 17.0318 270.348 17.1457C270.278 17.6601 270.57 17.8417 271.183 17.8417Z" fill="#0B62C5"/>
<path d="M83.1338 30.1463L86.5529 26.7776L84.5417 23.4897H85.5975L86.5227 24.9924C86.7746 25.3905 87.0062 25.8012 87.2166 26.2229C87.5651 25.8015 87.9378 25.4007 88.3328 25.0227L89.9015 23.4897H91.1787L87.7294 26.9289L89.6803 30.1463H88.6747L87.5182 28.1896C87.4076 28.0081 87.2769 27.7559 87.126 27.4634C86.92 27.7063 86.7018 27.9386 86.4724 28.1594L84.4612 30.1765L83.1338 30.1463ZM93.9139 29.5411C93.4252 29.9845 92.7929 30.2354 92.134 30.2471C91.7177 30.2665 91.3091 30.1298 90.9876 29.8639C90.8395 29.7423 90.7216 29.5879 90.6431 29.4129C90.5646 29.2379 90.5276 29.047 90.5351 28.8553C90.5366 28.6301 90.5968 28.4093 90.7097 28.2146C90.8226 28.02 90.9843 27.8584 91.1787 27.7458C91.7128 27.4295 92.3296 27.2819 92.9486 27.3222H93.4111C93.61 27.3227 93.8085 27.3058 94.0044 27.2718C94.1535 27.258 94.2995 27.2205 94.4368 27.1609C94.4989 26.9719 94.5329 26.7748 94.5374 26.5759C94.5372 26.4802 94.5108 26.3863 94.4612 26.3045C94.4115 26.2227 94.3405 26.1561 94.2558 26.112C93.9995 25.9757 93.7107 25.9129 93.4212 25.9304C93.1198 25.8973 92.8161 25.9655 92.5576 26.1243C92.2992 26.2831 92.1006 26.5236 91.9932 26.8079L91.0982 26.7373C91.2706 26.261 91.5969 25.8563 92.0251 25.5876C92.4534 25.319 92.959 25.2017 93.4614 25.2547C93.9538 25.2309 94.4426 25.3499 94.8693 25.5976C95.0347 25.6835 95.1732 25.814 95.2691 25.9743C95.365 26.1345 95.4146 26.3184 95.4123 26.5053C95.4066 26.8082 95.3661 27.1094 95.2917 27.4029L95 28.593C95 28.8048 94.9196 28.9763 94.8994 29.1175C94.8902 29.2484 94.8902 29.3799 94.8994 29.5108C94.8991 29.7399 94.933 29.9677 95 30.1866H94.115C94.0823 30.0943 94.0555 30 94.0346 29.9042C94.0247 29.7969 94.0247 29.6888 94.0346 29.5815L93.9139 29.5411ZM94.2458 27.6954C93.9694 27.7876 93.6819 27.8419 93.391 27.8568L92.8882 27.9072C92.6339 27.9025 92.3801 27.9331 92.134 27.998C91.9713 28.0418 91.8203 28.121 91.6915 28.23C91.604 28.3024 91.5334 28.3932 91.4848 28.4961C91.4361 28.5989 91.4105 28.7112 91.4099 28.825C91.4083 28.9328 91.431 29.0396 91.4763 29.1374C91.5216 29.2352 91.5883 29.3215 91.6714 29.3898C91.8721 29.553 92.1278 29.6325 92.3854 29.6117C92.8046 29.6161 93.2114 29.4693 93.5318 29.1982C93.9455 28.802 94.1995 28.2672 94.2458 27.6954ZM97.0715 25.3253H98.3788L98.8616 29.1679L101.235 25.3253H102.522L101.416 30.1463H100.541L101.446 26.2531L99.0224 30.1463H98.2381L97.7252 26.112L96.8001 30.1463H95.9251L97.0414 25.3253H97.0715ZM102.804 30.1463L103.88 25.3253H104.764L104.583 26.112C104.789 25.8501 105.048 25.6348 105.343 25.4802C105.637 25.3255 105.961 25.2349 106.293 25.2143C106.584 25.1988 106.873 25.2765 107.118 25.4362C107.334 25.6043 107.483 25.8437 107.54 26.112C107.77 25.8393 108.05 25.6133 108.365 25.4463C108.648 25.2918 108.967 25.212 109.29 25.2143C109.647 25.1806 110.004 25.2774 110.295 25.4866C110.409 25.5887 110.498 25.7153 110.555 25.8568C110.613 25.9983 110.637 26.1511 110.627 26.3036C110.614 26.5526 110.573 26.7995 110.506 27.0398L109.813 30.1463H108.928L109.642 26.9592L109.712 26.6162C109.72 26.5425 109.72 26.4681 109.712 26.3944C109.715 26.324 109.702 26.2538 109.675 26.1892C109.647 26.1245 109.605 26.0671 109.551 26.0212C109.418 25.9219 109.254 25.8752 109.089 25.8901C108.777 25.8962 108.474 25.9906 108.214 26.1624C107.956 26.3179 107.741 26.5365 107.59 26.7978C107.442 27.1203 107.331 27.4586 107.258 27.8064L106.725 30.1463H105.841L106.575 26.8885C106.614 26.7329 106.641 26.5744 106.655 26.4145C106.657 26.3428 106.644 26.2716 106.616 26.2055C106.588 26.1394 106.547 26.08 106.494 26.0313C106.377 25.9375 106.231 25.8876 106.082 25.8901C105.931 25.8889 105.782 25.9127 105.639 25.9607C105.482 26.008 105.333 26.0795 105.197 26.1725C104.926 26.3407 104.704 26.5772 104.553 26.8583C104.395 27.1785 104.276 27.5173 104.201 27.8669L103.688 30.1463H102.804ZM117.325 25.3253H118.22L117.093 30.1463H116.208L117.325 25.3253ZM112.226 25.3253H113.101L112.659 27.1911H113.604C114.033 27.1731 114.463 27.2138 114.881 27.3122C115.125 27.3896 115.337 27.5456 115.484 27.7559C115.635 27.9676 115.716 28.2217 115.716 28.4821C115.714 28.6401 115.687 28.7968 115.635 28.946C115.586 29.1083 115.512 29.2616 115.414 29.3999C115.24 29.6706 114.982 29.8763 114.68 29.9849C114.235 30.108 113.774 30.1624 113.312 30.1463H111.1L112.297 25.3253H112.226ZM112.126 29.4907H113.302C113.613 29.5013 113.923 29.4742 114.227 29.41C114.407 29.3544 114.567 29.2496 114.69 29.1074C114.812 28.9605 114.876 28.774 114.871 28.5829C114.878 28.4134 114.821 28.2474 114.71 28.119C114.614 28.004 114.483 27.9227 114.338 27.8871H114.036H112.558L112.176 29.531L112.126 29.4907ZM119.557 25.3253H120.432L119.959 27.3424H122.353L122.815 25.3253H123.67L122.584 30.1463H121.709L122.212 27.9879H119.839L119.346 30.1463H118.471L119.577 25.3253H119.557ZM126.375 30.1463L128.628 27.6954L127.381 25.3253H128.386L128.819 26.1826C129.01 26.5557 129.161 26.8684 129.261 27.1003L130.749 25.3253H131.825L129.603 27.7458L130.91 30.1362H129.905L129.392 29.1276C129.326 29.013 129.265 28.8952 129.211 28.7746C129.211 28.6939 129.1 28.5527 129.01 28.351L127.471 30.116L126.375 30.1463ZM133.022 30.1463L132.167 25.3253H133.022L133.475 27.9778C133.522 28.2401 133.582 28.7141 133.656 29.3999C133.827 29.0469 134.038 28.6536 134.299 28.2199L136.029 25.3253H136.964L133.998 30.1463L133.384 32.0424H132.489L133.022 30.1261V30.1463ZM137.507 25.3253H138.442L138.261 26.1321C138.166 26.4816 138.105 26.8397 138.08 27.2012C138.077 27.2979 138.1 27.3937 138.146 27.4788C138.192 27.5639 138.259 27.6352 138.342 27.6853C138.582 27.805 138.848 27.8606 139.116 27.8467C139.51 27.8487 139.902 27.7804 140.273 27.645L140.806 25.3253H141.68L140.584 30.1463H139.699L140.122 28.2905C139.726 28.4245 139.312 28.496 138.895 28.5023C138.461 28.5227 138.031 28.4139 137.658 28.1896C137.511 28.0928 137.392 27.9589 137.312 27.8014C137.233 27.6439 137.196 27.4682 137.206 27.292C137.248 26.8429 137.326 26.3978 137.437 25.9607L137.578 25.3253H137.507ZM144.727 28.1493L144.919 27.3222H147.603L147.422 28.1493H144.727ZM150.218 30.1664L154.241 23.5098H155.367L156.543 30.1664H155.618L155.266 28.2501H152.38L151.234 30.1664H150.218ZM152.813 27.5643H155.186L154.904 25.8901C154.844 25.4866 154.794 25.1841 154.763 24.9622C154.727 24.7217 154.707 24.4791 154.703 24.236C154.502 24.7031 154.266 25.1548 153.999 25.5875L152.813 27.6046V27.5643ZM158.504 25.3454H159.822L160.304 29.1881L162.708 25.3454H163.995L162.889 30.1664H162.014L162.919 26.2733L160.566 30.1463H159.781L159.269 26.112L158.343 30.1463H157.469L158.575 25.3253L158.504 25.3454ZM167.686 25.3454H168.611L168.128 27.3626H168.198C168.395 27.3573 168.584 27.2823 168.731 27.1508C168.976 26.9001 169.192 26.6227 169.375 26.3238C169.566 25.9923 169.827 25.7066 170.139 25.4866C170.359 25.369 170.604 25.3067 170.853 25.3051C171.04 25.3079 171.226 25.335 171.406 25.3858L171.205 25.8699C171.112 25.8342 171.013 25.8138 170.914 25.8094C170.77 25.8082 170.631 25.8583 170.521 25.9506C170.355 26.126 170.213 26.3227 170.099 26.5355C169.848 27.0429 169.418 27.4383 168.892 27.645C169.054 27.6951 169.205 27.7775 169.335 27.8871C169.527 28.085 169.675 28.3224 169.767 28.5829L170.421 30.1261H169.506L169.003 28.8956C168.901 28.6153 168.755 28.3531 168.571 28.119C168.416 27.9798 168.223 27.8917 168.017 27.8669L167.495 30.1261H166.599L167.122 27.8669C167.036 27.8564 166.948 27.8564 166.861 27.8669L166.62 27.9879C166.319 28.2188 166.052 28.4903 165.825 28.7948L164.759 30.0857H163.683L165.061 28.472C165.384 28.0543 165.831 27.7505 166.338 27.6046C166.164 27.5018 166.016 27.3604 165.906 27.1911C165.768 26.9119 165.676 26.6122 165.634 26.3036C165.616 26.1528 165.565 26.008 165.483 25.88C165.454 25.8415 165.416 25.8111 165.372 25.7917C165.328 25.7723 165.28 25.7645 165.232 25.769C165.106 25.7762 164.981 25.7965 164.86 25.8296L164.92 25.3152H165.141H165.373C165.494 25.303 165.617 25.3184 165.732 25.3603C165.847 25.4022 165.951 25.4695 166.036 25.5572C166.215 25.8016 166.332 26.0852 166.378 26.3843C166.427 26.6716 166.533 26.9462 166.69 27.1911C166.763 27.2579 166.849 27.3085 166.942 27.3397C167.036 27.371 167.135 27.3822 167.233 27.3727L167.726 25.3555L167.686 25.3454ZM174.654 29.289C174.426 29.5791 174.14 29.8185 173.815 29.9921C173.489 30.1657 173.131 30.2697 172.764 30.2975C172.403 30.3216 172.046 30.2142 171.758 29.995C171.634 29.9054 171.534 29.787 171.466 29.65C171.397 29.513 171.363 29.3614 171.366 29.2083C171.393 28.8676 171.45 28.5301 171.537 28.1997L172.161 25.4261H173.045L172.352 28.4519C172.3 28.6497 172.269 28.8526 172.261 29.057C172.256 29.1374 172.269 29.2178 172.299 29.2927C172.328 29.3676 172.374 29.4352 172.432 29.4907C172.588 29.5908 172.77 29.6401 172.955 29.6319C173.314 29.6393 173.665 29.5335 173.961 29.3293C174.241 29.1413 174.472 28.8888 174.634 28.593C174.797 28.2271 174.922 27.8452 175.006 27.4533L175.469 25.3757H176.354L175.268 30.1967H174.453L174.654 29.3192V29.289ZM178.144 25.3454H182.046L180.94 30.1664H180.065L181.07 26.0313H178.898L178.224 28.9057C178.16 29.2747 178.005 29.6215 177.772 29.9143C177.666 30.0139 177.541 30.0911 177.404 30.1413C177.268 30.1916 177.123 30.2138 176.977 30.2068H176.635C176.491 30.2145 176.347 30.2145 176.203 30.2068L176.364 29.5209H176.736C176.815 29.5327 176.896 29.5251 176.971 29.4987C177.046 29.4724 177.114 29.4281 177.168 29.3696C177.311 29.065 177.412 28.7429 177.47 28.4115L178.184 25.3858L178.144 25.3454ZM182.287 30.1664L183.373 25.3454H184.258L184.077 26.1321C184.282 25.8693 184.541 25.6534 184.835 25.4986C185.13 25.3438 185.454 25.2538 185.787 25.2345C186.078 25.2204 186.366 25.298 186.611 25.4564C186.827 25.6245 186.977 25.8639 187.034 26.1321C187.263 25.8594 187.543 25.6334 187.858 25.4665C188.142 25.3119 188.46 25.2322 188.783 25.2345C189.14 25.2008 189.497 25.2975 189.789 25.5068C189.902 25.6089 189.991 25.7354 190.049 25.877C190.106 26.0185 190.131 26.1713 190.121 26.3238C190.107 26.5728 190.067 26.8197 190 27.06L189.306 30.1664H188.421L189.135 26.9793L189.206 26.6364C189.214 26.5627 189.214 26.4882 189.206 26.4145C189.211 26.3449 189.2 26.275 189.174 26.2102C189.148 26.1455 189.107 26.0877 189.055 26.0414C188.922 25.9421 188.757 25.8954 188.592 25.9102C188.281 25.9146 187.977 26.0092 187.717 26.1826C187.459 26.3407 187.241 26.5585 187.084 26.8179C186.944 27.1428 186.836 27.4806 186.762 27.8265L186.229 30.1664H185.344L186.078 26.9087C186.117 26.7531 186.144 26.5946 186.159 26.4347C186.161 26.3619 186.147 26.2895 186.118 26.223C186.088 26.1566 186.044 26.0979 185.988 26.0514C185.876 25.956 185.732 25.9057 185.585 25.9102C185.435 25.909 185.286 25.9329 185.143 25.9808C184.985 26.0282 184.836 26.0996 184.7 26.1926C184.43 26.3608 184.208 26.5974 184.057 26.8785C183.898 27.1987 183.78 27.5375 183.705 27.8871L183.192 30.1664H182.287ZM196.828 25.3454H197.773L196.647 30.1664H195.762L196.878 25.3454H196.828ZM191.72 25.3454H192.605L192.162 27.2113H193.107C193.537 27.1932 193.966 27.234 194.385 27.3323C194.629 27.4098 194.841 27.5657 194.988 27.7761C195.139 27.9878 195.22 28.2419 195.219 28.5023C195.218 28.6603 195.191 28.817 195.139 28.9662C195.086 29.1288 195.008 29.282 194.907 29.4201C194.738 29.6952 194.479 29.9021 194.173 30.005C193.729 30.1296 193.267 30.184 192.806 30.1664H190.603L191.74 25.3253L191.72 25.3454ZM191.629 29.5108H192.745C193.056 29.5215 193.367 29.4944 193.671 29.4302C193.85 29.3746 194.01 29.2698 194.133 29.1276C194.255 28.9806 194.319 28.7942 194.314 28.6031C194.321 28.4336 194.264 28.2676 194.153 28.1392C194.057 28.0242 193.927 27.9429 193.781 27.9072H193.479H192.001L191.619 29.5512L191.629 29.5108ZM199.061 25.3454H199.936L199.463 27.3626H201.866L202.329 25.3454H203.184L202.098 30.1664H201.223L201.715 28.0081H199.322L198.829 30.1664H197.954L199.061 25.3454ZM206.221 30.1664L207.307 25.3454H208.181L208 26.1321C208.207 25.8712 208.466 25.6566 208.761 25.502C209.055 25.3475 209.378 25.2563 209.71 25.2345C210.005 25.219 210.297 25.2966 210.545 25.4564C210.758 25.6255 210.904 25.865 210.957 26.1321C211.191 25.8591 211.474 25.6332 211.792 25.4665C212.072 25.3119 212.387 25.2321 212.707 25.2345C213.064 25.198 213.422 25.295 213.712 25.5068C213.826 25.6089 213.915 25.7354 213.972 25.877C214.03 26.0185 214.054 26.1713 214.044 26.3238C214.03 26.5721 213.993 26.8185 213.934 27.06L213.23 30.1664H212.355L213.069 26.9793L213.139 26.6364C213.139 26.5456 213.139 26.475 213.139 26.4145C213.144 26.3449 213.133 26.275 213.107 26.2102C213.081 26.1455 213.04 26.0877 212.988 26.0414C212.855 25.9429 212.691 25.8963 212.526 25.9102C212.214 25.9135 211.91 26.0082 211.651 26.1826C211.388 26.3349 211.169 26.554 211.017 26.8179C210.873 27.1422 210.762 27.4801 210.686 27.8265L210.153 30.1664H209.278L210.012 26.9087C210.051 26.7531 210.078 26.5946 210.092 26.4347C210.095 26.3619 210.081 26.2895 210.051 26.223C210.022 26.1566 209.977 26.0979 209.921 26.0514C209.808 25.9577 209.666 25.9076 209.519 25.9102C209.369 25.9083 209.219 25.9321 209.076 25.9808C208.919 26.0282 208.77 26.0996 208.634 26.1926C208.36 26.3602 208.135 26.5967 207.98 26.8785C207.826 27.1993 207.711 27.5381 207.638 27.8871L207.126 30.1664H206.221ZM215.854 30.1664L215 25.3454H215.874L216.327 27.998C216.327 28.2602 216.428 28.7342 216.498 29.4201C216.669 29.0671 216.89 28.6737 217.152 28.24L218.891 25.3253H219.816L216.88 30.1463L216.267 32.0424H215.372L215.905 30.1261L215.854 30.1664ZM221.013 25.3454H224.925L223.819 30.1664H222.914L223.919 26.0313H221.747L221.073 28.9057C221.009 29.2747 220.854 29.6215 220.621 29.9143C220.515 30.0139 220.39 30.0911 220.253 30.1413C220.117 30.1916 219.972 30.2138 219.826 30.2068H219.485C219.341 30.2149 219.196 30.2149 219.052 30.2068L219.213 29.5209H219.575C219.806 29.5209 219.947 29.5209 220.018 29.3696C220.155 29.0631 220.256 28.7416 220.319 28.4115L221.033 25.3858L221.013 25.3454ZM224.814 30.1664L227.067 27.7156L225.78 25.3454H226.785L227.218 26.2027C227.409 26.5759 227.56 26.8886 227.66 27.1205L229.149 25.3454H230.225L228.042 27.7458L229.35 30.1362H228.344L227.831 29.1276C227.765 29.013 227.705 28.8952 227.65 28.7746C227.65 28.6939 227.54 28.5527 227.459 28.351L225.931 30.1463L224.814 30.1664ZM231.461 30.1664L230.617 25.3454H231.461L231.914 27.998C231.961 28.2602 232.021 28.7342 232.095 29.4201C232.266 29.0671 232.477 28.6737 232.739 28.24L234.468 25.3454H235.403L232.387 30.1664L231.773 32.0625H230.888L231.411 30.1463L231.461 30.1664ZM236.489 30.1664L235.635 25.3454H236.489L236.942 27.998C236.942 28.2602 237.043 28.7342 237.113 29.4201C237.284 29.0671 237.505 28.6737 237.767 28.24L239.496 25.3454H240.421L237.465 30.1664L236.851 32.0625H235.956L236.489 30.1463V30.1664ZM239.758 32.0121L241.246 25.3454H242.02L241.869 26.0111C242.068 25.7834 242.31 25.5975 242.581 25.4642C242.852 25.3309 243.147 25.2528 243.448 25.2345C243.675 25.2296 243.9 25.2719 244.109 25.3587C244.319 25.4455 244.508 25.5749 244.665 25.7388C244.838 25.9324 244.971 26.1588 245.056 26.4048C245.141 26.6508 245.175 26.9113 245.158 27.1709C245.177 27.9695 244.906 28.7478 244.394 29.3596C244.186 29.6349 243.919 29.8596 243.612 30.0168C243.306 30.174 242.968 30.2596 242.624 30.2673C242.325 30.2703 242.031 30.1898 241.775 30.0349C241.52 29.8799 241.312 29.6565 241.176 29.3898L240.592 32.0121H239.758ZM241.487 28.351C241.475 28.5218 241.498 28.6934 241.555 28.8548C241.613 29.0162 241.702 29.1641 241.819 29.289C242.041 29.494 242.332 29.6059 242.634 29.6016C242.894 29.5934 243.146 29.5127 243.363 29.3683C243.58 29.224 243.752 29.0219 243.861 28.7847C244.152 28.2888 244.311 27.7262 244.323 27.1508C244.329 26.8351 244.23 26.5264 244.042 26.2733C243.948 26.1478 243.824 26.0478 243.682 25.9826C243.539 25.9174 243.383 25.8891 243.227 25.9002C242.971 25.9072 242.721 25.9829 242.503 26.1194C242.286 26.256 242.108 26.4484 241.99 26.6768C241.662 27.173 241.487 27.7554 241.487 28.351Z" fill="#0B62C5"/>
</g>
<defs>
<clipPath id="clip0">
<rect width="276" height="40" fill="white"/>
</clipPath>
</defs>
</svg>
