<svg width="16" height="14" viewBox="0 0 16 14" fill="none" xmlns="http://www.w3.org/2000/svg">
<path d="M14.1016 2.59325L14.0937 2.56249C14.7715 2.15612 15.3189 1.4862 15.5624 0.718749C14.9274 1.09656 14.1845 1.38305 13.4374 1.53125C12.8383 0.892943 12.039 0.5 11.0937 0.5C9.28208 0.5 7.78123 1.96679 7.78123 3.78124C7.78123 4.05931 7.80418 4.3286 7.83482 4.56444C6.23961 4.44054 4.7406 3.92296 3.36976 3.02111C2.17275 2.23376 1.52749 1.43225 1.52199 1.42541C1.34621 1.20263 1.04238 1.1261 0.782251 1.23926C0.521999 1.35241 0.370632 1.62658 0.413479 1.90698C0.428371 2.00378 0.733545 3.9171 1.88674 5.58421C1.61794 5.54234 1.45754 5.46763 1.42678 5.45237C1.20364 5.32017 0.930077 5.34446 0.727076 5.50633C0.522853 5.66917 0.449856 5.94663 0.531276 6.1948C0.557643 6.27537 1.1061 7.87461 3.10865 8.72214C2.67958 8.84592 2.29897 8.84384 2.29408 8.84384C2.28981 8.84384 2.28554 8.84372 2.28127 8.84372C2.01674 8.84372 1.78029 9.01059 1.69204 9.26083C1.60219 9.5151 1.68581 9.7983 1.89919 9.96322C1.9474 10.0005 2.84388 10.6816 4.30078 11.0258C3.79114 11.3064 3.18958 11.4752 2.50062 11.5302C1.54714 11.6064 0.780298 11.4257 0.774072 11.4242C0.457058 11.3465 0.133695 11.5257 0.0315232 11.8357C-0.070649 12.1456 0.0830366 12.482 0.384182 12.6079C0.474392 12.6455 2.61805 13.5311 4.75012 13.5311C6.23009 13.5311 7.33861 13.3963 8.34409 13.0941C9.59885 12.7168 10.6641 12.0733 11.6005 11.127C11.8433 10.8817 11.8413 10.4859 11.5959 10.2431C11.3504 10.0003 10.9548 10.0024 10.712 10.2479C9.04221 11.9354 7.12096 12.2812 4.75012 12.2812C4.69458 12.2812 4.63904 12.2805 4.58337 12.279C5.24475 11.9754 5.81188 11.5424 6.26476 10.9898C6.41576 10.8055 6.44896 10.5515 6.35009 10.3346C6.25133 10.1178 6.03783 9.97604 5.79968 9.96896C5.14709 9.94979 4.57068 9.82479 4.09583 9.66964C4.44837 9.49057 4.79175 9.23617 5.06262 8.87497C5.19275 8.70151 5.22363 8.47299 5.14428 8.27121C5.06494 8.06943 4.8866 7.92319 4.67322 7.88486C3.62391 7.69626 2.92701 7.2739 2.47499 6.85813C2.72865 6.84495 3.00733 6.80649 3.30799 6.73142C3.52845 6.67625 3.70167 6.50584 3.76026 6.28623C3.81885 6.06675 3.75379 5.83262 3.5901 5.67503C3.02357 5.12913 2.61183 4.45262 2.31728 3.81444C2.42006 3.88805 2.52724 3.96215 2.63856 4.03624C3.87928 4.86082 5.91955 5.84373 8.59385 5.84373C8.78831 5.84373 8.97165 5.75279 9.08982 5.59837C9.2081 5.44407 9.24765 5.2429 9.19712 5.05516C9.19541 5.04906 9.03135 4.43297 9.03135 3.78124C9.03135 3.24303 9.24607 2.73473 9.63608 2.35009C10.0283 1.96313 10.546 1.75 11.0938 1.75C11.6477 1.75 12.1296 1.96423 12.5262 2.38671C12.8126 2.65624 13.1251 3.37499 13.1251 3.80883V4.18749C13.1251 4.20067 13.1264 4.21861 13.1296 4.23985C13.1269 4.26378 13.1251 4.28795 13.1251 4.31249C13.1251 5.73326 12.8621 6.99814 12.3435 8.07187C12.1933 8.38278 12.3237 8.75644 12.6345 8.90658C12.7221 8.94882 12.8146 8.96884 12.9058 8.96884C13.1383 8.96884 13.3613 8.83871 13.4691 8.61557C14.0703 7.37082 14.3751 5.92308 14.3751 4.31249C14.3751 4.28868 14.3734 4.26524 14.3708 4.24217C14.3737 4.22069 14.3751 4.20213 14.3751 4.18749V3.74999C15.0171 3.28624 15.5608 2.6599 16.0001 1.99999C15.9999 1.99999 14.8478 2.54589 14.1016 2.59325Z" fill="#131B24"/>
</svg>
