<svg width="24" height="24" viewBox="0 0 24 24" fill="none" xmlns="http://www.w3.org/2000/svg">
<path fill-rule="evenodd" clip-rule="evenodd" d="M11.915 2.83502C12.3292 2.83502 12.665 3.17081 12.665 3.58502V11.25H20.33C20.7442 11.25 21.08 11.5858 21.08 12C21.08 12.4142 20.7442 12.75 20.33 12.75H12.665V20.415C12.665 20.8292 12.3292 21.165 11.915 21.165C11.5008 21.165 11.165 20.8292 11.165 20.415L11.165 12.75H3.5C3.08579 12.75 2.75 12.4142 2.75 12C2.75 11.5858 3.08579 11.25 3.5 11.25H11.165V3.58502C11.165 3.17081 11.5008 2.83502 11.915 2.83502Z" fill="white"/>
</svg>
